<?xml version="1.0" encoding="utf-8" standalone="no"?>
<!DOCTYPE svg PUBLIC "-//W3C//DTD SVG 1.1//EN"
  "http://www.w3.org/Graphics/SVG/1.1/DTD/svg11.dtd">
<svg xmlns:xlink="http://www.w3.org/1999/xlink" width="720pt" height="720pt" viewBox="0 0 720 720" xmlns="http://www.w3.org/2000/svg" version="1.1">
 <metadata>
  <rdf:RDF xmlns:dc="http://purl.org/dc/elements/1.1/" xmlns:cc="http://creativecommons.org/ns#" xmlns:rdf="http://www.w3.org/1999/02/22-rdf-syntax-ns#">
   <cc:Work>
    <dc:type rdf:resource="http://purl.org/dc/dcmitype/StillImage"/>
    <dc:date>2023-02-21T17:34:43.198614</dc:date>
    <dc:format>image/svg+xml</dc:format>
    <dc:creator>
     <cc:Agent>
      <dc:title>Matplotlib v3.6.2, https://matplotlib.org/</dc:title>
     </cc:Agent>
    </dc:creator>
   </cc:Work>
  </rdf:RDF>
 </metadata>
 <defs>
  <style type="text/css">*{stroke-linejoin: round; stroke-linecap: butt}</style>
 </defs>
 <g id="figure_1">
  <g id="patch_1">
   <path d="M 0 720 
L 720 720 
L 720 0 
L 0 0 
z
" style="fill: #ffffff"/>
  </g>
  <g id="axes_1">
   <g id="patch_2">
    <path d="M 646.2 363.6 
C 646.2 327.19843 639.029684 291.150818 625.099406 257.520153 
C 611.169128 223.889487 590.749797 193.329798 565.01 167.59 
C 539.270202 141.850203 508.710513 121.430872 475.079847 107.500594 
C 441.449182 93.570316 405.40157 86.4 369 86.4 
C 332.59843 86.4 296.550818 93.570316 262.920153 107.500594 
C 229.289487 121.430872 198.729798 141.850203 172.99 167.59 
C 147.250203 193.329798 126.830872 223.889487 112.900594 257.520153 
C 98.970316 291.150818 91.8 327.19843 91.8 363.6 
C 91.8 400.00157 98.970316 436.049182 112.900594 469.679847 
C 126.830872 503.310513 147.250203 533.870202 172.99 559.61 
C 198.729798 585.349797 229.289487 605.769128 262.920153 619.699406 
C 296.550818 633.629684 332.59843 640.8 369 640.8 
C 405.40157 640.8 441.449182 633.629684 475.079847 619.699406 
C 508.710513 605.769128 539.270202 585.349797 565.01 559.61 
C 590.749797 533.870202 611.169128 503.310513 625.099406 469.679847 
C 639.029684 436.049182 646.2 400.00157 646.2 363.6 
M 369 363.6 
C 369 363.6 369 363.6 369 363.6 
C 369 363.6 369 363.6 369 363.6 
C 369 363.6 369 363.6 369 363.6 
C 369 363.6 369 363.6 369 363.6 
C 369 363.6 369 363.6 369 363.6 
C 369 363.6 369 363.6 369 363.6 
C 369 363.6 369 363.6 369 363.6 
C 369 363.6 369 363.6 369 363.6 
C 369 363.6 369 363.6 369 363.6 
C 369 363.6 369 363.6 369 363.6 
C 369 363.6 369 363.6 369 363.6 
C 369 363.6 369 363.6 369 363.6 
C 369 363.6 369 363.6 369 363.6 
C 369 363.6 369 363.6 369 363.6 
C 369 363.6 369 363.6 369 363.6 
C 369 363.6 369 363.6 369 363.6 
M 646.2 363.6 
z
" style="fill: #ffffff"/>
   </g>
   <g id="patch_3">
    <path d="M 515.924442 363.6 
L 502.430429 308.331307 
L 459.964065 257.094764 
L 398.754345 239.664233 
L 341.996006 251.120269 
L 279.039833 258.270177 
L 232.646576 307.120563 
L 216.550112 363.6 
L 232.646576 420.079437 
L 279.039833 468.929823 
L 341.996006 476.079731 
L 398.754345 487.535767 
L 459.964065 470.105236 
L 502.430429 418.868693 
z
" clip-path="url(#pb67bd54f5d)" style="fill: #1f77b4; opacity: 0.1"/>
   </g>
   <g id="patch_4">
    <path d="M 539.95792 363.6 
L 524.397736 299.23215 
L 475.519121 238.882134 
L 404.385308 216.209585 
L 336.654544 228.871479 
L 264.41729 241.149379 
L 210.107014 297.78437 
L 191.763506 363.6 
L 210.107014 429.41563 
L 264.41729 486.050621 
L 336.654544 498.328521 
L 404.385308 510.990415 
L 475.519121 488.317866 
L 524.397736 427.96785 
z
" clip-path="url(#pb67bd54f5d)" style="fill: #ff7f0e; opacity: 0.1"/>
   </g>
   <g id="patch_5">
    <path d="M 564.057871 363.6 
L 546.944874 289.89282 
L 492.374453 219.147075 
L 410.385726 191.216047 
L 331.090407 205.695179 
L 248.109208 222.055069 
L 187.365628 288.36458 
L 166.660406 363.6 
L 187.365628 438.83542 
L 248.109208 505.144931 
L 331.090407 521.504821 
L 410.385726 535.983953 
L 492.374453 508.052925 
L 546.944874 437.30718 
z
" clip-path="url(#pb67bd54f5d)" style="fill: #2ca02c; opacity: 0.1"/>
   </g>
   <g id="patch_6">
    <path d="M 620.486802 363.6 
L 603.341185 266.532703 
L 535.712926 168.404242 
L 428.891875 114.132385 
L 313.739418 133.423109 
L 212.200497 180.01137 
L 139.489519 268.533646 
L 99.491626 363.6 
L 139.489519 458.666354 
L 212.200497 547.18863 
L 313.739418 593.776891 
L 428.891875 613.067615 
L 535.712926 558.795758 
L 603.341185 460.667297 
z
" clip-path="url(#pb67bd54f5d)" style="fill: #d62728; opacity: 0.1"/>
   </g>
   <g id="matplotlib.axis_1">
    <g id="xtick_1">
     <g id="line2d_1">
      <path d="M 369 363.6 
L 646.2 363.6 
" clip-path="url(#pb67bd54f5d)" style="fill: none; stroke: #b0b0b0; stroke-width: 0.8; stroke-linecap: square"/>
     </g>
     <g id="text_1">
      <!-- 0 -->
      <g transform="translate(657.01875 366.359375) scale(0.1 -0.1)">
       <defs>
        <path id="DejaVuSans-30" d="M 2034 4250 
Q 1547 4250 1301 3770 
Q 1056 3291 1056 2328 
Q 1056 1369 1301 889 
Q 1547 409 2034 409 
Q 2525 409 2770 889 
Q 3016 1369 3016 2328 
Q 3016 3291 2770 3770 
Q 2525 4250 2034 4250 
z
M 2034 4750 
Q 2819 4750 3233 4129 
Q 3647 3509 3647 2328 
Q 3647 1150 3233 529 
Q 2819 -91 2034 -91 
Q 1250 -91 836 529 
Q 422 1150 422 2328 
Q 422 3509 836 4129 
Q 1250 4750 2034 4750 
z
" transform="scale(0.015625)"/>
       </defs>
       <use xlink:href="#DejaVuSans-30"/>
      </g>
     </g>
    </g>
    <g id="xtick_2">
     <g id="line2d_2">
      <path d="M 369 363.6 
L 625.099406 257.520153 
" clip-path="url(#pb67bd54f5d)" style="fill: none; stroke: #b0b0b0; stroke-width: 0.8; stroke-linecap: square"/>
     </g>
     <g id="text_2">
      <!-- 22 -->
      <g transform="translate(631.67122 254.921959) scale(0.1 -0.1)">
       <defs>
        <path id="DejaVuSans-32" d="M 1228 531 
L 3431 531 
L 3431 0 
L 469 0 
L 469 531 
Q 828 903 1448 1529 
Q 2069 2156 2228 2338 
Q 2531 2678 2651 2914 
Q 2772 3150 2772 3378 
Q 2772 3750 2511 3984 
Q 2250 4219 1831 4219 
Q 1534 4219 1204 4116 
Q 875 4013 500 3803 
L 500 4441 
Q 881 4594 1212 4672 
Q 1544 4750 1819 4750 
Q 2544 4750 2975 4387 
Q 3406 4025 3406 3419 
Q 3406 3131 3298 2873 
Q 3191 2616 2906 2266 
Q 2828 2175 2409 1742 
Q 1991 1309 1228 531 
z
" transform="scale(0.015625)"/>
       </defs>
       <use xlink:href="#DejaVuSans-32"/>
       <use xlink:href="#DejaVuSans-32" x="63.623047"/>
      </g>
     </g>
    </g>
    <g id="xtick_3">
     <g id="line2d_3">
      <path d="M 369 363.6 
L 549.026999 152.815466 
" clip-path="url(#pb67bd54f5d)" style="fill: none; stroke: #b0b0b0; stroke-width: 0.8; stroke-linecap: square"/>
     </g>
     <g id="text_3">
      <!-- 50 -->
      <g transform="translate(551.756772 144.929158) scale(0.1 -0.1)">
       <defs>
        <path id="DejaVuSans-35" d="M 691 4666 
L 3169 4666 
L 3169 4134 
L 1269 4134 
L 1269 2991 
Q 1406 3038 1543 3061 
Q 1681 3084 1819 3084 
Q 2600 3084 3056 2656 
Q 3513 2228 3513 1497 
Q 3513 744 3044 326 
Q 2575 -91 1722 -91 
Q 1428 -91 1123 -41 
Q 819 9 494 109 
L 494 744 
Q 775 591 1075 516 
Q 1375 441 1709 441 
Q 2250 441 2565 725 
Q 2881 1009 2881 1497 
Q 2881 1984 2565 2268 
Q 2250 2553 1709 2553 
Q 1456 2553 1204 2497 
Q 953 2441 691 2322 
L 691 4666 
z
" transform="scale(0.015625)"/>
       </defs>
       <use xlink:href="#DejaVuSans-35"/>
       <use xlink:href="#DejaVuSans-30" x="63.623047"/>
      </g>
     </g>
    </g>
    <g id="xtick_4">
     <g id="line2d_4">
      <path d="M 369 363.6 
L 433.711055 94.059058 
" clip-path="url(#pb67bd54f5d)" style="fill: none; stroke: #b0b0b0; stroke-width: 0.8; stroke-linecap: square"/>
     </g>
     <g id="text_4">
      <!-- 76 -->
      <g transform="translate(430.61679 83.205254) scale(0.1 -0.1)">
       <defs>
        <path id="DejaVuSans-37" d="M 525 4666 
L 3525 4666 
L 3525 4397 
L 1831 0 
L 1172 0 
L 2766 4134 
L 525 4134 
L 525 4666 
z
" transform="scale(0.015625)"/>
        <path id="DejaVuSans-36" d="M 2113 2584 
Q 1688 2584 1439 2293 
Q 1191 2003 1191 1497 
Q 1191 994 1439 701 
Q 1688 409 2113 409 
Q 2538 409 2786 701 
Q 3034 994 3034 1497 
Q 3034 2003 2786 2293 
Q 2538 2584 2113 2584 
z
M 3366 4563 
L 3366 3988 
Q 3128 4100 2886 4159 
Q 2644 4219 2406 4219 
Q 1781 4219 1451 3797 
Q 1122 3375 1075 2522 
Q 1259 2794 1537 2939 
Q 1816 3084 2150 3084 
Q 2853 3084 3261 2657 
Q 3669 2231 3669 1497 
Q 3669 778 3244 343 
Q 2819 -91 2113 -91 
Q 1303 -91 875 529 
Q 447 1150 447 2328 
Q 447 3434 972 4092 
Q 1497 4750 2381 4750 
Q 2619 4750 2861 4703 
Q 3103 4656 3366 4563 
z
" transform="scale(0.015625)"/>
       </defs>
       <use xlink:href="#DejaVuSans-37"/>
       <use xlink:href="#DejaVuSans-36" x="63.623047"/>
      </g>
     </g>
    </g>
    <g id="xtick_5">
     <g id="line2d_5">
      <path d="M 369 363.6 
L 304.288945 94.059058 
" clip-path="url(#pb67bd54f5d)" style="fill: none; stroke: #b0b0b0; stroke-width: 0.8; stroke-linecap: square"/>
     </g>
     <g id="text_5">
      <!-- 104 -->
      <g transform="translate(291.47696 83.205254) scale(0.1 -0.1)">
       <defs>
        <path id="DejaVuSans-31" d="M 794 531 
L 1825 531 
L 1825 4091 
L 703 3866 
L 703 4441 
L 1819 4666 
L 2450 4666 
L 2450 531 
L 3481 531 
L 3481 0 
L 794 0 
L 794 531 
z
" transform="scale(0.015625)"/>
        <path id="DejaVuSans-34" d="M 2419 4116 
L 825 1625 
L 2419 1625 
L 2419 4116 
z
M 2253 4666 
L 3047 4666 
L 3047 1625 
L 3713 1625 
L 3713 1100 
L 3047 1100 
L 3047 0 
L 2419 0 
L 2419 1100 
L 313 1100 
L 313 1709 
L 2253 4666 
z
" transform="scale(0.015625)"/>
       </defs>
       <use xlink:href="#DejaVuSans-31"/>
       <use xlink:href="#DejaVuSans-30" x="63.623047"/>
       <use xlink:href="#DejaVuSans-34" x="127.246094"/>
      </g>
     </g>
    </g>
    <g id="xtick_6">
     <g id="line2d_6">
      <path d="M 369 363.6 
L 188.973001 152.815466 
" clip-path="url(#pb67bd54f5d)" style="fill: none; stroke: #b0b0b0; stroke-width: 0.8; stroke-linecap: square"/>
     </g>
     <g id="text_6">
      <!-- 130 -->
      <g transform="translate(170.336978 144.929158) scale(0.1 -0.1)">
       <defs>
        <path id="DejaVuSans-33" d="M 2597 2516 
Q 3050 2419 3304 2112 
Q 3559 1806 3559 1356 
Q 3559 666 3084 287 
Q 2609 -91 1734 -91 
Q 1441 -91 1130 -33 
Q 819 25 488 141 
L 488 750 
Q 750 597 1062 519 
Q 1375 441 1716 441 
Q 2309 441 2620 675 
Q 2931 909 2931 1356 
Q 2931 1769 2642 2001 
Q 2353 2234 1838 2234 
L 1294 2234 
L 1294 2753 
L 1863 2753 
Q 2328 2753 2575 2939 
Q 2822 3125 2822 3475 
Q 2822 3834 2567 4026 
Q 2313 4219 1838 4219 
Q 1578 4219 1281 4162 
Q 984 4106 628 3988 
L 628 4550 
Q 988 4650 1302 4700 
Q 1616 4750 1894 4750 
Q 2613 4750 3031 4423 
Q 3450 4097 3450 3541 
Q 3450 3153 3228 2886 
Q 3006 2619 2597 2516 
z
" transform="scale(0.015625)"/>
       </defs>
       <use xlink:href="#DejaVuSans-31"/>
       <use xlink:href="#DejaVuSans-33" x="63.623047"/>
       <use xlink:href="#DejaVuSans-30" x="127.246094"/>
      </g>
     </g>
    </g>
    <g id="xtick_7">
     <g id="line2d_7">
      <path d="M 369 363.6 
L 112.900594 257.520153 
" clip-path="url(#pb67bd54f5d)" style="fill: none; stroke: #b0b0b0; stroke-width: 0.8; stroke-linecap: square"/>
     </g>
     <g id="text_7">
      <!-- 158 -->
      <g transform="translate(90.42253 254.921959) scale(0.1 -0.1)">
       <defs>
        <path id="DejaVuSans-38" d="M 2034 2216 
Q 1584 2216 1326 1975 
Q 1069 1734 1069 1313 
Q 1069 891 1326 650 
Q 1584 409 2034 409 
Q 2484 409 2743 651 
Q 3003 894 3003 1313 
Q 3003 1734 2745 1975 
Q 2488 2216 2034 2216 
z
M 1403 2484 
Q 997 2584 770 2862 
Q 544 3141 544 3541 
Q 544 4100 942 4425 
Q 1341 4750 2034 4750 
Q 2731 4750 3128 4425 
Q 3525 4100 3525 3541 
Q 3525 3141 3298 2862 
Q 3072 2584 2669 2484 
Q 3125 2378 3379 2068 
Q 3634 1759 3634 1313 
Q 3634 634 3220 271 
Q 2806 -91 2034 -91 
Q 1263 -91 848 271 
Q 434 634 434 1313 
Q 434 1759 690 2068 
Q 947 2378 1403 2484 
z
M 1172 3481 
Q 1172 3119 1398 2916 
Q 1625 2713 2034 2713 
Q 2441 2713 2670 2916 
Q 2900 3119 2900 3481 
Q 2900 3844 2670 4047 
Q 2441 4250 2034 4250 
Q 1625 4250 1398 4047 
Q 1172 3844 1172 3481 
z
" transform="scale(0.015625)"/>
       </defs>
       <use xlink:href="#DejaVuSans-31"/>
       <use xlink:href="#DejaVuSans-35" x="63.623047"/>
       <use xlink:href="#DejaVuSans-38" x="127.246094"/>
      </g>
     </g>
    </g>
    <g id="xtick_8">
     <g id="line2d_8">
      <path d="M 369 363.6 
L 91.8 363.6 
" clip-path="url(#pb67bd54f5d)" style="fill: none; stroke: #b0b0b0; stroke-width: 0.8; stroke-linecap: square"/>
     </g>
     <g id="text_8">
      <!-- 180 -->
      <g transform="translate(68.25625 366.359375) scale(0.1 -0.1)">
       <use xlink:href="#DejaVuSans-31"/>
       <use xlink:href="#DejaVuSans-38" x="63.623047"/>
       <use xlink:href="#DejaVuSans-30" x="127.246094"/>
      </g>
     </g>
    </g>
    <g id="xtick_9">
     <g id="line2d_9">
      <path d="M 369 363.6 
L 112.900594 469.679847 
" clip-path="url(#pb67bd54f5d)" style="fill: none; stroke: #b0b0b0; stroke-width: 0.8; stroke-linecap: square"/>
     </g>
     <g id="text_9">
      <!-- 202 -->
      <g transform="translate(90.42253 477.796791) scale(0.1 -0.1)">
       <use xlink:href="#DejaVuSans-32"/>
       <use xlink:href="#DejaVuSans-30" x="63.623047"/>
       <use xlink:href="#DejaVuSans-32" x="127.246094"/>
      </g>
     </g>
    </g>
    <g id="xtick_10">
     <g id="line2d_10">
      <path d="M 369 363.6 
L 188.973001 574.384534 
" clip-path="url(#pb67bd54f5d)" style="fill: none; stroke: #b0b0b0; stroke-width: 0.8; stroke-linecap: square"/>
     </g>
     <g id="text_10">
      <!-- 229 -->
      <g transform="translate(170.336978 587.789592) scale(0.1 -0.1)">
       <defs>
        <path id="DejaVuSans-39" d="M 703 97 
L 703 672 
Q 941 559 1184 500 
Q 1428 441 1663 441 
Q 2288 441 2617 861 
Q 2947 1281 2994 2138 
Q 2813 1869 2534 1725 
Q 2256 1581 1919 1581 
Q 1219 1581 811 2004 
Q 403 2428 403 3163 
Q 403 3881 828 4315 
Q 1253 4750 1959 4750 
Q 2769 4750 3195 4129 
Q 3622 3509 3622 2328 
Q 3622 1225 3098 567 
Q 2575 -91 1691 -91 
Q 1453 -91 1209 -44 
Q 966 3 703 97 
z
M 1959 2075 
Q 2384 2075 2632 2365 
Q 2881 2656 2881 3163 
Q 2881 3666 2632 3958 
Q 2384 4250 1959 4250 
Q 1534 4250 1286 3958 
Q 1038 3666 1038 3163 
Q 1038 2656 1286 2365 
Q 1534 2075 1959 2075 
z
" transform="scale(0.015625)"/>
       </defs>
       <use xlink:href="#DejaVuSans-32"/>
       <use xlink:href="#DejaVuSans-32" x="63.623047"/>
       <use xlink:href="#DejaVuSans-39" x="127.246094"/>
      </g>
     </g>
    </g>
    <g id="xtick_11">
     <g id="line2d_11">
      <path d="M 369 363.6 
L 304.288945 633.140942 
" clip-path="url(#pb67bd54f5d)" style="fill: none; stroke: #b0b0b0; stroke-width: 0.8; stroke-linecap: square"/>
     </g>
     <g id="text_11">
      <!-- 256 -->
      <g transform="translate(291.47696 649.513496) scale(0.1 -0.1)">
       <use xlink:href="#DejaVuSans-32"/>
       <use xlink:href="#DejaVuSans-35" x="63.623047"/>
       <use xlink:href="#DejaVuSans-36" x="127.246094"/>
      </g>
     </g>
    </g>
    <g id="xtick_12">
     <g id="line2d_12">
      <path d="M 369 363.6 
L 433.711055 633.140942 
" clip-path="url(#pb67bd54f5d)" style="fill: none; stroke: #b0b0b0; stroke-width: 0.8; stroke-linecap: square"/>
     </g>
     <g id="text_12">
      <!-- 284 -->
      <g transform="translate(427.43554 649.513496) scale(0.1 -0.1)">
       <use xlink:href="#DejaVuSans-32"/>
       <use xlink:href="#DejaVuSans-38" x="63.623047"/>
       <use xlink:href="#DejaVuSans-34" x="127.246094"/>
      </g>
     </g>
    </g>
    <g id="xtick_13">
     <g id="line2d_13">
      <path d="M 369 363.6 
L 549.026999 574.384534 
" clip-path="url(#pb67bd54f5d)" style="fill: none; stroke: #b0b0b0; stroke-width: 0.8; stroke-linecap: square"/>
     </g>
     <g id="text_13">
      <!-- 310 -->
      <g transform="translate(548.575522 587.789592) scale(0.1 -0.1)">
       <use xlink:href="#DejaVuSans-33"/>
       <use xlink:href="#DejaVuSans-31" x="63.623047"/>
       <use xlink:href="#DejaVuSans-30" x="127.246094"/>
      </g>
     </g>
    </g>
    <g id="xtick_14">
     <g id="line2d_14">
      <path d="M 369 363.6 
L 625.099406 469.679847 
" clip-path="url(#pb67bd54f5d)" style="fill: none; stroke: #b0b0b0; stroke-width: 0.8; stroke-linecap: square"/>
     </g>
     <g id="text_14">
      <!-- 338 -->
      <g transform="translate(628.48997 477.796791) scale(0.1 -0.1)">
       <use xlink:href="#DejaVuSans-33"/>
       <use xlink:href="#DejaVuSans-33" x="63.623047"/>
       <use xlink:href="#DejaVuSans-38" x="127.246094"/>
      </g>
     </g>
    </g>
    <g id="xtick_15">
     <g id="line2d_15">
      <path d="M 369 363.6 
L 646.2 363.6 
" clip-path="url(#pb67bd54f5d)" style="fill: none; stroke: #b0b0b0; stroke-width: 0.8; stroke-linecap: square"/>
     </g>
     <g id="text_15">
      <!-- 0 -->
      <g transform="translate(657.01875 366.359375) scale(0.1 -0.1)">
       <use xlink:href="#DejaVuSans-30"/>
      </g>
     </g>
    </g>
   </g>
   <g id="matplotlib.axis_2">
    <g id="ytick_1">
     <g id="line2d_16">
      <path d="M 410.326172 363.6 
C 410.326172 358.173097 409.257191 352.798963 407.180405 347.785159 
C 405.103619 342.771354 402.059417 338.215383 398.222017 334.377983 
C 394.384617 330.540583 389.828646 327.496381 384.814841 325.419595 
C 379.801037 323.342809 374.426903 322.273828 369 322.273828 
C 363.573097 322.273828 358.198963 323.342809 353.185159 325.419595 
C 348.171354 327.496381 343.615383 330.540583 339.777983 334.377983 
C 335.940583 338.215383 332.896381 342.771354 330.819595 347.785159 
C 328.742809 352.798963 327.673828 358.173097 327.673828 363.6 
C 327.673828 369.026903 328.742809 374.401037 330.819595 379.414841 
C 332.896381 384.428646 335.940583 388.984617 339.777983 392.822017 
C 343.615383 396.659417 348.171354 399.703619 353.185159 401.780405 
C 358.198963 403.857191 363.573097 404.926172 369 404.926172 
C 374.426903 404.926172 379.801037 403.857191 384.814841 401.780405 
C 389.828646 399.703619 394.384617 396.659417 398.222017 392.822017 
C 402.059417 388.984617 405.103619 384.428646 407.180405 379.414841 
C 409.257191 374.401037 410.326172 369.026903 410.326172 363.6 
" clip-path="url(#pb67bd54f5d)" style="fill: none; stroke: #b0b0b0; stroke-width: 0.8; stroke-linecap: square"/>
     </g>
     <g id="text_16">
      <!-- 10 -->
      <g style="fill: #ff0000" transform="translate(407.180405 377.335154) scale(0.1 -0.1)">
       <use xlink:href="#DejaVuSans-31"/>
       <use xlink:href="#DejaVuSans-30" x="63.623047"/>
      </g>
     </g>
    </g>
    <g id="ytick_2">
     <g id="line2d_17">
      <path d="M 451.652344 363.6 
C 451.652344 352.746194 449.514381 341.997927 445.360809 331.970317 
C 441.207237 321.942708 435.118833 312.830767 427.444033 305.155967 
C 419.769233 297.481167 410.657292 291.392763 400.629683 287.239191 
C 390.602073 283.085619 379.853806 280.947656 369 280.947656 
C 358.146194 280.947656 347.397927 283.085619 337.370317 287.239191 
C 327.342708 291.392763 318.230767 297.481167 310.555967 305.155967 
C 302.881167 312.830767 296.792763 321.942708 292.639191 331.970317 
C 288.485619 341.997927 286.347656 352.746194 286.347656 363.6 
C 286.347656 374.453806 288.485619 385.202073 292.639191 395.229683 
C 296.792763 405.257292 302.881167 414.369233 310.555967 422.044033 
C 318.230767 429.718833 327.342708 435.807237 337.370317 439.960809 
C 347.397927 444.114381 358.146194 446.252344 369 446.252344 
C 379.853806 446.252344 390.602073 444.114381 400.629683 439.960809 
C 410.657292 435.807237 419.769233 429.718833 427.444033 422.044033 
C 435.118833 414.369233 441.207237 405.257292 445.360809 395.229683 
C 449.514381 385.202073 451.652344 374.453806 451.652344 363.6 
" clip-path="url(#pb67bd54f5d)" style="fill: none; stroke: #b0b0b0; stroke-width: 0.8; stroke-linecap: square"/>
     </g>
     <g id="text_17">
      <!-- 20 -->
      <g style="fill: #ff0000" transform="translate(445.360809 393.149995) scale(0.1 -0.1)">
       <use xlink:href="#DejaVuSans-32"/>
       <use xlink:href="#DejaVuSans-30" x="63.623047"/>
      </g>
     </g>
    </g>
    <g id="ytick_3">
     <g id="line2d_18">
      <path d="M 492.978517 363.6 
C 492.978517 347.31929 489.771572 331.19689 483.541214 316.155476 
C 477.310856 301.114061 468.17825 287.44615 456.66605 275.93395 
C 445.15385 264.42175 431.485939 255.289144 416.444524 249.058786 
C 401.40311 242.828428 385.28071 239.621483 369 239.621483 
C 352.71929 239.621483 336.59689 242.828428 321.555476 249.058786 
C 306.514061 255.289144 292.84615 264.42175 281.33395 275.93395 
C 269.82175 287.44615 260.689144 301.114061 254.458786 316.155476 
C 248.228428 331.19689 245.021483 347.31929 245.021483 363.6 
C 245.021483 379.88071 248.228428 396.00311 254.458786 411.044524 
C 260.689144 426.085939 269.82175 439.75385 281.33395 451.26605 
C 292.84615 462.77825 306.514061 471.910856 321.555476 478.141214 
C 336.59689 484.371572 352.71929 487.578517 369 487.578517 
C 385.28071 487.578517 401.40311 484.371572 416.444524 478.141214 
C 431.485939 471.910856 445.15385 462.77825 456.66605 451.26605 
C 468.17825 439.75385 477.310856 426.085939 483.541214 411.044524 
C 489.771572 396.00311 492.978517 379.88071 492.978517 363.6 
" clip-path="url(#pb67bd54f5d)" style="fill: none; stroke: #b0b0b0; stroke-width: 0.8; stroke-linecap: square"/>
     </g>
     <g id="text_18">
      <!-- 30 -->
      <g style="fill: #ff0000" transform="translate(483.541214 408.964837) scale(0.1 -0.1)">
       <use xlink:href="#DejaVuSans-33"/>
       <use xlink:href="#DejaVuSans-30" x="63.623047"/>
      </g>
     </g>
    </g>
    <g id="ytick_4">
     <g id="line2d_19">
      <path d="M 534.304689 363.6 
C 534.304689 341.892387 530.028762 320.395854 521.721619 300.340634 
C 513.414475 280.285415 501.237667 262.061534 485.888066 246.711934 
C 470.538466 231.362333 452.314585 219.185525 432.259366 210.878381 
C 412.204146 202.571238 390.707613 198.295311 369 198.295311 
C 347.292387 198.295311 325.795854 202.571238 305.740634 210.878381 
C 285.685415 219.185525 267.461534 231.362333 252.111934 246.711934 
C 236.762333 262.061534 224.585525 280.285415 216.278381 300.340634 
C 207.971238 320.395854 203.695311 341.892387 203.695311 363.6 
C 203.695311 385.307613 207.971238 406.804146 216.278381 426.859366 
C 224.585525 446.914585 236.762333 465.138466 252.111934 480.488066 
C 267.461534 495.837667 285.685415 508.014475 305.740634 516.321619 
C 325.795854 524.628762 347.292387 528.904689 369 528.904689 
C 390.707613 528.904689 412.204146 524.628762 432.259366 516.321619 
C 452.314585 508.014475 470.538466 495.837667 485.888066 480.488066 
C 501.237667 465.138466 513.414475 446.914585 521.721619 426.859366 
C 530.028762 406.804146 534.304689 385.307613 534.304689 363.6 
" clip-path="url(#pb67bd54f5d)" style="fill: none; stroke: #b0b0b0; stroke-width: 0.8; stroke-linecap: square"/>
     </g>
     <g id="text_19">
      <!-- 40 -->
      <g style="fill: #ff0000" transform="translate(521.721619 424.779678) scale(0.1 -0.1)">
       <use xlink:href="#DejaVuSans-34"/>
       <use xlink:href="#DejaVuSans-30" x="63.623047"/>
      </g>
     </g>
    </g>
    <g id="ytick_5">
     <g id="line2d_20">
      <path d="M 575.630861 363.6 
C 575.630861 336.465484 570.285953 309.594817 559.902023 284.525793 
C 549.518093 259.456769 534.297083 236.676917 515.110083 217.489917 
C 495.923083 198.302917 473.143231 183.081907 448.074207 172.697977 
C 423.005183 162.314047 396.134516 156.969139 369 156.969139 
C 341.865484 156.969139 314.994817 162.314047 289.925793 172.697977 
C 264.856769 183.081907 242.076917 198.302917 222.889917 217.489917 
C 203.702917 236.676917 188.481907 259.456769 178.097977 284.525793 
C 167.714047 309.594817 162.369139 336.465484 162.369139 363.6 
C 162.369139 390.734516 167.714047 417.605183 178.097977 442.674207 
C 188.481907 467.743231 203.702917 490.523083 222.889917 509.710083 
C 242.076917 528.897083 264.856769 544.118093 289.925793 554.502023 
C 314.994817 564.885953 341.865484 570.230861 369 570.230861 
C 396.134516 570.230861 423.005183 564.885953 448.074207 554.502023 
C 473.143231 544.118093 495.923083 528.897083 515.110083 509.710083 
C 534.297083 490.523083 549.518093 467.743231 559.902023 442.674207 
C 570.285953 417.605183 575.630861 390.734516 575.630861 363.6 
" clip-path="url(#pb67bd54f5d)" style="fill: none; stroke: #b0b0b0; stroke-width: 0.8; stroke-linecap: square"/>
     </g>
     <g id="text_20">
      <!-- 50 -->
      <g style="fill: #ff0000" transform="translate(559.902023 440.59452) scale(0.1 -0.1)">
       <use xlink:href="#DejaVuSans-35"/>
       <use xlink:href="#DejaVuSans-30" x="63.623047"/>
      </g>
     </g>
    </g>
    <g id="ytick_6">
     <g id="line2d_21">
      <path d="M 616.957033 363.6 
C 616.957033 331.038581 610.543143 298.79378 598.082428 268.710952 
C 585.621712 238.628123 567.3565 211.292301 544.332099 188.267901 
C 521.307699 165.2435 493.971877 146.978288 463.889048 134.517572 
C 433.80622 122.056857 401.561419 115.642967 369 115.642967 
C 336.438581 115.642967 304.19378 122.056857 274.110952 134.517572 
C 244.028123 146.978288 216.692301 165.2435 193.667901 188.267901 
C 170.6435 211.292301 152.378288 238.628123 139.917572 268.710952 
C 127.456857 298.79378 121.042967 331.038581 121.042967 363.6 
C 121.042967 396.161419 127.456857 428.40622 139.917572 458.489048 
C 152.378288 488.571877 170.6435 515.907699 193.667901 538.932099 
C 216.692301 561.9565 244.028123 580.221712 274.110952 592.682428 
C 304.19378 605.143143 336.438581 611.557033 369 611.557033 
C 401.561419 611.557033 433.80622 605.143143 463.889048 592.682428 
C 493.971877 580.221712 521.307699 561.9565 544.332099 538.932099 
C 567.3565 515.907699 585.621712 488.571877 598.082428 458.489048 
C 610.543143 428.40622 616.957033 396.161419 616.957033 363.6 
" clip-path="url(#pb67bd54f5d)" style="fill: none; stroke: #b0b0b0; stroke-width: 0.8; stroke-linecap: square"/>
     </g>
     <g id="text_21">
      <!-- 60 -->
      <g style="fill: #ff0000" transform="translate(598.082428 456.409361) scale(0.1 -0.1)">
       <use xlink:href="#DejaVuSans-36"/>
       <use xlink:href="#DejaVuSans-30" x="63.623047"/>
      </g>
     </g>
    </g>
   </g>
   <g id="line2d_22">
    <path d="M 515.924442 363.6 
L 502.430429 308.331307 
L 459.964065 257.094764 
L 398.754345 239.664233 
L 341.996006 251.120269 
L 279.039833 258.270177 
L 232.646576 307.120563 
L 216.550112 363.6 
L 232.646576 420.079437 
L 279.039833 468.929823 
L 341.996006 476.079731 
L 398.754345 487.535767 
L 459.964065 470.105236 
L 502.430429 418.868693 
L 515.924442 363.6 
" clip-path="url(#pb67bd54f5d)" style="fill: none; stroke: #1f77b4; stroke-linecap: square"/>
   </g>
   <g id="line2d_23">
    <path d="M 539.95792 363.6 
L 524.397736 299.23215 
L 475.519121 238.882134 
L 404.385308 216.209585 
L 336.654544 228.871479 
L 264.41729 241.149379 
L 210.107014 297.78437 
L 191.763506 363.6 
L 210.107014 429.41563 
L 264.41729 486.050621 
L 336.654544 498.328521 
L 404.385308 510.990415 
L 475.519121 488.317866 
L 524.397736 427.96785 
L 539.95792 363.6 
" clip-path="url(#pb67bd54f5d)" style="fill: none; stroke: #ff7f0e; stroke-linecap: square"/>
   </g>
   <g id="line2d_24">
    <path d="M 564.057871 363.6 
L 546.944874 289.89282 
L 492.374453 219.147075 
L 410.385726 191.216047 
L 331.090407 205.695179 
L 248.109208 222.055069 
L 187.365628 288.36458 
L 166.660406 363.6 
L 187.365628 438.83542 
L 248.109208 505.144931 
L 331.090407 521.504821 
L 410.385726 535.983953 
L 492.374453 508.052925 
L 546.944874 437.30718 
L 564.057871 363.6 
" clip-path="url(#pb67bd54f5d)" style="fill: none; stroke: #2ca02c; stroke-linecap: square"/>
   </g>
   <g id="line2d_25">
    <path d="M 620.486802 363.6 
L 603.341185 266.532703 
L 535.712926 168.404242 
L 428.891875 114.132385 
L 313.739418 133.423109 
L 212.200497 180.01137 
L 139.489519 268.533646 
L 99.491626 363.6 
L 139.489519 458.666354 
L 212.200497 547.18863 
L 313.739418 593.776891 
L 428.891875 613.067615 
L 535.712926 558.795758 
L 603.341185 460.667297 
L 620.486802 363.6 
" clip-path="url(#pb67bd54f5d)" style="fill: none; stroke: #d62728; stroke-linecap: square"/>
   </g>
   <g id="patch_7">
    <path d="M 646.2 363.6 
C 646.2 327.19843 639.029684 291.150818 625.099406 257.520153 
C 611.169128 223.889487 590.749797 193.329798 565.01 167.59 
C 539.270202 141.850203 508.710513 121.430872 475.079847 107.500594 
C 441.449182 93.570316 405.40157 86.4 369 86.4 
C 332.59843 86.4 296.550818 93.570316 262.920153 107.500594 
C 229.289487 121.430872 198.729798 141.850203 172.99 167.59 
C 147.250203 193.329798 126.830872 223.889487 112.900594 257.520153 
C 98.970316 291.150818 91.8 327.19843 91.8 363.6 
C 91.8 400.00157 98.970316 436.049182 112.900594 469.679847 
C 126.830872 503.310513 147.250203 533.870202 172.99 559.61 
C 198.729798 585.349797 229.289487 605.769128 262.920153 619.699406 
C 296.550818 633.629684 332.59843 640.8 369 640.8 
C 405.40157 640.8 441.449182 633.629684 475.079847 619.699406 
C 508.710513 605.769128 539.270202 585.349797 565.01 559.61 
C 590.749797 533.870202 611.169128 503.310513 625.099406 469.679847 
C 639.029684 436.049182 646.2 400.00157 646.2 363.6 
" style="fill: none; stroke: #000000; stroke-width: 0.8; stroke-linejoin: miter; stroke-linecap: square"/>
   </g>
   <g id="text_22">
    <!-- Mean Noise Profile -->
    <g transform="translate(313.540313 69.606817) scale(0.12 -0.12)">
     <defs>
      <path id="DejaVuSans-4d" d="M 628 4666 
L 1569 4666 
L 2759 1491 
L 3956 4666 
L 4897 4666 
L 4897 0 
L 4281 0 
L 4281 4097 
L 3078 897 
L 2444 897 
L 1241 4097 
L 1241 0 
L 628 0 
L 628 4666 
z
" transform="scale(0.015625)"/>
      <path id="DejaVuSans-65" d="M 3597 1894 
L 3597 1613 
L 953 1613 
Q 991 1019 1311 708 
Q 1631 397 2203 397 
Q 2534 397 2845 478 
Q 3156 559 3463 722 
L 3463 178 
Q 3153 47 2828 -22 
Q 2503 -91 2169 -91 
Q 1331 -91 842 396 
Q 353 884 353 1716 
Q 353 2575 817 3079 
Q 1281 3584 2069 3584 
Q 2775 3584 3186 3129 
Q 3597 2675 3597 1894 
z
M 3022 2063 
Q 3016 2534 2758 2815 
Q 2500 3097 2075 3097 
Q 1594 3097 1305 2825 
Q 1016 2553 972 2059 
L 3022 2063 
z
" transform="scale(0.015625)"/>
      <path id="DejaVuSans-61" d="M 2194 1759 
Q 1497 1759 1228 1600 
Q 959 1441 959 1056 
Q 959 750 1161 570 
Q 1363 391 1709 391 
Q 2188 391 2477 730 
Q 2766 1069 2766 1631 
L 2766 1759 
L 2194 1759 
z
M 3341 1997 
L 3341 0 
L 2766 0 
L 2766 531 
Q 2569 213 2275 61 
Q 1981 -91 1556 -91 
Q 1019 -91 701 211 
Q 384 513 384 1019 
Q 384 1609 779 1909 
Q 1175 2209 1959 2209 
L 2766 2209 
L 2766 2266 
Q 2766 2663 2505 2880 
Q 2244 3097 1772 3097 
Q 1472 3097 1187 3025 
Q 903 2953 641 2809 
L 641 3341 
Q 956 3463 1253 3523 
Q 1550 3584 1831 3584 
Q 2591 3584 2966 3190 
Q 3341 2797 3341 1997 
z
" transform="scale(0.015625)"/>
      <path id="DejaVuSans-6e" d="M 3513 2113 
L 3513 0 
L 2938 0 
L 2938 2094 
Q 2938 2591 2744 2837 
Q 2550 3084 2163 3084 
Q 1697 3084 1428 2787 
Q 1159 2491 1159 1978 
L 1159 0 
L 581 0 
L 581 3500 
L 1159 3500 
L 1159 2956 
Q 1366 3272 1645 3428 
Q 1925 3584 2291 3584 
Q 2894 3584 3203 3211 
Q 3513 2838 3513 2113 
z
" transform="scale(0.015625)"/>
      <path id="DejaVuSans-20" transform="scale(0.015625)"/>
      <path id="DejaVuSans-4e" d="M 628 4666 
L 1478 4666 
L 3547 763 
L 3547 4666 
L 4159 4666 
L 4159 0 
L 3309 0 
L 1241 3903 
L 1241 0 
L 628 0 
L 628 4666 
z
" transform="scale(0.015625)"/>
      <path id="DejaVuSans-6f" d="M 1959 3097 
Q 1497 3097 1228 2736 
Q 959 2375 959 1747 
Q 959 1119 1226 758 
Q 1494 397 1959 397 
Q 2419 397 2687 759 
Q 2956 1122 2956 1747 
Q 2956 2369 2687 2733 
Q 2419 3097 1959 3097 
z
M 1959 3584 
Q 2709 3584 3137 3096 
Q 3566 2609 3566 1747 
Q 3566 888 3137 398 
Q 2709 -91 1959 -91 
Q 1206 -91 779 398 
Q 353 888 353 1747 
Q 353 2609 779 3096 
Q 1206 3584 1959 3584 
z
" transform="scale(0.015625)"/>
      <path id="DejaVuSans-69" d="M 603 3500 
L 1178 3500 
L 1178 0 
L 603 0 
L 603 3500 
z
M 603 4863 
L 1178 4863 
L 1178 4134 
L 603 4134 
L 603 4863 
z
" transform="scale(0.015625)"/>
      <path id="DejaVuSans-73" d="M 2834 3397 
L 2834 2853 
Q 2591 2978 2328 3040 
Q 2066 3103 1784 3103 
Q 1356 3103 1142 2972 
Q 928 2841 928 2578 
Q 928 2378 1081 2264 
Q 1234 2150 1697 2047 
L 1894 2003 
Q 2506 1872 2764 1633 
Q 3022 1394 3022 966 
Q 3022 478 2636 193 
Q 2250 -91 1575 -91 
Q 1294 -91 989 -36 
Q 684 19 347 128 
L 347 722 
Q 666 556 975 473 
Q 1284 391 1588 391 
Q 1994 391 2212 530 
Q 2431 669 2431 922 
Q 2431 1156 2273 1281 
Q 2116 1406 1581 1522 
L 1381 1569 
Q 847 1681 609 1914 
Q 372 2147 372 2553 
Q 372 3047 722 3315 
Q 1072 3584 1716 3584 
Q 2034 3584 2315 3537 
Q 2597 3491 2834 3397 
z
" transform="scale(0.015625)"/>
      <path id="DejaVuSans-50" d="M 1259 4147 
L 1259 2394 
L 2053 2394 
Q 2494 2394 2734 2622 
Q 2975 2850 2975 3272 
Q 2975 3691 2734 3919 
Q 2494 4147 2053 4147 
L 1259 4147 
z
M 628 4666 
L 2053 4666 
Q 2838 4666 3239 4311 
Q 3641 3956 3641 3272 
Q 3641 2581 3239 2228 
Q 2838 1875 2053 1875 
L 1259 1875 
L 1259 0 
L 628 0 
L 628 4666 
z
" transform="scale(0.015625)"/>
      <path id="DejaVuSans-72" d="M 2631 2963 
Q 2534 3019 2420 3045 
Q 2306 3072 2169 3072 
Q 1681 3072 1420 2755 
Q 1159 2438 1159 1844 
L 1159 0 
L 581 0 
L 581 3500 
L 1159 3500 
L 1159 2956 
Q 1341 3275 1631 3429 
Q 1922 3584 2338 3584 
Q 2397 3584 2469 3576 
Q 2541 3569 2628 3553 
L 2631 2963 
z
" transform="scale(0.015625)"/>
      <path id="DejaVuSans-66" d="M 2375 4863 
L 2375 4384 
L 1825 4384 
Q 1516 4384 1395 4259 
Q 1275 4134 1275 3809 
L 1275 3500 
L 2222 3500 
L 2222 3053 
L 1275 3053 
L 1275 0 
L 697 0 
L 697 3053 
L 147 3053 
L 147 3500 
L 697 3500 
L 697 3744 
Q 697 4328 969 4595 
Q 1241 4863 1831 4863 
L 2375 4863 
z
" transform="scale(0.015625)"/>
      <path id="DejaVuSans-6c" d="M 603 4863 
L 1178 4863 
L 1178 0 
L 603 0 
L 603 4863 
z
" transform="scale(0.015625)"/>
     </defs>
     <use xlink:href="#DejaVuSans-4d"/>
     <use xlink:href="#DejaVuSans-65" x="86.279297"/>
     <use xlink:href="#DejaVuSans-61" x="147.802734"/>
     <use xlink:href="#DejaVuSans-6e" x="209.082031"/>
     <use xlink:href="#DejaVuSans-20" x="272.460938"/>
     <use xlink:href="#DejaVuSans-4e" x="304.248047"/>
     <use xlink:href="#DejaVuSans-6f" x="379.052734"/>
     <use xlink:href="#DejaVuSans-69" x="440.234375"/>
     <use xlink:href="#DejaVuSans-73" x="468.017578"/>
     <use xlink:href="#DejaVuSans-65" x="520.117188"/>
     <use xlink:href="#DejaVuSans-20" x="581.640625"/>
     <use xlink:href="#DejaVuSans-50" x="613.427734"/>
     <use xlink:href="#DejaVuSans-72" x="671.980469"/>
     <use xlink:href="#DejaVuSans-6f" x="710.84375"/>
     <use xlink:href="#DejaVuSans-66" x="772.025391"/>
     <use xlink:href="#DejaVuSans-69" x="807.230469"/>
     <use xlink:href="#DejaVuSans-6c" x="835.013672"/>
     <use xlink:href="#DejaVuSans-65" x="862.796875"/>
    </g>
   </g>
   <g id="legend_1">
    <g id="patch_8">
     <path d="M 592.76 141.84 
L 771.856875 141.84 
Q 773.856875 141.84 773.856875 139.84 
L 773.856875 83.449375 
Q 773.856875 81.449375 771.856875 81.449375 
L 592.76 81.449375 
Q 590.76 81.449375 590.76 83.449375 
L 590.76 139.84 
Q 590.76 141.84 592.76 141.84 
z
" style="fill: #ffffff; opacity: 0.8; stroke: #cccccc; stroke-linejoin: miter"/>
    </g>
    <g id="text_23">
     <!-- ESC -->
     <g transform="translate(672.483438 93.047812) scale(0.1 -0.1)">
      <defs>
       <path id="DejaVuSans-45" d="M 628 4666 
L 3578 4666 
L 3578 4134 
L 1259 4134 
L 1259 2753 
L 3481 2753 
L 3481 2222 
L 1259 2222 
L 1259 531 
L 3634 531 
L 3634 0 
L 628 0 
L 628 4666 
z
" transform="scale(0.015625)"/>
       <path id="DejaVuSans-53" d="M 3425 4513 
L 3425 3897 
Q 3066 4069 2747 4153 
Q 2428 4238 2131 4238 
Q 1616 4238 1336 4038 
Q 1056 3838 1056 3469 
Q 1056 3159 1242 3001 
Q 1428 2844 1947 2747 
L 2328 2669 
Q 3034 2534 3370 2195 
Q 3706 1856 3706 1288 
Q 3706 609 3251 259 
Q 2797 -91 1919 -91 
Q 1588 -91 1214 -16 
Q 841 59 441 206 
L 441 856 
Q 825 641 1194 531 
Q 1563 422 1919 422 
Q 2459 422 2753 634 
Q 3047 847 3047 1241 
Q 3047 1584 2836 1778 
Q 2625 1972 2144 2069 
L 1759 2144 
Q 1053 2284 737 2584 
Q 422 2884 422 3419 
Q 422 4038 858 4394 
Q 1294 4750 2059 4750 
Q 2388 4750 2728 4690 
Q 3069 4631 3425 4513 
z
" transform="scale(0.015625)"/>
       <path id="DejaVuSans-43" d="M 4122 4306 
L 4122 3641 
Q 3803 3938 3442 4084 
Q 3081 4231 2675 4231 
Q 1875 4231 1450 3742 
Q 1025 3253 1025 2328 
Q 1025 1406 1450 917 
Q 1875 428 2675 428 
Q 3081 428 3442 575 
Q 3803 722 4122 1019 
L 4122 359 
Q 3791 134 3420 21 
Q 3050 -91 2638 -91 
Q 1578 -91 968 557 
Q 359 1206 359 2328 
Q 359 3453 968 4101 
Q 1578 4750 2638 4750 
Q 3056 4750 3426 4639 
Q 3797 4528 4122 4306 
z
" transform="scale(0.015625)"/>
      </defs>
      <use xlink:href="#DejaVuSans-45"/>
      <use xlink:href="#DejaVuSans-53" x="63.183594"/>
      <use xlink:href="#DejaVuSans-43" x="126.660156"/>
     </g>
    </g>
    <g id="line2d_26">
     <path d="M 594.76 100.225937 
L 604.76 100.225937 
L 614.76 100.225937 
" style="fill: none; stroke: #1f77b4; stroke-linecap: square"/>
    </g>
    <g id="text_24">
     <!-- TrailingEdge1350MicData.csv -->
     <g transform="translate(622.76 103.725937) scale(0.1 -0.1)">
      <defs>
       <path id="DejaVuSans-54" d="M -19 4666 
L 3928 4666 
L 3928 4134 
L 2272 4134 
L 2272 0 
L 1638 0 
L 1638 4134 
L -19 4134 
L -19 4666 
z
" transform="scale(0.015625)"/>
       <path id="DejaVuSans-67" d="M 2906 1791 
Q 2906 2416 2648 2759 
Q 2391 3103 1925 3103 
Q 1463 3103 1205 2759 
Q 947 2416 947 1791 
Q 947 1169 1205 825 
Q 1463 481 1925 481 
Q 2391 481 2648 825 
Q 2906 1169 2906 1791 
z
M 3481 434 
Q 3481 -459 3084 -895 
Q 2688 -1331 1869 -1331 
Q 1566 -1331 1297 -1286 
Q 1028 -1241 775 -1147 
L 775 -588 
Q 1028 -725 1275 -790 
Q 1522 -856 1778 -856 
Q 2344 -856 2625 -561 
Q 2906 -266 2906 331 
L 2906 616 
Q 2728 306 2450 153 
Q 2172 0 1784 0 
Q 1141 0 747 490 
Q 353 981 353 1791 
Q 353 2603 747 3093 
Q 1141 3584 1784 3584 
Q 2172 3584 2450 3431 
Q 2728 3278 2906 2969 
L 2906 3500 
L 3481 3500 
L 3481 434 
z
" transform="scale(0.015625)"/>
       <path id="DejaVuSans-64" d="M 2906 2969 
L 2906 4863 
L 3481 4863 
L 3481 0 
L 2906 0 
L 2906 525 
Q 2725 213 2448 61 
Q 2172 -91 1784 -91 
Q 1150 -91 751 415 
Q 353 922 353 1747 
Q 353 2572 751 3078 
Q 1150 3584 1784 3584 
Q 2172 3584 2448 3432 
Q 2725 3281 2906 2969 
z
M 947 1747 
Q 947 1113 1208 752 
Q 1469 391 1925 391 
Q 2381 391 2643 752 
Q 2906 1113 2906 1747 
Q 2906 2381 2643 2742 
Q 2381 3103 1925 3103 
Q 1469 3103 1208 2742 
Q 947 2381 947 1747 
z
" transform="scale(0.015625)"/>
       <path id="DejaVuSans-63" d="M 3122 3366 
L 3122 2828 
Q 2878 2963 2633 3030 
Q 2388 3097 2138 3097 
Q 1578 3097 1268 2742 
Q 959 2388 959 1747 
Q 959 1106 1268 751 
Q 1578 397 2138 397 
Q 2388 397 2633 464 
Q 2878 531 3122 666 
L 3122 134 
Q 2881 22 2623 -34 
Q 2366 -91 2075 -91 
Q 1284 -91 818 406 
Q 353 903 353 1747 
Q 353 2603 823 3093 
Q 1294 3584 2113 3584 
Q 2378 3584 2631 3529 
Q 2884 3475 3122 3366 
z
" transform="scale(0.015625)"/>
       <path id="DejaVuSans-44" d="M 1259 4147 
L 1259 519 
L 2022 519 
Q 2988 519 3436 956 
Q 3884 1394 3884 2338 
Q 3884 3275 3436 3711 
Q 2988 4147 2022 4147 
L 1259 4147 
z
M 628 4666 
L 1925 4666 
Q 3281 4666 3915 4102 
Q 4550 3538 4550 2338 
Q 4550 1131 3912 565 
Q 3275 0 1925 0 
L 628 0 
L 628 4666 
z
" transform="scale(0.015625)"/>
       <path id="DejaVuSans-74" d="M 1172 4494 
L 1172 3500 
L 2356 3500 
L 2356 3053 
L 1172 3053 
L 1172 1153 
Q 1172 725 1289 603 
Q 1406 481 1766 481 
L 2356 481 
L 2356 0 
L 1766 0 
Q 1100 0 847 248 
Q 594 497 594 1153 
L 594 3053 
L 172 3053 
L 172 3500 
L 594 3500 
L 594 4494 
L 1172 4494 
z
" transform="scale(0.015625)"/>
       <path id="DejaVuSans-2e" d="M 684 794 
L 1344 794 
L 1344 0 
L 684 0 
L 684 794 
z
" transform="scale(0.015625)"/>
       <path id="DejaVuSans-76" d="M 191 3500 
L 800 3500 
L 1894 563 
L 2988 3500 
L 3597 3500 
L 2284 0 
L 1503 0 
L 191 3500 
z
" transform="scale(0.015625)"/>
      </defs>
      <use xlink:href="#DejaVuSans-54"/>
      <use xlink:href="#DejaVuSans-72" x="46.333984"/>
      <use xlink:href="#DejaVuSans-61" x="87.447266"/>
      <use xlink:href="#DejaVuSans-69" x="148.726562"/>
      <use xlink:href="#DejaVuSans-6c" x="176.509766"/>
      <use xlink:href="#DejaVuSans-69" x="204.292969"/>
      <use xlink:href="#DejaVuSans-6e" x="232.076172"/>
      <use xlink:href="#DejaVuSans-67" x="295.455078"/>
      <use xlink:href="#DejaVuSans-45" x="358.931641"/>
      <use xlink:href="#DejaVuSans-64" x="422.115234"/>
      <use xlink:href="#DejaVuSans-67" x="485.591797"/>
      <use xlink:href="#DejaVuSans-65" x="549.068359"/>
      <use xlink:href="#DejaVuSans-31" x="610.591797"/>
      <use xlink:href="#DejaVuSans-33" x="674.214844"/>
      <use xlink:href="#DejaVuSans-35" x="737.837891"/>
      <use xlink:href="#DejaVuSans-30" x="801.460938"/>
      <use xlink:href="#DejaVuSans-4d" x="865.083984"/>
      <use xlink:href="#DejaVuSans-69" x="951.363281"/>
      <use xlink:href="#DejaVuSans-63" x="979.146484"/>
      <use xlink:href="#DejaVuSans-44" x="1034.126953"/>
      <use xlink:href="#DejaVuSans-61" x="1111.128906"/>
      <use xlink:href="#DejaVuSans-74" x="1172.408203"/>
      <use xlink:href="#DejaVuSans-61" x="1211.617188"/>
      <use xlink:href="#DejaVuSans-2e" x="1272.896484"/>
      <use xlink:href="#DejaVuSans-63" x="1304.683594"/>
      <use xlink:href="#DejaVuSans-73" x="1359.664062"/>
      <use xlink:href="#DejaVuSans-76" x="1411.763672"/>
     </g>
    </g>
    <g id="line2d_27">
     <path d="M 594.76 110.904063 
L 604.76 110.904063 
L 614.76 110.904063 
" style="fill: none; stroke: #ff7f0e; stroke-linecap: square"/>
    </g>
    <g id="text_25">
     <!-- TrailingEdge1500MicData.csv -->
     <g transform="translate(622.76 114.404063) scale(0.1 -0.1)">
      <use xlink:href="#DejaVuSans-54"/>
      <use xlink:href="#DejaVuSans-72" x="46.333984"/>
      <use xlink:href="#DejaVuSans-61" x="87.447266"/>
      <use xlink:href="#DejaVuSans-69" x="148.726562"/>
      <use xlink:href="#DejaVuSans-6c" x="176.509766"/>
      <use xlink:href="#DejaVuSans-69" x="204.292969"/>
      <use xlink:href="#DejaVuSans-6e" x="232.076172"/>
      <use xlink:href="#DejaVuSans-67" x="295.455078"/>
      <use xlink:href="#DejaVuSans-45" x="358.931641"/>
      <use xlink:href="#DejaVuSans-64" x="422.115234"/>
      <use xlink:href="#DejaVuSans-67" x="485.591797"/>
      <use xlink:href="#DejaVuSans-65" x="549.068359"/>
      <use xlink:href="#DejaVuSans-31" x="610.591797"/>
      <use xlink:href="#DejaVuSans-35" x="674.214844"/>
      <use xlink:href="#DejaVuSans-30" x="737.837891"/>
      <use xlink:href="#DejaVuSans-30" x="801.460938"/>
      <use xlink:href="#DejaVuSans-4d" x="865.083984"/>
      <use xlink:href="#DejaVuSans-69" x="951.363281"/>
      <use xlink:href="#DejaVuSans-63" x="979.146484"/>
      <use xlink:href="#DejaVuSans-44" x="1034.126953"/>
      <use xlink:href="#DejaVuSans-61" x="1111.128906"/>
      <use xlink:href="#DejaVuSans-74" x="1172.408203"/>
      <use xlink:href="#DejaVuSans-61" x="1211.617188"/>
      <use xlink:href="#DejaVuSans-2e" x="1272.896484"/>
      <use xlink:href="#DejaVuSans-63" x="1304.683594"/>
      <use xlink:href="#DejaVuSans-73" x="1359.664062"/>
      <use xlink:href="#DejaVuSans-76" x="1411.763672"/>
     </g>
    </g>
    <g id="line2d_28">
     <path d="M 594.76 121.582188 
L 604.76 121.582188 
L 614.76 121.582188 
" style="fill: none; stroke: #2ca02c; stroke-linecap: square"/>
    </g>
    <g id="text_26">
     <!-- TrailingEdge1650MicData.csv -->
     <g transform="translate(622.76 125.082188) scale(0.1 -0.1)">
      <use xlink:href="#DejaVuSans-54"/>
      <use xlink:href="#DejaVuSans-72" x="46.333984"/>
      <use xlink:href="#DejaVuSans-61" x="87.447266"/>
      <use xlink:href="#DejaVuSans-69" x="148.726562"/>
      <use xlink:href="#DejaVuSans-6c" x="176.509766"/>
      <use xlink:href="#DejaVuSans-69" x="204.292969"/>
      <use xlink:href="#DejaVuSans-6e" x="232.076172"/>
      <use xlink:href="#DejaVuSans-67" x="295.455078"/>
      <use xlink:href="#DejaVuSans-45" x="358.931641"/>
      <use xlink:href="#DejaVuSans-64" x="422.115234"/>
      <use xlink:href="#DejaVuSans-67" x="485.591797"/>
      <use xlink:href="#DejaVuSans-65" x="549.068359"/>
      <use xlink:href="#DejaVuSans-31" x="610.591797"/>
      <use xlink:href="#DejaVuSans-36" x="674.214844"/>
      <use xlink:href="#DejaVuSans-35" x="737.837891"/>
      <use xlink:href="#DejaVuSans-30" x="801.460938"/>
      <use xlink:href="#DejaVuSans-4d" x="865.083984"/>
      <use xlink:href="#DejaVuSans-69" x="951.363281"/>
      <use xlink:href="#DejaVuSans-63" x="979.146484"/>
      <use xlink:href="#DejaVuSans-44" x="1034.126953"/>
      <use xlink:href="#DejaVuSans-61" x="1111.128906"/>
      <use xlink:href="#DejaVuSans-74" x="1172.408203"/>
      <use xlink:href="#DejaVuSans-61" x="1211.617188"/>
      <use xlink:href="#DejaVuSans-2e" x="1272.896484"/>
      <use xlink:href="#DejaVuSans-63" x="1304.683594"/>
      <use xlink:href="#DejaVuSans-73" x="1359.664062"/>
      <use xlink:href="#DejaVuSans-76" x="1411.763672"/>
     </g>
    </g>
    <g id="line2d_29">
     <path d="M 594.76 132.260312 
L 604.76 132.260312 
L 614.76 132.260312 
" style="fill: none; stroke: #d62728; stroke-linecap: square"/>
    </g>
    <g id="text_27">
     <!-- TrailingEdge1800MicData.csv -->
     <g transform="translate(622.76 135.760312) scale(0.1 -0.1)">
      <use xlink:href="#DejaVuSans-54"/>
      <use xlink:href="#DejaVuSans-72" x="46.333984"/>
      <use xlink:href="#DejaVuSans-61" x="87.447266"/>
      <use xlink:href="#DejaVuSans-69" x="148.726562"/>
      <use xlink:href="#DejaVuSans-6c" x="176.509766"/>
      <use xlink:href="#DejaVuSans-69" x="204.292969"/>
      <use xlink:href="#DejaVuSans-6e" x="232.076172"/>
      <use xlink:href="#DejaVuSans-67" x="295.455078"/>
      <use xlink:href="#DejaVuSans-45" x="358.931641"/>
      <use xlink:href="#DejaVuSans-64" x="422.115234"/>
      <use xlink:href="#DejaVuSans-67" x="485.591797"/>
      <use xlink:href="#DejaVuSans-65" x="549.068359"/>
      <use xlink:href="#DejaVuSans-31" x="610.591797"/>
      <use xlink:href="#DejaVuSans-38" x="674.214844"/>
      <use xlink:href="#DejaVuSans-30" x="737.837891"/>
      <use xlink:href="#DejaVuSans-30" x="801.460938"/>
      <use xlink:href="#DejaVuSans-4d" x="865.083984"/>
      <use xlink:href="#DejaVuSans-69" x="951.363281"/>
      <use xlink:href="#DejaVuSans-63" x="979.146484"/>
      <use xlink:href="#DejaVuSans-44" x="1034.126953"/>
      <use xlink:href="#DejaVuSans-61" x="1111.128906"/>
      <use xlink:href="#DejaVuSans-74" x="1172.408203"/>
      <use xlink:href="#DejaVuSans-61" x="1211.617188"/>
      <use xlink:href="#DejaVuSans-2e" x="1272.896484"/>
      <use xlink:href="#DejaVuSans-63" x="1304.683594"/>
      <use xlink:href="#DejaVuSans-73" x="1359.664062"/>
      <use xlink:href="#DejaVuSans-76" x="1411.763672"/>
     </g>
    </g>
   </g>
  </g>
 </g>
 <defs>
  <clipPath id="pb67bd54f5d">
   <path d="M 646.2 363.6 
C 646.2 327.19843 639.029684 291.150818 625.099406 257.520153 
C 611.169128 223.889487 590.749797 193.329798 565.01 167.59 
C 539.270202 141.850203 508.710513 121.430872 475.079847 107.500594 
C 441.449182 93.570316 405.40157 86.4 369 86.4 
C 332.59843 86.4 296.550818 93.570316 262.920153 107.500594 
C 229.289487 121.430872 198.729798 141.850203 172.99 167.59 
C 147.250203 193.329798 126.830872 223.889487 112.900594 257.520153 
C 98.970316 291.150818 91.8 327.19843 91.8 363.6 
C 91.8 400.00157 98.970316 436.049182 112.900594 469.679847 
C 126.830872 503.310513 147.250203 533.870202 172.99 559.61 
C 198.729798 585.349797 229.289487 605.769128 262.920153 619.699406 
C 296.550818 633.629684 332.59843 640.8 369 640.8 
C 405.40157 640.8 441.449182 633.629684 475.079847 619.699406 
C 508.710513 605.769128 539.270202 585.349797 565.01 559.61 
C 590.749797 533.870202 611.169128 503.310513 625.099406 469.679847 
C 639.029684 436.049182 646.2 400.00157 646.2 363.6 
M 369 363.6 
C 369 363.6 369 363.6 369 363.6 
C 369 363.6 369 363.6 369 363.6 
C 369 363.6 369 363.6 369 363.6 
C 369 363.6 369 363.6 369 363.6 
C 369 363.6 369 363.6 369 363.6 
C 369 363.6 369 363.6 369 363.6 
C 369 363.6 369 363.6 369 363.6 
C 369 363.6 369 363.6 369 363.6 
C 369 363.6 369 363.6 369 363.6 
C 369 363.6 369 363.6 369 363.6 
C 369 363.6 369 363.6 369 363.6 
C 369 363.6 369 363.6 369 363.6 
C 369 363.6 369 363.6 369 363.6 
C 369 363.6 369 363.6 369 363.6 
C 369 363.6 369 363.6 369 363.6 
C 369 363.6 369 363.6 369 363.6 
M 646.2 363.6 
z
"/>
  </clipPath>
 </defs>
</svg>
