<?xml version="1.0" encoding="utf-8" standalone="no"?>
<!DOCTYPE svg PUBLIC "-//W3C//DTD SVG 1.1//EN"
  "http://www.w3.org/Graphics/SVG/1.1/DTD/svg11.dtd">
<svg xmlns:xlink="http://www.w3.org/1999/xlink" width="720pt" height="720pt" viewBox="0 0 720 720" xmlns="http://www.w3.org/2000/svg" version="1.1">
 <metadata>
  <rdf:RDF xmlns:dc="http://purl.org/dc/elements/1.1/" xmlns:cc="http://creativecommons.org/ns#" xmlns:rdf="http://www.w3.org/1999/02/22-rdf-syntax-ns#">
   <cc:Work>
    <dc:type rdf:resource="http://purl.org/dc/dcmitype/StillImage"/>
    <dc:date>2023-02-21T19:32:28.350600</dc:date>
    <dc:format>image/svg+xml</dc:format>
    <dc:creator>
     <cc:Agent>
      <dc:title>Matplotlib v3.6.2, https://matplotlib.org/</dc:title>
     </cc:Agent>
    </dc:creator>
   </cc:Work>
  </rdf:RDF>
 </metadata>
 <defs>
  <style type="text/css">*{stroke-linejoin: round; stroke-linecap: butt}</style>
 </defs>
 <g id="figure_1">
  <g id="patch_1">
   <path d="M 0 720 
L 720 720 
L 720 0 
L 0 0 
z
" style="fill: #ffffff"/>
  </g>
  <g id="axes_1">
   <g id="patch_2">
    <path d="M 646.2 363.6 
C 646.2 327.19843 639.029684 291.150818 625.099406 257.520153 
C 611.169128 223.889487 590.749797 193.329798 565.01 167.59 
C 539.270202 141.850203 508.710513 121.430872 475.079847 107.500594 
C 441.449182 93.570316 405.40157 86.4 369 86.4 
C 332.59843 86.4 296.550818 93.570316 262.920153 107.500594 
C 229.289487 121.430872 198.729798 141.850203 172.99 167.59 
C 147.250203 193.329798 126.830872 223.889487 112.900594 257.520153 
C 98.970316 291.150818 91.8 327.19843 91.8 363.6 
C 91.8 400.00157 98.970316 436.049182 112.900594 469.679847 
C 126.830872 503.310513 147.250203 533.870202 172.99 559.61 
C 198.729798 585.349797 229.289487 605.769128 262.920153 619.699406 
C 296.550818 633.629684 332.59843 640.8 369 640.8 
C 405.40157 640.8 441.449182 633.629684 475.079847 619.699406 
C 508.710513 605.769128 539.270202 585.349797 565.01 559.61 
C 590.749797 533.870202 611.169128 503.310513 625.099406 469.679847 
C 639.029684 436.049182 646.2 400.00157 646.2 363.6 
M 369 363.6 
C 369 363.6 369 363.6 369 363.6 
C 369 363.6 369 363.6 369 363.6 
C 369 363.6 369 363.6 369 363.6 
C 369 363.6 369 363.6 369 363.6 
C 369 363.6 369 363.6 369 363.6 
C 369 363.6 369 363.6 369 363.6 
C 369 363.6 369 363.6 369 363.6 
C 369 363.6 369 363.6 369 363.6 
C 369 363.6 369 363.6 369 363.6 
C 369 363.6 369 363.6 369 363.6 
C 369 363.6 369 363.6 369 363.6 
C 369 363.6 369 363.6 369 363.6 
C 369 363.6 369 363.6 369 363.6 
C 369 363.6 369 363.6 369 363.6 
C 369 363.6 369 363.6 369 363.6 
C 369 363.6 369 363.6 369 363.6 
M 646.2 363.6 
z
" style="fill: #ffffff"/>
   </g>
   <g id="patch_3">
    <path d="M 610.676884 363.6 
L 588.06556 272.860074 
L 517.114566 190.180125 
L 420.740277 148.086235 
L 318.298746 152.414077 
L 215.146508 183.460706 
L 147.946931 272.036821 
L 98.165234 363.6 
L 147.946931 455.163179 
L 215.146508 543.739294 
L 318.298746 574.785923 
L 420.740277 579.113765 
L 517.114566 537.019875 
L 588.06556 454.339926 
z
" clip-path="url(#p9b97d84f09)" style="fill: #f77189; opacity: 0.1"/>
   </g>
   <g id="patch_4">
    <path d="M 516.800933 363.6 
L 511.291307 304.661011 
L 463.761602 252.648419 
L 402.792016 222.846125 
L 335.493566 224.035657 
L 269.875322 247.539913 
L 228.051401 305.217179 
L 203.935389 363.6 
L 228.051401 421.982821 
L 269.875322 479.660087 
L 335.493566 503.164343 
L 402.792016 504.353875 
L 463.761602 474.551581 
L 511.291307 422.538989 
z
" clip-path="url(#p9b97d84f09)" style="fill: #bb9832; opacity: 0.1"/>
   </g>
   <g id="patch_5">
    <path d="M 545.72813 363.6 
L 531.758556 296.183199 
L 479.53515 234.179967 
L 407.473167 203.347728 
L 330.443964 203.002554 
L 255.610881 230.838399 
L 202.795454 294.755823 
L 176.35385 363.6 
L 202.795454 432.444177 
L 255.610881 496.361601 
L 330.443964 524.197446 
L 407.473167 523.852272 
L 479.53515 493.020033 
L 531.758556 431.016801 
z
" clip-path="url(#p9b97d84f09)" style="fill: #50b131; opacity: 0.1"/>
   </g>
   <g id="patch_6">
    <path d="M 574.437234 363.6 
L 554.617639 286.714656 
L 495.351964 215.660858 
L 411.498523 186.580911 
L 326.39447 186.135194 
L 240.989714 213.719213 
L 175.808616 283.577509 
L 139.704901 363.6 
L 175.808616 443.622491 
L 240.989714 513.480787 
L 326.39447 541.064806 
L 411.498523 540.619089 
L 495.351964 511.539142 
L 554.617639 440.485344 
z
" clip-path="url(#p9b97d84f09)" style="fill: #36ada4; opacity: 0.1"/>
   </g>
   <g id="matplotlib.axis_1">
    <g id="xtick_1">
     <g id="line2d_1">
      <path d="M 369 363.6 
L 646.2 363.6 
" clip-path="url(#p9b97d84f09)" style="fill: none; stroke: #b0b0b0; stroke-width: 0.8; stroke-linecap: square"/>
     </g>
     <g id="text_1">
      <!-- 0 -->
      <g transform="translate(657.01875 366.359375) scale(0.1 -0.1)">
       <defs>
        <path id="DejaVuSans-30" d="M 2034 4250 
Q 1547 4250 1301 3770 
Q 1056 3291 1056 2328 
Q 1056 1369 1301 889 
Q 1547 409 2034 409 
Q 2525 409 2770 889 
Q 3016 1369 3016 2328 
Q 3016 3291 2770 3770 
Q 2525 4250 2034 4250 
z
M 2034 4750 
Q 2819 4750 3233 4129 
Q 3647 3509 3647 2328 
Q 3647 1150 3233 529 
Q 2819 -91 2034 -91 
Q 1250 -91 836 529 
Q 422 1150 422 2328 
Q 422 3509 836 4129 
Q 1250 4750 2034 4750 
z
" transform="scale(0.015625)"/>
       </defs>
       <use xlink:href="#DejaVuSans-30"/>
      </g>
     </g>
    </g>
    <g id="xtick_2">
     <g id="line2d_2">
      <path d="M 369 363.6 
L 625.099406 257.520153 
" clip-path="url(#p9b97d84f09)" style="fill: none; stroke: #b0b0b0; stroke-width: 0.8; stroke-linecap: square"/>
     </g>
     <g id="text_2">
      <!-- 22 -->
      <g transform="translate(631.67122 254.921959) scale(0.1 -0.1)">
       <defs>
        <path id="DejaVuSans-32" d="M 1228 531 
L 3431 531 
L 3431 0 
L 469 0 
L 469 531 
Q 828 903 1448 1529 
Q 2069 2156 2228 2338 
Q 2531 2678 2651 2914 
Q 2772 3150 2772 3378 
Q 2772 3750 2511 3984 
Q 2250 4219 1831 4219 
Q 1534 4219 1204 4116 
Q 875 4013 500 3803 
L 500 4441 
Q 881 4594 1212 4672 
Q 1544 4750 1819 4750 
Q 2544 4750 2975 4387 
Q 3406 4025 3406 3419 
Q 3406 3131 3298 2873 
Q 3191 2616 2906 2266 
Q 2828 2175 2409 1742 
Q 1991 1309 1228 531 
z
" transform="scale(0.015625)"/>
       </defs>
       <use xlink:href="#DejaVuSans-32"/>
       <use xlink:href="#DejaVuSans-32" x="63.623047"/>
      </g>
     </g>
    </g>
    <g id="xtick_3">
     <g id="line2d_3">
      <path d="M 369 363.6 
L 549.026999 152.815466 
" clip-path="url(#p9b97d84f09)" style="fill: none; stroke: #b0b0b0; stroke-width: 0.8; stroke-linecap: square"/>
     </g>
     <g id="text_3">
      <!-- 50 -->
      <g transform="translate(551.756772 144.929158) scale(0.1 -0.1)">
       <defs>
        <path id="DejaVuSans-35" d="M 691 4666 
L 3169 4666 
L 3169 4134 
L 1269 4134 
L 1269 2991 
Q 1406 3038 1543 3061 
Q 1681 3084 1819 3084 
Q 2600 3084 3056 2656 
Q 3513 2228 3513 1497 
Q 3513 744 3044 326 
Q 2575 -91 1722 -91 
Q 1428 -91 1123 -41 
Q 819 9 494 109 
L 494 744 
Q 775 591 1075 516 
Q 1375 441 1709 441 
Q 2250 441 2565 725 
Q 2881 1009 2881 1497 
Q 2881 1984 2565 2268 
Q 2250 2553 1709 2553 
Q 1456 2553 1204 2497 
Q 953 2441 691 2322 
L 691 4666 
z
" transform="scale(0.015625)"/>
       </defs>
       <use xlink:href="#DejaVuSans-35"/>
       <use xlink:href="#DejaVuSans-30" x="63.623047"/>
      </g>
     </g>
    </g>
    <g id="xtick_4">
     <g id="line2d_4">
      <path d="M 369 363.6 
L 433.711055 94.059058 
" clip-path="url(#p9b97d84f09)" style="fill: none; stroke: #b0b0b0; stroke-width: 0.8; stroke-linecap: square"/>
     </g>
     <g id="text_4">
      <!-- 76 -->
      <g transform="translate(430.61679 83.205254) scale(0.1 -0.1)">
       <defs>
        <path id="DejaVuSans-37" d="M 525 4666 
L 3525 4666 
L 3525 4397 
L 1831 0 
L 1172 0 
L 2766 4134 
L 525 4134 
L 525 4666 
z
" transform="scale(0.015625)"/>
        <path id="DejaVuSans-36" d="M 2113 2584 
Q 1688 2584 1439 2293 
Q 1191 2003 1191 1497 
Q 1191 994 1439 701 
Q 1688 409 2113 409 
Q 2538 409 2786 701 
Q 3034 994 3034 1497 
Q 3034 2003 2786 2293 
Q 2538 2584 2113 2584 
z
M 3366 4563 
L 3366 3988 
Q 3128 4100 2886 4159 
Q 2644 4219 2406 4219 
Q 1781 4219 1451 3797 
Q 1122 3375 1075 2522 
Q 1259 2794 1537 2939 
Q 1816 3084 2150 3084 
Q 2853 3084 3261 2657 
Q 3669 2231 3669 1497 
Q 3669 778 3244 343 
Q 2819 -91 2113 -91 
Q 1303 -91 875 529 
Q 447 1150 447 2328 
Q 447 3434 972 4092 
Q 1497 4750 2381 4750 
Q 2619 4750 2861 4703 
Q 3103 4656 3366 4563 
z
" transform="scale(0.015625)"/>
       </defs>
       <use xlink:href="#DejaVuSans-37"/>
       <use xlink:href="#DejaVuSans-36" x="63.623047"/>
      </g>
     </g>
    </g>
    <g id="xtick_5">
     <g id="line2d_5">
      <path d="M 369 363.6 
L 304.288945 94.059058 
" clip-path="url(#p9b97d84f09)" style="fill: none; stroke: #b0b0b0; stroke-width: 0.8; stroke-linecap: square"/>
     </g>
     <g id="text_5">
      <!-- 104 -->
      <g transform="translate(291.47696 83.205254) scale(0.1 -0.1)">
       <defs>
        <path id="DejaVuSans-31" d="M 794 531 
L 1825 531 
L 1825 4091 
L 703 3866 
L 703 4441 
L 1819 4666 
L 2450 4666 
L 2450 531 
L 3481 531 
L 3481 0 
L 794 0 
L 794 531 
z
" transform="scale(0.015625)"/>
        <path id="DejaVuSans-34" d="M 2419 4116 
L 825 1625 
L 2419 1625 
L 2419 4116 
z
M 2253 4666 
L 3047 4666 
L 3047 1625 
L 3713 1625 
L 3713 1100 
L 3047 1100 
L 3047 0 
L 2419 0 
L 2419 1100 
L 313 1100 
L 313 1709 
L 2253 4666 
z
" transform="scale(0.015625)"/>
       </defs>
       <use xlink:href="#DejaVuSans-31"/>
       <use xlink:href="#DejaVuSans-30" x="63.623047"/>
       <use xlink:href="#DejaVuSans-34" x="127.246094"/>
      </g>
     </g>
    </g>
    <g id="xtick_6">
     <g id="line2d_6">
      <path d="M 369 363.6 
L 188.973001 152.815466 
" clip-path="url(#p9b97d84f09)" style="fill: none; stroke: #b0b0b0; stroke-width: 0.8; stroke-linecap: square"/>
     </g>
     <g id="text_6">
      <!-- 130 -->
      <g transform="translate(170.336978 144.929158) scale(0.1 -0.1)">
       <defs>
        <path id="DejaVuSans-33" d="M 2597 2516 
Q 3050 2419 3304 2112 
Q 3559 1806 3559 1356 
Q 3559 666 3084 287 
Q 2609 -91 1734 -91 
Q 1441 -91 1130 -33 
Q 819 25 488 141 
L 488 750 
Q 750 597 1062 519 
Q 1375 441 1716 441 
Q 2309 441 2620 675 
Q 2931 909 2931 1356 
Q 2931 1769 2642 2001 
Q 2353 2234 1838 2234 
L 1294 2234 
L 1294 2753 
L 1863 2753 
Q 2328 2753 2575 2939 
Q 2822 3125 2822 3475 
Q 2822 3834 2567 4026 
Q 2313 4219 1838 4219 
Q 1578 4219 1281 4162 
Q 984 4106 628 3988 
L 628 4550 
Q 988 4650 1302 4700 
Q 1616 4750 1894 4750 
Q 2613 4750 3031 4423 
Q 3450 4097 3450 3541 
Q 3450 3153 3228 2886 
Q 3006 2619 2597 2516 
z
" transform="scale(0.015625)"/>
       </defs>
       <use xlink:href="#DejaVuSans-31"/>
       <use xlink:href="#DejaVuSans-33" x="63.623047"/>
       <use xlink:href="#DejaVuSans-30" x="127.246094"/>
      </g>
     </g>
    </g>
    <g id="xtick_7">
     <g id="line2d_7">
      <path d="M 369 363.6 
L 112.900594 257.520153 
" clip-path="url(#p9b97d84f09)" style="fill: none; stroke: #b0b0b0; stroke-width: 0.8; stroke-linecap: square"/>
     </g>
     <g id="text_7">
      <!-- 158 -->
      <g transform="translate(90.42253 254.921959) scale(0.1 -0.1)">
       <defs>
        <path id="DejaVuSans-38" d="M 2034 2216 
Q 1584 2216 1326 1975 
Q 1069 1734 1069 1313 
Q 1069 891 1326 650 
Q 1584 409 2034 409 
Q 2484 409 2743 651 
Q 3003 894 3003 1313 
Q 3003 1734 2745 1975 
Q 2488 2216 2034 2216 
z
M 1403 2484 
Q 997 2584 770 2862 
Q 544 3141 544 3541 
Q 544 4100 942 4425 
Q 1341 4750 2034 4750 
Q 2731 4750 3128 4425 
Q 3525 4100 3525 3541 
Q 3525 3141 3298 2862 
Q 3072 2584 2669 2484 
Q 3125 2378 3379 2068 
Q 3634 1759 3634 1313 
Q 3634 634 3220 271 
Q 2806 -91 2034 -91 
Q 1263 -91 848 271 
Q 434 634 434 1313 
Q 434 1759 690 2068 
Q 947 2378 1403 2484 
z
M 1172 3481 
Q 1172 3119 1398 2916 
Q 1625 2713 2034 2713 
Q 2441 2713 2670 2916 
Q 2900 3119 2900 3481 
Q 2900 3844 2670 4047 
Q 2441 4250 2034 4250 
Q 1625 4250 1398 4047 
Q 1172 3844 1172 3481 
z
" transform="scale(0.015625)"/>
       </defs>
       <use xlink:href="#DejaVuSans-31"/>
       <use xlink:href="#DejaVuSans-35" x="63.623047"/>
       <use xlink:href="#DejaVuSans-38" x="127.246094"/>
      </g>
     </g>
    </g>
    <g id="xtick_8">
     <g id="line2d_8">
      <path d="M 369 363.6 
L 91.8 363.6 
" clip-path="url(#p9b97d84f09)" style="fill: none; stroke: #b0b0b0; stroke-width: 0.8; stroke-linecap: square"/>
     </g>
     <g id="text_8">
      <!-- 180 -->
      <g transform="translate(68.25625 366.359375) scale(0.1 -0.1)">
       <use xlink:href="#DejaVuSans-31"/>
       <use xlink:href="#DejaVuSans-38" x="63.623047"/>
       <use xlink:href="#DejaVuSans-30" x="127.246094"/>
      </g>
     </g>
    </g>
    <g id="xtick_9">
     <g id="line2d_9">
      <path d="M 369 363.6 
L 112.900594 469.679847 
" clip-path="url(#p9b97d84f09)" style="fill: none; stroke: #b0b0b0; stroke-width: 0.8; stroke-linecap: square"/>
     </g>
     <g id="text_9">
      <!-- 202 -->
      <g transform="translate(90.42253 477.796791) scale(0.1 -0.1)">
       <use xlink:href="#DejaVuSans-32"/>
       <use xlink:href="#DejaVuSans-30" x="63.623047"/>
       <use xlink:href="#DejaVuSans-32" x="127.246094"/>
      </g>
     </g>
    </g>
    <g id="xtick_10">
     <g id="line2d_10">
      <path d="M 369 363.6 
L 188.973001 574.384534 
" clip-path="url(#p9b97d84f09)" style="fill: none; stroke: #b0b0b0; stroke-width: 0.8; stroke-linecap: square"/>
     </g>
     <g id="text_10">
      <!-- 229 -->
      <g transform="translate(170.336978 587.789592) scale(0.1 -0.1)">
       <defs>
        <path id="DejaVuSans-39" d="M 703 97 
L 703 672 
Q 941 559 1184 500 
Q 1428 441 1663 441 
Q 2288 441 2617 861 
Q 2947 1281 2994 2138 
Q 2813 1869 2534 1725 
Q 2256 1581 1919 1581 
Q 1219 1581 811 2004 
Q 403 2428 403 3163 
Q 403 3881 828 4315 
Q 1253 4750 1959 4750 
Q 2769 4750 3195 4129 
Q 3622 3509 3622 2328 
Q 3622 1225 3098 567 
Q 2575 -91 1691 -91 
Q 1453 -91 1209 -44 
Q 966 3 703 97 
z
M 1959 2075 
Q 2384 2075 2632 2365 
Q 2881 2656 2881 3163 
Q 2881 3666 2632 3958 
Q 2384 4250 1959 4250 
Q 1534 4250 1286 3958 
Q 1038 3666 1038 3163 
Q 1038 2656 1286 2365 
Q 1534 2075 1959 2075 
z
" transform="scale(0.015625)"/>
       </defs>
       <use xlink:href="#DejaVuSans-32"/>
       <use xlink:href="#DejaVuSans-32" x="63.623047"/>
       <use xlink:href="#DejaVuSans-39" x="127.246094"/>
      </g>
     </g>
    </g>
    <g id="xtick_11">
     <g id="line2d_11">
      <path d="M 369 363.6 
L 304.288945 633.140942 
" clip-path="url(#p9b97d84f09)" style="fill: none; stroke: #b0b0b0; stroke-width: 0.8; stroke-linecap: square"/>
     </g>
     <g id="text_11">
      <!-- 256 -->
      <g transform="translate(291.47696 649.513496) scale(0.1 -0.1)">
       <use xlink:href="#DejaVuSans-32"/>
       <use xlink:href="#DejaVuSans-35" x="63.623047"/>
       <use xlink:href="#DejaVuSans-36" x="127.246094"/>
      </g>
     </g>
    </g>
    <g id="xtick_12">
     <g id="line2d_12">
      <path d="M 369 363.6 
L 433.711055 633.140942 
" clip-path="url(#p9b97d84f09)" style="fill: none; stroke: #b0b0b0; stroke-width: 0.8; stroke-linecap: square"/>
     </g>
     <g id="text_12">
      <!-- 284 -->
      <g transform="translate(427.43554 649.513496) scale(0.1 -0.1)">
       <use xlink:href="#DejaVuSans-32"/>
       <use xlink:href="#DejaVuSans-38" x="63.623047"/>
       <use xlink:href="#DejaVuSans-34" x="127.246094"/>
      </g>
     </g>
    </g>
    <g id="xtick_13">
     <g id="line2d_13">
      <path d="M 369 363.6 
L 549.026999 574.384534 
" clip-path="url(#p9b97d84f09)" style="fill: none; stroke: #b0b0b0; stroke-width: 0.8; stroke-linecap: square"/>
     </g>
     <g id="text_13">
      <!-- 310 -->
      <g transform="translate(548.575522 587.789592) scale(0.1 -0.1)">
       <use xlink:href="#DejaVuSans-33"/>
       <use xlink:href="#DejaVuSans-31" x="63.623047"/>
       <use xlink:href="#DejaVuSans-30" x="127.246094"/>
      </g>
     </g>
    </g>
    <g id="xtick_14">
     <g id="line2d_14">
      <path d="M 369 363.6 
L 625.099406 469.679847 
" clip-path="url(#p9b97d84f09)" style="fill: none; stroke: #b0b0b0; stroke-width: 0.8; stroke-linecap: square"/>
     </g>
     <g id="text_14">
      <!-- 338 -->
      <g transform="translate(628.48997 477.796791) scale(0.1 -0.1)">
       <use xlink:href="#DejaVuSans-33"/>
       <use xlink:href="#DejaVuSans-33" x="63.623047"/>
       <use xlink:href="#DejaVuSans-38" x="127.246094"/>
      </g>
     </g>
    </g>
    <g id="xtick_15">
     <g id="line2d_15">
      <path d="M 369 363.6 
L 646.2 363.6 
" clip-path="url(#p9b97d84f09)" style="fill: none; stroke: #b0b0b0; stroke-width: 0.8; stroke-linecap: square"/>
     </g>
     <g id="text_15">
      <!-- 0 -->
      <g transform="translate(657.01875 366.359375) scale(0.1 -0.1)">
       <use xlink:href="#DejaVuSans-30"/>
      </g>
     </g>
    </g>
   </g>
   <g id="matplotlib.axis_2">
    <g id="ytick_1">
     <g id="line2d_16">
      <path d="M 405.635 363.6 
C 405.635 358.789136 404.687365 354.025051 402.846327 349.580392 
C 401.005289 345.135734 398.306652 341.096938 394.904857 337.695143 
C 391.503062 334.293348 387.464266 331.594711 383.019608 329.753673 
C 378.574949 327.912635 373.810864 326.965 369 326.965 
C 364.189136 326.965 359.425051 327.912635 354.980392 329.753673 
C 350.535734 331.594711 346.496938 334.293348 343.095143 337.695143 
C 339.693348 341.096938 336.994711 345.135734 335.153673 349.580392 
C 333.312635 354.025051 332.365 358.789136 332.365 363.6 
C 332.365 368.410864 333.312635 373.174949 335.153673 377.619608 
C 336.994711 382.064266 339.693348 386.103062 343.095143 389.504857 
C 346.496938 392.906652 350.535734 395.605289 354.980392 397.446327 
C 359.425051 399.287365 364.189136 400.235 369 400.235 
C 373.810864 400.235 378.574949 399.287365 383.019608 397.446327 
C 387.464266 395.605289 391.503062 392.906652 394.904857 389.504857 
C 398.306652 386.103062 401.005289 382.064266 402.846327 377.619608 
C 404.687365 373.174949 405.635 368.410864 405.635 363.6 
" clip-path="url(#p9b97d84f09)" style="fill: none; stroke: #b0b0b0; stroke-width: 0.8; stroke-linecap: square"/>
     </g>
     <g id="text_16">
      <!-- 10 -->
      <g style="fill: #ff0000" transform="translate(402.846327 375.53992) scale(0.1 -0.1)">
       <use xlink:href="#DejaVuSans-31"/>
       <use xlink:href="#DejaVuSans-30" x="63.623047"/>
      </g>
     </g>
    </g>
    <g id="ytick_2">
     <g id="line2d_17">
      <path d="M 442.27 363.6 
C 442.27 353.978272 440.374729 344.450103 436.692653 335.560785 
C 433.010577 326.671467 427.613303 318.593875 420.809714 311.790286 
C 414.006125 304.986697 405.928533 299.589423 397.039215 295.907347 
C 388.149897 292.225271 378.621728 290.33 369 290.33 
C 359.378272 290.33 349.850103 292.225271 340.960785 295.907347 
C 332.071467 299.589423 323.993875 304.986697 317.190286 311.790286 
C 310.386697 318.593875 304.989423 326.671467 301.307347 335.560785 
C 297.625271 344.450103 295.73 353.978272 295.73 363.6 
C 295.73 373.221728 297.625271 382.749897 301.307347 391.639215 
C 304.989423 400.528533 310.386697 408.606125 317.190286 415.409714 
C 323.993875 422.213303 332.071467 427.610577 340.960785 431.292653 
C 349.850103 434.974729 359.378272 436.87 369 436.87 
C 378.621728 436.87 388.149897 434.974729 397.039215 431.292653 
C 405.928533 427.610577 414.006125 422.213303 420.809714 415.409714 
C 427.613303 408.606125 433.010577 400.528533 436.692653 391.639215 
C 440.374729 382.749897 442.27 373.221728 442.27 363.6 
" clip-path="url(#p9b97d84f09)" style="fill: none; stroke: #b0b0b0; stroke-width: 0.8; stroke-linecap: square"/>
     </g>
     <g id="text_17">
      <!-- 20 -->
      <g style="fill: #ff0000" transform="translate(436.692653 389.559528) scale(0.1 -0.1)">
       <use xlink:href="#DejaVuSans-32"/>
       <use xlink:href="#DejaVuSans-30" x="63.623047"/>
      </g>
     </g>
    </g>
    <g id="ytick_3">
     <g id="line2d_18">
      <path d="M 478.905 363.6 
C 478.905 349.167408 476.062094 334.875154 470.53898 321.541177 
C 465.015866 308.207201 456.919955 296.090813 446.714571 285.885429 
C 436.509187 275.680045 424.392799 267.584134 411.058823 262.06102 
C 397.724846 256.537906 383.432592 253.695 369 253.695 
C 354.567408 253.695 340.275154 256.537906 326.941177 262.06102 
C 313.607201 267.584134 301.490813 275.680045 291.285429 285.885429 
C 281.080045 296.090813 272.984134 308.207201 267.46102 321.541177 
C 261.937906 334.875154 259.095 349.167408 259.095 363.6 
C 259.095 378.032592 261.937906 392.324846 267.46102 405.658823 
C 272.984134 418.992799 281.080045 431.109187 291.285429 441.314571 
C 301.490813 451.519955 313.607201 459.615866 326.941177 465.13898 
C 340.275154 470.662094 354.567408 473.505 369 473.505 
C 383.432592 473.505 397.724846 470.662094 411.058823 465.13898 
C 424.392799 459.615866 436.509187 451.519955 446.714571 441.314571 
C 456.919955 431.109187 465.015866 418.992799 470.53898 405.658823 
C 476.062094 392.324846 478.905 378.032592 478.905 363.6 
" clip-path="url(#p9b97d84f09)" style="fill: none; stroke: #b0b0b0; stroke-width: 0.8; stroke-linecap: square"/>
     </g>
     <g id="text_18">
      <!-- 30 -->
      <g style="fill: #ff0000" transform="translate(470.53898 403.579135) scale(0.1 -0.1)">
       <use xlink:href="#DejaVuSans-33"/>
       <use xlink:href="#DejaVuSans-30" x="63.623047"/>
      </g>
     </g>
    </g>
    <g id="ytick_4">
     <g id="line2d_19">
      <path d="M 515.54 363.6 
C 515.54 344.356543 511.749459 325.300205 504.385307 307.52157 
C 497.021155 289.742934 486.226606 273.587751 472.619428 259.980572 
C 459.012249 246.373394 442.857066 235.578845 425.07843 228.214693 
C 407.299795 220.850541 388.243457 217.06 369 217.06 
C 349.756543 217.06 330.700205 220.850541 312.92157 228.214693 
C 295.142934 235.578845 278.987751 246.373394 265.380572 259.980572 
C 251.773394 273.587751 240.978845 289.742934 233.614693 307.52157 
C 226.250541 325.300205 222.46 344.356543 222.46 363.6 
C 222.46 382.843457 226.250541 401.899795 233.614693 419.67843 
C 240.978845 437.457066 251.773394 453.612249 265.380572 467.219428 
C 278.987751 480.826606 295.142934 491.621155 312.92157 498.985307 
C 330.700205 506.349459 349.756543 510.14 369 510.14 
C 388.243457 510.14 407.299795 506.349459 425.07843 498.985307 
C 442.857066 491.621155 459.012249 480.826606 472.619428 467.219428 
C 486.226606 453.612249 497.021155 437.457066 504.385307 419.67843 
C 511.749459 401.899795 515.54 382.843457 515.54 363.6 
" clip-path="url(#p9b97d84f09)" style="fill: none; stroke: #b0b0b0; stroke-width: 0.8; stroke-linecap: square"/>
     </g>
     <g id="text_19">
      <!-- 40 -->
      <g style="fill: #ff0000" transform="translate(504.385307 417.598743) scale(0.1 -0.1)">
       <use xlink:href="#DejaVuSans-34"/>
       <use xlink:href="#DejaVuSans-30" x="63.623047"/>
      </g>
     </g>
    </g>
    <g id="ytick_5">
     <g id="line2d_20">
      <path d="M 552.175 363.6 
C 552.175 339.545679 547.436824 315.725257 538.231634 293.501962 
C 529.026444 271.278668 515.533258 251.084688 498.524285 234.075715 
C 481.515312 217.066742 461.321332 203.573556 439.098038 194.368366 
C 416.874743 185.163176 393.054321 180.425 369 180.425 
C 344.945679 180.425 321.125257 185.163176 298.901962 194.368366 
C 276.678668 203.573556 256.484688 217.066742 239.475715 234.075715 
C 222.466742 251.084688 208.973556 271.278668 199.768366 293.501962 
C 190.563176 315.725257 185.825 339.545679 185.825 363.6 
C 185.825 387.654321 190.563176 411.474743 199.768366 433.698038 
C 208.973556 455.921332 222.466742 476.115312 239.475715 493.124285 
C 256.484688 510.133258 276.678668 523.626444 298.901962 532.831634 
C 321.125257 542.036824 344.945679 546.775 369 546.775 
C 393.054321 546.775 416.874743 542.036824 439.098038 532.831634 
C 461.321332 523.626444 481.515312 510.133258 498.524285 493.124285 
C 515.533258 476.115312 529.026444 455.921332 538.231634 433.698038 
C 547.436824 411.474743 552.175 387.654321 552.175 363.6 
" clip-path="url(#p9b97d84f09)" style="fill: none; stroke: #b0b0b0; stroke-width: 0.8; stroke-linecap: square"/>
     </g>
     <g id="text_20">
      <!-- 50 -->
      <g style="fill: #ff0000" transform="translate(538.231634 431.61835) scale(0.1 -0.1)">
       <use xlink:href="#DejaVuSans-35"/>
       <use xlink:href="#DejaVuSans-30" x="63.623047"/>
      </g>
     </g>
    </g>
    <g id="ytick_6">
     <g id="line2d_21">
      <path d="M 588.81 363.6 
C 588.81 334.734815 583.124188 306.150308 572.07796 279.482355 
C 561.031732 252.814401 544.83991 228.581626 524.429142 208.170858 
C 504.018374 187.76009 479.785599 171.568268 453.117645 160.52204 
C 426.449692 149.475812 397.865185 143.79 369 143.79 
C 340.134815 143.79 311.550308 149.475812 284.882355 160.52204 
C 258.214401 171.568268 233.981626 187.76009 213.570858 208.170858 
C 193.16009 228.581626 176.968268 252.814401 165.92204 279.482355 
C 154.875812 306.150308 149.19 334.734815 149.19 363.6 
C 149.19 392.465185 154.875812 421.049692 165.92204 447.717645 
C 176.968268 474.385599 193.16009 498.618374 213.570858 519.029142 
C 233.981626 539.43991 258.214401 555.631732 284.882355 566.67796 
C 311.550308 577.724188 340.134815 583.41 369 583.41 
C 397.865185 583.41 426.449692 577.724188 453.117645 566.67796 
C 479.785599 555.631732 504.018374 539.43991 524.429142 519.029142 
C 544.83991 498.618374 561.031732 474.385599 572.07796 447.717645 
C 583.124188 421.049692 588.81 392.465185 588.81 363.6 
" clip-path="url(#p9b97d84f09)" style="fill: none; stroke: #b0b0b0; stroke-width: 0.8; stroke-linecap: square"/>
     </g>
     <g id="text_21">
      <!-- 60 -->
      <g style="fill: #ff0000" transform="translate(572.07796 445.637958) scale(0.1 -0.1)">
       <use xlink:href="#DejaVuSans-36"/>
       <use xlink:href="#DejaVuSans-30" x="63.623047"/>
      </g>
     </g>
    </g>
    <g id="ytick_7">
     <g id="line2d_22">
      <path d="M 625.445 363.6 
C 625.445 329.923951 618.811553 296.575359 605.924287 265.462747 
C 593.037021 234.350135 574.146561 206.078564 550.333999 182.266001 
C 526.521436 158.453439 498.249865 139.562979 467.137253 126.675713 
C 436.024641 113.788447 402.676049 107.155 369 107.155 
C 335.323951 107.155 301.975359 113.788447 270.862747 126.675713 
C 239.750135 139.562979 211.478564 158.453439 187.666001 182.266001 
C 163.853439 206.078564 144.962979 234.350135 132.075713 265.462747 
C 119.188447 296.575359 112.555 329.923951 112.555 363.6 
C 112.555 397.276049 119.188447 430.624641 132.075713 461.737253 
C 144.962979 492.849865 163.853439 521.121436 187.666001 544.933999 
C 211.478564 568.746561 239.750135 587.637021 270.862747 600.524287 
C 301.975359 613.411553 335.323951 620.045 369 620.045 
C 402.676049 620.045 436.024641 613.411553 467.137253 600.524287 
C 498.249865 587.637021 526.521436 568.746561 550.333999 544.933999 
C 574.146561 521.121436 593.037021 492.849865 605.924287 461.737253 
C 618.811553 430.624641 625.445 397.276049 625.445 363.6 
" clip-path="url(#p9b97d84f09)" style="fill: none; stroke: #b0b0b0; stroke-width: 0.8; stroke-linecap: square"/>
     </g>
     <g id="text_22">
      <!-- 70 -->
      <g style="fill: #ff0000" transform="translate(605.924287 459.657565) scale(0.1 -0.1)">
       <use xlink:href="#DejaVuSans-37"/>
       <use xlink:href="#DejaVuSans-30" x="63.623047"/>
      </g>
     </g>
    </g>
   </g>
   <g id="line2d_23">
    <path d="M 610.676884 363.6 
L 588.06556 272.860074 
L 517.114566 190.180125 
L 420.740277 148.086235 
L 318.298746 152.414077 
L 215.146508 183.460706 
L 147.946931 272.036821 
L 98.165234 363.6 
L 147.946931 455.163179 
L 215.146508 543.739294 
L 318.298746 574.785923 
L 420.740277 579.113765 
L 517.114566 537.019875 
L 588.06556 454.339926 
L 610.676884 363.6 
" clip-path="url(#p9b97d84f09)" style="fill: none; stroke: #f77189; stroke-linecap: square"/>
   </g>
   <g id="line2d_24">
    <path d="M 516.800933 363.6 
L 511.291307 304.661011 
L 463.761602 252.648419 
L 402.792016 222.846125 
L 335.493566 224.035657 
L 269.875322 247.539913 
L 228.051401 305.217179 
L 203.935389 363.6 
L 228.051401 421.982821 
L 269.875322 479.660087 
L 335.493566 503.164343 
L 402.792016 504.353875 
L 463.761602 474.551581 
L 511.291307 422.538989 
L 516.800933 363.6 
" clip-path="url(#p9b97d84f09)" style="fill: none; stroke: #bb9832; stroke-linecap: square"/>
   </g>
   <g id="line2d_25">
    <path d="M 545.72813 363.6 
L 531.758556 296.183199 
L 479.53515 234.179967 
L 407.473167 203.347728 
L 330.443964 203.002554 
L 255.610881 230.838399 
L 202.795454 294.755823 
L 176.35385 363.6 
L 202.795454 432.444177 
L 255.610881 496.361601 
L 330.443964 524.197446 
L 407.473167 523.852272 
L 479.53515 493.020033 
L 531.758556 431.016801 
L 545.72813 363.6 
" clip-path="url(#p9b97d84f09)" style="fill: none; stroke: #50b131; stroke-linecap: square"/>
   </g>
   <g id="line2d_26">
    <path d="M 574.437234 363.6 
L 554.617639 286.714656 
L 495.351964 215.660858 
L 411.498523 186.580911 
L 326.39447 186.135194 
L 240.989714 213.719213 
L 175.808616 283.577509 
L 139.704901 363.6 
L 175.808616 443.622491 
L 240.989714 513.480787 
L 326.39447 541.064806 
L 411.498523 540.619089 
L 495.351964 511.539142 
L 554.617639 440.485344 
L 574.437234 363.6 
" clip-path="url(#p9b97d84f09)" style="fill: none; stroke: #36ada4; stroke-linecap: square"/>
   </g>
   <g id="patch_7">
    <path d="M 646.2 363.6 
C 646.2 327.19843 639.029684 291.150818 625.099406 257.520153 
C 611.169128 223.889487 590.749797 193.329798 565.01 167.59 
C 539.270202 141.850203 508.710513 121.430872 475.079847 107.500594 
C 441.449182 93.570316 405.40157 86.4 369 86.4 
C 332.59843 86.4 296.550818 93.570316 262.920153 107.500594 
C 229.289487 121.430872 198.729798 141.850203 172.99 167.59 
C 147.250203 193.329798 126.830872 223.889487 112.900594 257.520153 
C 98.970316 291.150818 91.8 327.19843 91.8 363.6 
C 91.8 400.00157 98.970316 436.049182 112.900594 469.679847 
C 126.830872 503.310513 147.250203 533.870202 172.99 559.61 
C 198.729798 585.349797 229.289487 605.769128 262.920153 619.699406 
C 296.550818 633.629684 332.59843 640.8 369 640.8 
C 405.40157 640.8 441.449182 633.629684 475.079847 619.699406 
C 508.710513 605.769128 539.270202 585.349797 565.01 559.61 
C 590.749797 533.870202 611.169128 503.310513 625.099406 469.679847 
C 639.029684 436.049182 646.2 400.00157 646.2 363.6 
" style="fill: none; stroke: #000000; stroke-width: 0.8; stroke-linejoin: miter; stroke-linecap: square"/>
   </g>
   <g id="text_23">
    <!-- Green 2 Blade Prop Mean Noise Profile -->
    <g transform="translate(253.6425 69.606817) scale(0.12 -0.12)">
     <defs>
      <path id="DejaVuSans-47" d="M 3809 666 
L 3809 1919 
L 2778 1919 
L 2778 2438 
L 4434 2438 
L 4434 434 
Q 4069 175 3628 42 
Q 3188 -91 2688 -91 
Q 1594 -91 976 548 
Q 359 1188 359 2328 
Q 359 3472 976 4111 
Q 1594 4750 2688 4750 
Q 3144 4750 3555 4637 
Q 3966 4525 4313 4306 
L 4313 3634 
Q 3963 3931 3569 4081 
Q 3175 4231 2741 4231 
Q 1884 4231 1454 3753 
Q 1025 3275 1025 2328 
Q 1025 1384 1454 906 
Q 1884 428 2741 428 
Q 3075 428 3337 486 
Q 3600 544 3809 666 
z
" transform="scale(0.015625)"/>
      <path id="DejaVuSans-72" d="M 2631 2963 
Q 2534 3019 2420 3045 
Q 2306 3072 2169 3072 
Q 1681 3072 1420 2755 
Q 1159 2438 1159 1844 
L 1159 0 
L 581 0 
L 581 3500 
L 1159 3500 
L 1159 2956 
Q 1341 3275 1631 3429 
Q 1922 3584 2338 3584 
Q 2397 3584 2469 3576 
Q 2541 3569 2628 3553 
L 2631 2963 
z
" transform="scale(0.015625)"/>
      <path id="DejaVuSans-65" d="M 3597 1894 
L 3597 1613 
L 953 1613 
Q 991 1019 1311 708 
Q 1631 397 2203 397 
Q 2534 397 2845 478 
Q 3156 559 3463 722 
L 3463 178 
Q 3153 47 2828 -22 
Q 2503 -91 2169 -91 
Q 1331 -91 842 396 
Q 353 884 353 1716 
Q 353 2575 817 3079 
Q 1281 3584 2069 3584 
Q 2775 3584 3186 3129 
Q 3597 2675 3597 1894 
z
M 3022 2063 
Q 3016 2534 2758 2815 
Q 2500 3097 2075 3097 
Q 1594 3097 1305 2825 
Q 1016 2553 972 2059 
L 3022 2063 
z
" transform="scale(0.015625)"/>
      <path id="DejaVuSans-6e" d="M 3513 2113 
L 3513 0 
L 2938 0 
L 2938 2094 
Q 2938 2591 2744 2837 
Q 2550 3084 2163 3084 
Q 1697 3084 1428 2787 
Q 1159 2491 1159 1978 
L 1159 0 
L 581 0 
L 581 3500 
L 1159 3500 
L 1159 2956 
Q 1366 3272 1645 3428 
Q 1925 3584 2291 3584 
Q 2894 3584 3203 3211 
Q 3513 2838 3513 2113 
z
" transform="scale(0.015625)"/>
      <path id="DejaVuSans-20" transform="scale(0.015625)"/>
      <path id="DejaVuSans-42" d="M 1259 2228 
L 1259 519 
L 2272 519 
Q 2781 519 3026 730 
Q 3272 941 3272 1375 
Q 3272 1813 3026 2020 
Q 2781 2228 2272 2228 
L 1259 2228 
z
M 1259 4147 
L 1259 2741 
L 2194 2741 
Q 2656 2741 2882 2914 
Q 3109 3088 3109 3444 
Q 3109 3797 2882 3972 
Q 2656 4147 2194 4147 
L 1259 4147 
z
M 628 4666 
L 2241 4666 
Q 2963 4666 3353 4366 
Q 3744 4066 3744 3513 
Q 3744 3084 3544 2831 
Q 3344 2578 2956 2516 
Q 3422 2416 3680 2098 
Q 3938 1781 3938 1306 
Q 3938 681 3513 340 
Q 3088 0 2303 0 
L 628 0 
L 628 4666 
z
" transform="scale(0.015625)"/>
      <path id="DejaVuSans-6c" d="M 603 4863 
L 1178 4863 
L 1178 0 
L 603 0 
L 603 4863 
z
" transform="scale(0.015625)"/>
      <path id="DejaVuSans-61" d="M 2194 1759 
Q 1497 1759 1228 1600 
Q 959 1441 959 1056 
Q 959 750 1161 570 
Q 1363 391 1709 391 
Q 2188 391 2477 730 
Q 2766 1069 2766 1631 
L 2766 1759 
L 2194 1759 
z
M 3341 1997 
L 3341 0 
L 2766 0 
L 2766 531 
Q 2569 213 2275 61 
Q 1981 -91 1556 -91 
Q 1019 -91 701 211 
Q 384 513 384 1019 
Q 384 1609 779 1909 
Q 1175 2209 1959 2209 
L 2766 2209 
L 2766 2266 
Q 2766 2663 2505 2880 
Q 2244 3097 1772 3097 
Q 1472 3097 1187 3025 
Q 903 2953 641 2809 
L 641 3341 
Q 956 3463 1253 3523 
Q 1550 3584 1831 3584 
Q 2591 3584 2966 3190 
Q 3341 2797 3341 1997 
z
" transform="scale(0.015625)"/>
      <path id="DejaVuSans-64" d="M 2906 2969 
L 2906 4863 
L 3481 4863 
L 3481 0 
L 2906 0 
L 2906 525 
Q 2725 213 2448 61 
Q 2172 -91 1784 -91 
Q 1150 -91 751 415 
Q 353 922 353 1747 
Q 353 2572 751 3078 
Q 1150 3584 1784 3584 
Q 2172 3584 2448 3432 
Q 2725 3281 2906 2969 
z
M 947 1747 
Q 947 1113 1208 752 
Q 1469 391 1925 391 
Q 2381 391 2643 752 
Q 2906 1113 2906 1747 
Q 2906 2381 2643 2742 
Q 2381 3103 1925 3103 
Q 1469 3103 1208 2742 
Q 947 2381 947 1747 
z
" transform="scale(0.015625)"/>
      <path id="DejaVuSans-50" d="M 1259 4147 
L 1259 2394 
L 2053 2394 
Q 2494 2394 2734 2622 
Q 2975 2850 2975 3272 
Q 2975 3691 2734 3919 
Q 2494 4147 2053 4147 
L 1259 4147 
z
M 628 4666 
L 2053 4666 
Q 2838 4666 3239 4311 
Q 3641 3956 3641 3272 
Q 3641 2581 3239 2228 
Q 2838 1875 2053 1875 
L 1259 1875 
L 1259 0 
L 628 0 
L 628 4666 
z
" transform="scale(0.015625)"/>
      <path id="DejaVuSans-6f" d="M 1959 3097 
Q 1497 3097 1228 2736 
Q 959 2375 959 1747 
Q 959 1119 1226 758 
Q 1494 397 1959 397 
Q 2419 397 2687 759 
Q 2956 1122 2956 1747 
Q 2956 2369 2687 2733 
Q 2419 3097 1959 3097 
z
M 1959 3584 
Q 2709 3584 3137 3096 
Q 3566 2609 3566 1747 
Q 3566 888 3137 398 
Q 2709 -91 1959 -91 
Q 1206 -91 779 398 
Q 353 888 353 1747 
Q 353 2609 779 3096 
Q 1206 3584 1959 3584 
z
" transform="scale(0.015625)"/>
      <path id="DejaVuSans-70" d="M 1159 525 
L 1159 -1331 
L 581 -1331 
L 581 3500 
L 1159 3500 
L 1159 2969 
Q 1341 3281 1617 3432 
Q 1894 3584 2278 3584 
Q 2916 3584 3314 3078 
Q 3713 2572 3713 1747 
Q 3713 922 3314 415 
Q 2916 -91 2278 -91 
Q 1894 -91 1617 61 
Q 1341 213 1159 525 
z
M 3116 1747 
Q 3116 2381 2855 2742 
Q 2594 3103 2138 3103 
Q 1681 3103 1420 2742 
Q 1159 2381 1159 1747 
Q 1159 1113 1420 752 
Q 1681 391 2138 391 
Q 2594 391 2855 752 
Q 3116 1113 3116 1747 
z
" transform="scale(0.015625)"/>
      <path id="DejaVuSans-4d" d="M 628 4666 
L 1569 4666 
L 2759 1491 
L 3956 4666 
L 4897 4666 
L 4897 0 
L 4281 0 
L 4281 4097 
L 3078 897 
L 2444 897 
L 1241 4097 
L 1241 0 
L 628 0 
L 628 4666 
z
" transform="scale(0.015625)"/>
      <path id="DejaVuSans-4e" d="M 628 4666 
L 1478 4666 
L 3547 763 
L 3547 4666 
L 4159 4666 
L 4159 0 
L 3309 0 
L 1241 3903 
L 1241 0 
L 628 0 
L 628 4666 
z
" transform="scale(0.015625)"/>
      <path id="DejaVuSans-69" d="M 603 3500 
L 1178 3500 
L 1178 0 
L 603 0 
L 603 3500 
z
M 603 4863 
L 1178 4863 
L 1178 4134 
L 603 4134 
L 603 4863 
z
" transform="scale(0.015625)"/>
      <path id="DejaVuSans-73" d="M 2834 3397 
L 2834 2853 
Q 2591 2978 2328 3040 
Q 2066 3103 1784 3103 
Q 1356 3103 1142 2972 
Q 928 2841 928 2578 
Q 928 2378 1081 2264 
Q 1234 2150 1697 2047 
L 1894 2003 
Q 2506 1872 2764 1633 
Q 3022 1394 3022 966 
Q 3022 478 2636 193 
Q 2250 -91 1575 -91 
Q 1294 -91 989 -36 
Q 684 19 347 128 
L 347 722 
Q 666 556 975 473 
Q 1284 391 1588 391 
Q 1994 391 2212 530 
Q 2431 669 2431 922 
Q 2431 1156 2273 1281 
Q 2116 1406 1581 1522 
L 1381 1569 
Q 847 1681 609 1914 
Q 372 2147 372 2553 
Q 372 3047 722 3315 
Q 1072 3584 1716 3584 
Q 2034 3584 2315 3537 
Q 2597 3491 2834 3397 
z
" transform="scale(0.015625)"/>
      <path id="DejaVuSans-66" d="M 2375 4863 
L 2375 4384 
L 1825 4384 
Q 1516 4384 1395 4259 
Q 1275 4134 1275 3809 
L 1275 3500 
L 2222 3500 
L 2222 3053 
L 1275 3053 
L 1275 0 
L 697 0 
L 697 3053 
L 147 3053 
L 147 3500 
L 697 3500 
L 697 3744 
Q 697 4328 969 4595 
Q 1241 4863 1831 4863 
L 2375 4863 
z
" transform="scale(0.015625)"/>
     </defs>
     <use xlink:href="#DejaVuSans-47"/>
     <use xlink:href="#DejaVuSans-72" x="77.490234"/>
     <use xlink:href="#DejaVuSans-65" x="116.353516"/>
     <use xlink:href="#DejaVuSans-65" x="177.876953"/>
     <use xlink:href="#DejaVuSans-6e" x="239.400391"/>
     <use xlink:href="#DejaVuSans-20" x="302.779297"/>
     <use xlink:href="#DejaVuSans-32" x="334.566406"/>
     <use xlink:href="#DejaVuSans-20" x="398.189453"/>
     <use xlink:href="#DejaVuSans-42" x="429.976562"/>
     <use xlink:href="#DejaVuSans-6c" x="498.580078"/>
     <use xlink:href="#DejaVuSans-61" x="526.363281"/>
     <use xlink:href="#DejaVuSans-64" x="587.642578"/>
     <use xlink:href="#DejaVuSans-65" x="651.119141"/>
     <use xlink:href="#DejaVuSans-20" x="712.642578"/>
     <use xlink:href="#DejaVuSans-50" x="744.429688"/>
     <use xlink:href="#DejaVuSans-72" x="802.982422"/>
     <use xlink:href="#DejaVuSans-6f" x="841.845703"/>
     <use xlink:href="#DejaVuSans-70" x="903.027344"/>
     <use xlink:href="#DejaVuSans-20" x="966.503906"/>
     <use xlink:href="#DejaVuSans-4d" x="998.291016"/>
     <use xlink:href="#DejaVuSans-65" x="1084.570312"/>
     <use xlink:href="#DejaVuSans-61" x="1146.09375"/>
     <use xlink:href="#DejaVuSans-6e" x="1207.373047"/>
     <use xlink:href="#DejaVuSans-20" x="1270.751953"/>
     <use xlink:href="#DejaVuSans-4e" x="1302.539062"/>
     <use xlink:href="#DejaVuSans-6f" x="1377.34375"/>
     <use xlink:href="#DejaVuSans-69" x="1438.525391"/>
     <use xlink:href="#DejaVuSans-73" x="1466.308594"/>
     <use xlink:href="#DejaVuSans-65" x="1518.408203"/>
     <use xlink:href="#DejaVuSans-20" x="1579.931641"/>
     <use xlink:href="#DejaVuSans-50" x="1611.71875"/>
     <use xlink:href="#DejaVuSans-72" x="1670.271484"/>
     <use xlink:href="#DejaVuSans-6f" x="1709.134766"/>
     <use xlink:href="#DejaVuSans-66" x="1770.316406"/>
     <use xlink:href="#DejaVuSans-69" x="1805.521484"/>
     <use xlink:href="#DejaVuSans-6c" x="1833.304688"/>
     <use xlink:href="#DejaVuSans-65" x="1861.087891"/>
    </g>
   </g>
   <g id="legend_1">
    <g id="patch_8">
     <path d="M 592.76 141.84 
L 720.29125 141.84 
Q 722.29125 141.84 722.29125 139.84 
L 722.29125 83.449375 
Q 722.29125 81.449375 720.29125 81.449375 
L 592.76 81.449375 
Q 590.76 81.449375 590.76 83.449375 
L 590.76 139.84 
Q 590.76 141.84 592.76 141.84 
z
" style="fill: #ffffff; opacity: 0.8; stroke: #cccccc; stroke-linejoin: miter"/>
    </g>
    <g id="text_24">
     <!-- ESC -->
     <g transform="translate(646.700625 93.047812) scale(0.1 -0.1)">
      <defs>
       <path id="DejaVuSans-45" d="M 628 4666 
L 3578 4666 
L 3578 4134 
L 1259 4134 
L 1259 2753 
L 3481 2753 
L 3481 2222 
L 1259 2222 
L 1259 531 
L 3634 531 
L 3634 0 
L 628 0 
L 628 4666 
z
" transform="scale(0.015625)"/>
       <path id="DejaVuSans-53" d="M 3425 4513 
L 3425 3897 
Q 3066 4069 2747 4153 
Q 2428 4238 2131 4238 
Q 1616 4238 1336 4038 
Q 1056 3838 1056 3469 
Q 1056 3159 1242 3001 
Q 1428 2844 1947 2747 
L 2328 2669 
Q 3034 2534 3370 2195 
Q 3706 1856 3706 1288 
Q 3706 609 3251 259 
Q 2797 -91 1919 -91 
Q 1588 -91 1214 -16 
Q 841 59 441 206 
L 441 856 
Q 825 641 1194 531 
Q 1563 422 1919 422 
Q 2459 422 2753 634 
Q 3047 847 3047 1241 
Q 3047 1584 2836 1778 
Q 2625 1972 2144 2069 
L 1759 2144 
Q 1053 2284 737 2584 
Q 422 2884 422 3419 
Q 422 4038 858 4394 
Q 1294 4750 2059 4750 
Q 2388 4750 2728 4690 
Q 3069 4631 3425 4513 
z
" transform="scale(0.015625)"/>
       <path id="DejaVuSans-43" d="M 4122 4306 
L 4122 3641 
Q 3803 3938 3442 4084 
Q 3081 4231 2675 4231 
Q 1875 4231 1450 3742 
Q 1025 3253 1025 2328 
Q 1025 1406 1450 917 
Q 1875 428 2675 428 
Q 3081 428 3442 575 
Q 3803 722 4122 1019 
L 4122 359 
Q 3791 134 3420 21 
Q 3050 -91 2638 -91 
Q 1578 -91 968 557 
Q 359 1206 359 2328 
Q 359 3453 968 4101 
Q 1578 4750 2638 4750 
Q 3056 4750 3426 4639 
Q 3797 4528 4122 4306 
z
" transform="scale(0.015625)"/>
      </defs>
      <use xlink:href="#DejaVuSans-45"/>
      <use xlink:href="#DejaVuSans-53" x="63.183594"/>
      <use xlink:href="#DejaVuSans-43" x="126.660156"/>
     </g>
    </g>
    <g id="line2d_27">
     <path d="M 594.76 100.225937 
L 604.76 100.225937 
L 614.76 100.225937 
" style="fill: none; stroke: #f77189; stroke-linecap: square"/>
    </g>
    <g id="text_25">
     <!-- 100% Mic Data.csv -->
     <g transform="translate(622.76 103.725937) scale(0.1 -0.1)">
      <defs>
       <path id="DejaVuSans-25" d="M 4653 2053 
Q 4381 2053 4226 1822 
Q 4072 1591 4072 1178 
Q 4072 772 4226 539 
Q 4381 306 4653 306 
Q 4919 306 5073 539 
Q 5228 772 5228 1178 
Q 5228 1588 5073 1820 
Q 4919 2053 4653 2053 
z
M 4653 2450 
Q 5147 2450 5437 2106 
Q 5728 1763 5728 1178 
Q 5728 594 5436 251 
Q 5144 -91 4653 -91 
Q 4153 -91 3862 251 
Q 3572 594 3572 1178 
Q 3572 1766 3864 2108 
Q 4156 2450 4653 2450 
z
M 1428 4353 
Q 1159 4353 1004 4120 
Q 850 3888 850 3481 
Q 850 3069 1003 2837 
Q 1156 2606 1428 2606 
Q 1700 2606 1854 2837 
Q 2009 3069 2009 3481 
Q 2009 3884 1853 4118 
Q 1697 4353 1428 4353 
z
M 4250 4750 
L 4750 4750 
L 1831 -91 
L 1331 -91 
L 4250 4750 
z
M 1428 4750 
Q 1922 4750 2215 4408 
Q 2509 4066 2509 3481 
Q 2509 2891 2217 2550 
Q 1925 2209 1428 2209 
Q 931 2209 642 2551 
Q 353 2894 353 3481 
Q 353 4063 643 4406 
Q 934 4750 1428 4750 
z
" transform="scale(0.015625)"/>
       <path id="DejaVuSans-63" d="M 3122 3366 
L 3122 2828 
Q 2878 2963 2633 3030 
Q 2388 3097 2138 3097 
Q 1578 3097 1268 2742 
Q 959 2388 959 1747 
Q 959 1106 1268 751 
Q 1578 397 2138 397 
Q 2388 397 2633 464 
Q 2878 531 3122 666 
L 3122 134 
Q 2881 22 2623 -34 
Q 2366 -91 2075 -91 
Q 1284 -91 818 406 
Q 353 903 353 1747 
Q 353 2603 823 3093 
Q 1294 3584 2113 3584 
Q 2378 3584 2631 3529 
Q 2884 3475 3122 3366 
z
" transform="scale(0.015625)"/>
       <path id="DejaVuSans-44" d="M 1259 4147 
L 1259 519 
L 2022 519 
Q 2988 519 3436 956 
Q 3884 1394 3884 2338 
Q 3884 3275 3436 3711 
Q 2988 4147 2022 4147 
L 1259 4147 
z
M 628 4666 
L 1925 4666 
Q 3281 4666 3915 4102 
Q 4550 3538 4550 2338 
Q 4550 1131 3912 565 
Q 3275 0 1925 0 
L 628 0 
L 628 4666 
z
" transform="scale(0.015625)"/>
       <path id="DejaVuSans-74" d="M 1172 4494 
L 1172 3500 
L 2356 3500 
L 2356 3053 
L 1172 3053 
L 1172 1153 
Q 1172 725 1289 603 
Q 1406 481 1766 481 
L 2356 481 
L 2356 0 
L 1766 0 
Q 1100 0 847 248 
Q 594 497 594 1153 
L 594 3053 
L 172 3053 
L 172 3500 
L 594 3500 
L 594 4494 
L 1172 4494 
z
" transform="scale(0.015625)"/>
       <path id="DejaVuSans-2e" d="M 684 794 
L 1344 794 
L 1344 0 
L 684 0 
L 684 794 
z
" transform="scale(0.015625)"/>
       <path id="DejaVuSans-76" d="M 191 3500 
L 800 3500 
L 1894 563 
L 2988 3500 
L 3597 3500 
L 2284 0 
L 1503 0 
L 191 3500 
z
" transform="scale(0.015625)"/>
      </defs>
      <use xlink:href="#DejaVuSans-31"/>
      <use xlink:href="#DejaVuSans-30" x="63.623047"/>
      <use xlink:href="#DejaVuSans-30" x="127.246094"/>
      <use xlink:href="#DejaVuSans-25" x="190.869141"/>
      <use xlink:href="#DejaVuSans-20" x="285.888672"/>
      <use xlink:href="#DejaVuSans-4d" x="317.675781"/>
      <use xlink:href="#DejaVuSans-69" x="403.955078"/>
      <use xlink:href="#DejaVuSans-63" x="431.738281"/>
      <use xlink:href="#DejaVuSans-20" x="486.71875"/>
      <use xlink:href="#DejaVuSans-44" x="518.505859"/>
      <use xlink:href="#DejaVuSans-61" x="595.507812"/>
      <use xlink:href="#DejaVuSans-74" x="656.787109"/>
      <use xlink:href="#DejaVuSans-61" x="695.996094"/>
      <use xlink:href="#DejaVuSans-2e" x="757.275391"/>
      <use xlink:href="#DejaVuSans-63" x="789.0625"/>
      <use xlink:href="#DejaVuSans-73" x="844.042969"/>
      <use xlink:href="#DejaVuSans-76" x="896.142578"/>
     </g>
    </g>
    <g id="line2d_28">
     <path d="M 594.76 110.904063 
L 604.76 110.904063 
L 614.76 110.904063 
" style="fill: none; stroke: #bb9832; stroke-linecap: square"/>
    </g>
    <g id="text_26">
     <!-- 25% Mic Data.csv -->
     <g transform="translate(622.76 114.404063) scale(0.1 -0.1)">
      <use xlink:href="#DejaVuSans-32"/>
      <use xlink:href="#DejaVuSans-35" x="63.623047"/>
      <use xlink:href="#DejaVuSans-25" x="127.246094"/>
      <use xlink:href="#DejaVuSans-20" x="222.265625"/>
      <use xlink:href="#DejaVuSans-4d" x="254.052734"/>
      <use xlink:href="#DejaVuSans-69" x="340.332031"/>
      <use xlink:href="#DejaVuSans-63" x="368.115234"/>
      <use xlink:href="#DejaVuSans-20" x="423.095703"/>
      <use xlink:href="#DejaVuSans-44" x="454.882812"/>
      <use xlink:href="#DejaVuSans-61" x="531.884766"/>
      <use xlink:href="#DejaVuSans-74" x="593.164062"/>
      <use xlink:href="#DejaVuSans-61" x="632.373047"/>
      <use xlink:href="#DejaVuSans-2e" x="693.652344"/>
      <use xlink:href="#DejaVuSans-63" x="725.439453"/>
      <use xlink:href="#DejaVuSans-73" x="780.419922"/>
      <use xlink:href="#DejaVuSans-76" x="832.519531"/>
     </g>
    </g>
    <g id="line2d_29">
     <path d="M 594.76 121.582188 
L 604.76 121.582188 
L 614.76 121.582188 
" style="fill: none; stroke: #50b131; stroke-linecap: square"/>
    </g>
    <g id="text_27">
     <!-- 50% Mic Data.csv -->
     <g transform="translate(622.76 125.082188) scale(0.1 -0.1)">
      <use xlink:href="#DejaVuSans-35"/>
      <use xlink:href="#DejaVuSans-30" x="63.623047"/>
      <use xlink:href="#DejaVuSans-25" x="127.246094"/>
      <use xlink:href="#DejaVuSans-20" x="222.265625"/>
      <use xlink:href="#DejaVuSans-4d" x="254.052734"/>
      <use xlink:href="#DejaVuSans-69" x="340.332031"/>
      <use xlink:href="#DejaVuSans-63" x="368.115234"/>
      <use xlink:href="#DejaVuSans-20" x="423.095703"/>
      <use xlink:href="#DejaVuSans-44" x="454.882812"/>
      <use xlink:href="#DejaVuSans-61" x="531.884766"/>
      <use xlink:href="#DejaVuSans-74" x="593.164062"/>
      <use xlink:href="#DejaVuSans-61" x="632.373047"/>
      <use xlink:href="#DejaVuSans-2e" x="693.652344"/>
      <use xlink:href="#DejaVuSans-63" x="725.439453"/>
      <use xlink:href="#DejaVuSans-73" x="780.419922"/>
      <use xlink:href="#DejaVuSans-76" x="832.519531"/>
     </g>
    </g>
    <g id="line2d_30">
     <path d="M 594.76 132.260312 
L 604.76 132.260312 
L 614.76 132.260312 
" style="fill: none; stroke: #36ada4; stroke-linecap: square"/>
    </g>
    <g id="text_28">
     <!-- 75% Mic Data.csv -->
     <g transform="translate(622.76 135.760312) scale(0.1 -0.1)">
      <use xlink:href="#DejaVuSans-37"/>
      <use xlink:href="#DejaVuSans-35" x="63.623047"/>
      <use xlink:href="#DejaVuSans-25" x="127.246094"/>
      <use xlink:href="#DejaVuSans-20" x="222.265625"/>
      <use xlink:href="#DejaVuSans-4d" x="254.052734"/>
      <use xlink:href="#DejaVuSans-69" x="340.332031"/>
      <use xlink:href="#DejaVuSans-63" x="368.115234"/>
      <use xlink:href="#DejaVuSans-20" x="423.095703"/>
      <use xlink:href="#DejaVuSans-44" x="454.882812"/>
      <use xlink:href="#DejaVuSans-61" x="531.884766"/>
      <use xlink:href="#DejaVuSans-74" x="593.164062"/>
      <use xlink:href="#DejaVuSans-61" x="632.373047"/>
      <use xlink:href="#DejaVuSans-2e" x="693.652344"/>
      <use xlink:href="#DejaVuSans-63" x="725.439453"/>
      <use xlink:href="#DejaVuSans-73" x="780.419922"/>
      <use xlink:href="#DejaVuSans-76" x="832.519531"/>
     </g>
    </g>
   </g>
  </g>
 </g>
 <defs>
  <clipPath id="p9b97d84f09">
   <path d="M 646.2 363.6 
C 646.2 327.19843 639.029684 291.150818 625.099406 257.520153 
C 611.169128 223.889487 590.749797 193.329798 565.01 167.59 
C 539.270202 141.850203 508.710513 121.430872 475.079847 107.500594 
C 441.449182 93.570316 405.40157 86.4 369 86.4 
C 332.59843 86.4 296.550818 93.570316 262.920153 107.500594 
C 229.289487 121.430872 198.729798 141.850203 172.99 167.59 
C 147.250203 193.329798 126.830872 223.889487 112.900594 257.520153 
C 98.970316 291.150818 91.8 327.19843 91.8 363.6 
C 91.8 400.00157 98.970316 436.049182 112.900594 469.679847 
C 126.830872 503.310513 147.250203 533.870202 172.99 559.61 
C 198.729798 585.349797 229.289487 605.769128 262.920153 619.699406 
C 296.550818 633.629684 332.59843 640.8 369 640.8 
C 405.40157 640.8 441.449182 633.629684 475.079847 619.699406 
C 508.710513 605.769128 539.270202 585.349797 565.01 559.61 
C 590.749797 533.870202 611.169128 503.310513 625.099406 469.679847 
C 639.029684 436.049182 646.2 400.00157 646.2 363.6 
M 369 363.6 
C 369 363.6 369 363.6 369 363.6 
C 369 363.6 369 363.6 369 363.6 
C 369 363.6 369 363.6 369 363.6 
C 369 363.6 369 363.6 369 363.6 
C 369 363.6 369 363.6 369 363.6 
C 369 363.6 369 363.6 369 363.6 
C 369 363.6 369 363.6 369 363.6 
C 369 363.6 369 363.6 369 363.6 
C 369 363.6 369 363.6 369 363.6 
C 369 363.6 369 363.6 369 363.6 
C 369 363.6 369 363.6 369 363.6 
C 369 363.6 369 363.6 369 363.6 
C 369 363.6 369 363.6 369 363.6 
C 369 363.6 369 363.6 369 363.6 
C 369 363.6 369 363.6 369 363.6 
C 369 363.6 369 363.6 369 363.6 
M 646.2 363.6 
z
"/>
  </clipPath>
 </defs>
</svg>
