<?xml version="1.0" encoding="utf-8" standalone="no"?>
<!DOCTYPE svg PUBLIC "-//W3C//DTD SVG 1.1//EN"
  "http://www.w3.org/Graphics/SVG/1.1/DTD/svg11.dtd">
<svg xmlns:xlink="http://www.w3.org/1999/xlink" width="720pt" height="720pt" viewBox="0 0 720 720" xmlns="http://www.w3.org/2000/svg" version="1.1">
 <metadata>
  <rdf:RDF xmlns:dc="http://purl.org/dc/elements/1.1/" xmlns:cc="http://creativecommons.org/ns#" xmlns:rdf="http://www.w3.org/1999/02/22-rdf-syntax-ns#">
   <cc:Work>
    <dc:type rdf:resource="http://purl.org/dc/dcmitype/StillImage"/>
    <dc:date>2023-02-05T17:57:25.963507</dc:date>
    <dc:format>image/svg+xml</dc:format>
    <dc:creator>
     <cc:Agent>
      <dc:title>Matplotlib v3.6.2, https://matplotlib.org/</dc:title>
     </cc:Agent>
    </dc:creator>
   </cc:Work>
  </rdf:RDF>
 </metadata>
 <defs>
  <style type="text/css">*{stroke-linejoin: round; stroke-linecap: butt}</style>
 </defs>
 <g id="figure_1">
  <g id="patch_1">
   <path d="M 0 720 
L 720 720 
L 720 0 
L 0 0 
z
" style="fill: #ffffff"/>
  </g>
  <g id="axes_1">
   <g id="patch_2">
    <path d="M 646.2 363.6 
C 646.2 327.19843 639.029684 291.150818 625.099406 257.520153 
C 611.169128 223.889487 590.749797 193.329798 565.01 167.59 
C 539.270202 141.850203 508.710513 121.430872 475.079847 107.500594 
C 441.449182 93.570316 405.40157 86.4 369 86.4 
C 332.59843 86.4 296.550818 93.570316 262.920153 107.500594 
C 229.289487 121.430872 198.729798 141.850203 172.99 167.59 
C 147.250203 193.329798 126.830872 223.889487 112.900594 257.520153 
C 98.970316 291.150818 91.8 327.19843 91.8 363.6 
C 91.8 400.00157 98.970316 436.049182 112.900594 469.679847 
C 126.830872 503.310513 147.250203 533.870202 172.99 559.61 
C 198.729798 585.349797 229.289487 605.769128 262.920153 619.699406 
C 296.550818 633.629684 332.59843 640.8 369 640.8 
C 405.40157 640.8 441.449182 633.629684 475.079847 619.699406 
C 508.710513 605.769128 539.270202 585.349797 565.01 559.61 
C 590.749797 533.870202 611.169128 503.310513 625.099406 469.679847 
C 639.029684 436.049182 646.2 400.00157 646.2 363.6 
M 369 363.6 
C 369 363.6 369 363.6 369 363.6 
C 369 363.6 369 363.6 369 363.6 
C 369 363.6 369 363.6 369 363.6 
C 369 363.6 369 363.6 369 363.6 
C 369 363.6 369 363.6 369 363.6 
C 369 363.6 369 363.6 369 363.6 
C 369 363.6 369 363.6 369 363.6 
C 369 363.6 369 363.6 369 363.6 
C 369 363.6 369 363.6 369 363.6 
C 369 363.6 369 363.6 369 363.6 
C 369 363.6 369 363.6 369 363.6 
C 369 363.6 369 363.6 369 363.6 
C 369 363.6 369 363.6 369 363.6 
C 369 363.6 369 363.6 369 363.6 
C 369 363.6 369 363.6 369 363.6 
C 369 363.6 369 363.6 369 363.6 
M 646.2 363.6 
z
" style="fill: #ffffff"/>
   </g>
   <g id="patch_3">
    <path d="M 539.744101 363.6 
L 525.78926 298.655762 
L 477.457995 236.612003 
L 404.24988 216.773682 
L 333.672868 216.451905 
L 261.837503 238.128837 
L 210.049274 297.760454 
L 169.770124 363.6 
L 210.049274 429.439546 
L 261.837503 489.071163 
L 333.672868 510.748095 
L 404.24988 510.426318 
L 477.457995 490.587997 
L 525.78926 428.544238 
z
" clip-path="url(#pe03dc8c210)" style="fill: #1f77b4; opacity: 0.1"/>
   </g>
   <g id="patch_4">
    <path d="M 597.938779 363.6 
L 578.136117 276.972984 
L 518.170407 188.943894 
L 424.782308 131.249966 
L 314.290679 135.719276 
L 210.748548 178.311356 
L 148.342638 272.200728 
L 97.809599 363.6 
L 148.342638 454.999272 
L 210.748548 548.888644 
L 314.290679 591.480724 
L 424.782308 595.950034 
L 518.170407 538.256106 
L 578.136117 450.227016 
z
" clip-path="url(#pe03dc8c210)" style="fill: #ff7f0e; opacity: 0.1"/>
   </g>
   <g id="patch_5">
    <path d="M 573.029953 363.6 
L 553.928636 287.000051 
L 498.221144 212.30148 
L 413.784235 177.060236 
L 325.431797 182.125374 
L 239.900707 212.444149 
L 185.232423 287.480977 
L 119.35856 363.6 
L 185.232423 439.719023 
L 239.900707 514.755851 
L 325.431797 545.074626 
L 413.784235 550.139764 
L 498.221144 514.89852 
L 553.928636 440.199949 
z
" clip-path="url(#pe03dc8c210)" style="fill: #2ca02c; opacity: 0.1"/>
   </g>
   <g id="patch_6">
    <path d="M 553.209549 363.6 
L 540.270446 292.657459 
L 487.997362 224.27199 
L 409.37314 195.433767 
L 330.532678 203.372074 
L 255.799438 231.059171 
L 201.036801 294.027365 
L 144.332954 363.6 
L 201.036801 433.172635 
L 255.799438 496.140829 
L 330.532678 523.827926 
L 409.37314 531.766233 
L 487.997362 502.92801 
L 540.270446 434.542541 
z
" clip-path="url(#pe03dc8c210)" style="fill: #d62728; opacity: 0.1"/>
   </g>
   <g id="matplotlib.axis_1">
    <g id="xtick_1">
     <g id="line2d_1">
      <path d="M 369 363.6 
L 646.2 363.6 
" clip-path="url(#pe03dc8c210)" style="fill: none; stroke: #b0b0b0; stroke-width: 0.8; stroke-linecap: square"/>
     </g>
     <g id="text_1">
      <!-- 0 -->
      <g transform="translate(657.01875 366.359375) scale(0.1 -0.1)">
       <defs>
        <path id="DejaVuSans-30" d="M 2034 4250 
Q 1547 4250 1301 3770 
Q 1056 3291 1056 2328 
Q 1056 1369 1301 889 
Q 1547 409 2034 409 
Q 2525 409 2770 889 
Q 3016 1369 3016 2328 
Q 3016 3291 2770 3770 
Q 2525 4250 2034 4250 
z
M 2034 4750 
Q 2819 4750 3233 4129 
Q 3647 3509 3647 2328 
Q 3647 1150 3233 529 
Q 2819 -91 2034 -91 
Q 1250 -91 836 529 
Q 422 1150 422 2328 
Q 422 3509 836 4129 
Q 1250 4750 2034 4750 
z
" transform="scale(0.015625)"/>
       </defs>
       <use xlink:href="#DejaVuSans-30"/>
      </g>
     </g>
    </g>
    <g id="xtick_2">
     <g id="line2d_2">
      <path d="M 369 363.6 
L 625.099406 257.520153 
" clip-path="url(#pe03dc8c210)" style="fill: none; stroke: #b0b0b0; stroke-width: 0.8; stroke-linecap: square"/>
     </g>
     <g id="text_2">
      <!-- 22 -->
      <g transform="translate(631.67122 254.921959) scale(0.1 -0.1)">
       <defs>
        <path id="DejaVuSans-32" d="M 1228 531 
L 3431 531 
L 3431 0 
L 469 0 
L 469 531 
Q 828 903 1448 1529 
Q 2069 2156 2228 2338 
Q 2531 2678 2651 2914 
Q 2772 3150 2772 3378 
Q 2772 3750 2511 3984 
Q 2250 4219 1831 4219 
Q 1534 4219 1204 4116 
Q 875 4013 500 3803 
L 500 4441 
Q 881 4594 1212 4672 
Q 1544 4750 1819 4750 
Q 2544 4750 2975 4387 
Q 3406 4025 3406 3419 
Q 3406 3131 3298 2873 
Q 3191 2616 2906 2266 
Q 2828 2175 2409 1742 
Q 1991 1309 1228 531 
z
" transform="scale(0.015625)"/>
       </defs>
       <use xlink:href="#DejaVuSans-32"/>
       <use xlink:href="#DejaVuSans-32" x="63.623047"/>
      </g>
     </g>
    </g>
    <g id="xtick_3">
     <g id="line2d_3">
      <path d="M 369 363.6 
L 549.026999 152.815466 
" clip-path="url(#pe03dc8c210)" style="fill: none; stroke: #b0b0b0; stroke-width: 0.8; stroke-linecap: square"/>
     </g>
     <g id="text_3">
      <!-- 50 -->
      <g transform="translate(551.756772 144.929158) scale(0.1 -0.1)">
       <defs>
        <path id="DejaVuSans-35" d="M 691 4666 
L 3169 4666 
L 3169 4134 
L 1269 4134 
L 1269 2991 
Q 1406 3038 1543 3061 
Q 1681 3084 1819 3084 
Q 2600 3084 3056 2656 
Q 3513 2228 3513 1497 
Q 3513 744 3044 326 
Q 2575 -91 1722 -91 
Q 1428 -91 1123 -41 
Q 819 9 494 109 
L 494 744 
Q 775 591 1075 516 
Q 1375 441 1709 441 
Q 2250 441 2565 725 
Q 2881 1009 2881 1497 
Q 2881 1984 2565 2268 
Q 2250 2553 1709 2553 
Q 1456 2553 1204 2497 
Q 953 2441 691 2322 
L 691 4666 
z
" transform="scale(0.015625)"/>
       </defs>
       <use xlink:href="#DejaVuSans-35"/>
       <use xlink:href="#DejaVuSans-30" x="63.623047"/>
      </g>
     </g>
    </g>
    <g id="xtick_4">
     <g id="line2d_4">
      <path d="M 369 363.6 
L 433.711055 94.059058 
" clip-path="url(#pe03dc8c210)" style="fill: none; stroke: #b0b0b0; stroke-width: 0.8; stroke-linecap: square"/>
     </g>
     <g id="text_4">
      <!-- 76 -->
      <g transform="translate(430.61679 83.205254) scale(0.1 -0.1)">
       <defs>
        <path id="DejaVuSans-37" d="M 525 4666 
L 3525 4666 
L 3525 4397 
L 1831 0 
L 1172 0 
L 2766 4134 
L 525 4134 
L 525 4666 
z
" transform="scale(0.015625)"/>
        <path id="DejaVuSans-36" d="M 2113 2584 
Q 1688 2584 1439 2293 
Q 1191 2003 1191 1497 
Q 1191 994 1439 701 
Q 1688 409 2113 409 
Q 2538 409 2786 701 
Q 3034 994 3034 1497 
Q 3034 2003 2786 2293 
Q 2538 2584 2113 2584 
z
M 3366 4563 
L 3366 3988 
Q 3128 4100 2886 4159 
Q 2644 4219 2406 4219 
Q 1781 4219 1451 3797 
Q 1122 3375 1075 2522 
Q 1259 2794 1537 2939 
Q 1816 3084 2150 3084 
Q 2853 3084 3261 2657 
Q 3669 2231 3669 1497 
Q 3669 778 3244 343 
Q 2819 -91 2113 -91 
Q 1303 -91 875 529 
Q 447 1150 447 2328 
Q 447 3434 972 4092 
Q 1497 4750 2381 4750 
Q 2619 4750 2861 4703 
Q 3103 4656 3366 4563 
z
" transform="scale(0.015625)"/>
       </defs>
       <use xlink:href="#DejaVuSans-37"/>
       <use xlink:href="#DejaVuSans-36" x="63.623047"/>
      </g>
     </g>
    </g>
    <g id="xtick_5">
     <g id="line2d_5">
      <path d="M 369 363.6 
L 304.288945 94.059058 
" clip-path="url(#pe03dc8c210)" style="fill: none; stroke: #b0b0b0; stroke-width: 0.8; stroke-linecap: square"/>
     </g>
     <g id="text_5">
      <!-- 104 -->
      <g transform="translate(291.47696 83.205254) scale(0.1 -0.1)">
       <defs>
        <path id="DejaVuSans-31" d="M 794 531 
L 1825 531 
L 1825 4091 
L 703 3866 
L 703 4441 
L 1819 4666 
L 2450 4666 
L 2450 531 
L 3481 531 
L 3481 0 
L 794 0 
L 794 531 
z
" transform="scale(0.015625)"/>
        <path id="DejaVuSans-34" d="M 2419 4116 
L 825 1625 
L 2419 1625 
L 2419 4116 
z
M 2253 4666 
L 3047 4666 
L 3047 1625 
L 3713 1625 
L 3713 1100 
L 3047 1100 
L 3047 0 
L 2419 0 
L 2419 1100 
L 313 1100 
L 313 1709 
L 2253 4666 
z
" transform="scale(0.015625)"/>
       </defs>
       <use xlink:href="#DejaVuSans-31"/>
       <use xlink:href="#DejaVuSans-30" x="63.623047"/>
       <use xlink:href="#DejaVuSans-34" x="127.246094"/>
      </g>
     </g>
    </g>
    <g id="xtick_6">
     <g id="line2d_6">
      <path d="M 369 363.6 
L 188.973001 152.815466 
" clip-path="url(#pe03dc8c210)" style="fill: none; stroke: #b0b0b0; stroke-width: 0.8; stroke-linecap: square"/>
     </g>
     <g id="text_6">
      <!-- 130 -->
      <g transform="translate(170.336978 144.929158) scale(0.1 -0.1)">
       <defs>
        <path id="DejaVuSans-33" d="M 2597 2516 
Q 3050 2419 3304 2112 
Q 3559 1806 3559 1356 
Q 3559 666 3084 287 
Q 2609 -91 1734 -91 
Q 1441 -91 1130 -33 
Q 819 25 488 141 
L 488 750 
Q 750 597 1062 519 
Q 1375 441 1716 441 
Q 2309 441 2620 675 
Q 2931 909 2931 1356 
Q 2931 1769 2642 2001 
Q 2353 2234 1838 2234 
L 1294 2234 
L 1294 2753 
L 1863 2753 
Q 2328 2753 2575 2939 
Q 2822 3125 2822 3475 
Q 2822 3834 2567 4026 
Q 2313 4219 1838 4219 
Q 1578 4219 1281 4162 
Q 984 4106 628 3988 
L 628 4550 
Q 988 4650 1302 4700 
Q 1616 4750 1894 4750 
Q 2613 4750 3031 4423 
Q 3450 4097 3450 3541 
Q 3450 3153 3228 2886 
Q 3006 2619 2597 2516 
z
" transform="scale(0.015625)"/>
       </defs>
       <use xlink:href="#DejaVuSans-31"/>
       <use xlink:href="#DejaVuSans-33" x="63.623047"/>
       <use xlink:href="#DejaVuSans-30" x="127.246094"/>
      </g>
     </g>
    </g>
    <g id="xtick_7">
     <g id="line2d_7">
      <path d="M 369 363.6 
L 112.900594 257.520153 
" clip-path="url(#pe03dc8c210)" style="fill: none; stroke: #b0b0b0; stroke-width: 0.8; stroke-linecap: square"/>
     </g>
     <g id="text_7">
      <!-- 158 -->
      <g transform="translate(90.42253 254.921959) scale(0.1 -0.1)">
       <defs>
        <path id="DejaVuSans-38" d="M 2034 2216 
Q 1584 2216 1326 1975 
Q 1069 1734 1069 1313 
Q 1069 891 1326 650 
Q 1584 409 2034 409 
Q 2484 409 2743 651 
Q 3003 894 3003 1313 
Q 3003 1734 2745 1975 
Q 2488 2216 2034 2216 
z
M 1403 2484 
Q 997 2584 770 2862 
Q 544 3141 544 3541 
Q 544 4100 942 4425 
Q 1341 4750 2034 4750 
Q 2731 4750 3128 4425 
Q 3525 4100 3525 3541 
Q 3525 3141 3298 2862 
Q 3072 2584 2669 2484 
Q 3125 2378 3379 2068 
Q 3634 1759 3634 1313 
Q 3634 634 3220 271 
Q 2806 -91 2034 -91 
Q 1263 -91 848 271 
Q 434 634 434 1313 
Q 434 1759 690 2068 
Q 947 2378 1403 2484 
z
M 1172 3481 
Q 1172 3119 1398 2916 
Q 1625 2713 2034 2713 
Q 2441 2713 2670 2916 
Q 2900 3119 2900 3481 
Q 2900 3844 2670 4047 
Q 2441 4250 2034 4250 
Q 1625 4250 1398 4047 
Q 1172 3844 1172 3481 
z
" transform="scale(0.015625)"/>
       </defs>
       <use xlink:href="#DejaVuSans-31"/>
       <use xlink:href="#DejaVuSans-35" x="63.623047"/>
       <use xlink:href="#DejaVuSans-38" x="127.246094"/>
      </g>
     </g>
    </g>
    <g id="xtick_8">
     <g id="line2d_8">
      <path d="M 369 363.6 
L 91.8 363.6 
" clip-path="url(#pe03dc8c210)" style="fill: none; stroke: #b0b0b0; stroke-width: 0.8; stroke-linecap: square"/>
     </g>
     <g id="text_8">
      <!-- 180 -->
      <g transform="translate(68.25625 366.359375) scale(0.1 -0.1)">
       <use xlink:href="#DejaVuSans-31"/>
       <use xlink:href="#DejaVuSans-38" x="63.623047"/>
       <use xlink:href="#DejaVuSans-30" x="127.246094"/>
      </g>
     </g>
    </g>
    <g id="xtick_9">
     <g id="line2d_9">
      <path d="M 369 363.6 
L 112.900594 469.679847 
" clip-path="url(#pe03dc8c210)" style="fill: none; stroke: #b0b0b0; stroke-width: 0.8; stroke-linecap: square"/>
     </g>
     <g id="text_9">
      <!-- 202 -->
      <g transform="translate(90.42253 477.796791) scale(0.1 -0.1)">
       <use xlink:href="#DejaVuSans-32"/>
       <use xlink:href="#DejaVuSans-30" x="63.623047"/>
       <use xlink:href="#DejaVuSans-32" x="127.246094"/>
      </g>
     </g>
    </g>
    <g id="xtick_10">
     <g id="line2d_10">
      <path d="M 369 363.6 
L 188.973001 574.384534 
" clip-path="url(#pe03dc8c210)" style="fill: none; stroke: #b0b0b0; stroke-width: 0.8; stroke-linecap: square"/>
     </g>
     <g id="text_10">
      <!-- 229 -->
      <g transform="translate(170.336978 587.789592) scale(0.1 -0.1)">
       <defs>
        <path id="DejaVuSans-39" d="M 703 97 
L 703 672 
Q 941 559 1184 500 
Q 1428 441 1663 441 
Q 2288 441 2617 861 
Q 2947 1281 2994 2138 
Q 2813 1869 2534 1725 
Q 2256 1581 1919 1581 
Q 1219 1581 811 2004 
Q 403 2428 403 3163 
Q 403 3881 828 4315 
Q 1253 4750 1959 4750 
Q 2769 4750 3195 4129 
Q 3622 3509 3622 2328 
Q 3622 1225 3098 567 
Q 2575 -91 1691 -91 
Q 1453 -91 1209 -44 
Q 966 3 703 97 
z
M 1959 2075 
Q 2384 2075 2632 2365 
Q 2881 2656 2881 3163 
Q 2881 3666 2632 3958 
Q 2384 4250 1959 4250 
Q 1534 4250 1286 3958 
Q 1038 3666 1038 3163 
Q 1038 2656 1286 2365 
Q 1534 2075 1959 2075 
z
" transform="scale(0.015625)"/>
       </defs>
       <use xlink:href="#DejaVuSans-32"/>
       <use xlink:href="#DejaVuSans-32" x="63.623047"/>
       <use xlink:href="#DejaVuSans-39" x="127.246094"/>
      </g>
     </g>
    </g>
    <g id="xtick_11">
     <g id="line2d_11">
      <path d="M 369 363.6 
L 304.288945 633.140942 
" clip-path="url(#pe03dc8c210)" style="fill: none; stroke: #b0b0b0; stroke-width: 0.8; stroke-linecap: square"/>
     </g>
     <g id="text_11">
      <!-- 256 -->
      <g transform="translate(291.47696 649.513496) scale(0.1 -0.1)">
       <use xlink:href="#DejaVuSans-32"/>
       <use xlink:href="#DejaVuSans-35" x="63.623047"/>
       <use xlink:href="#DejaVuSans-36" x="127.246094"/>
      </g>
     </g>
    </g>
    <g id="xtick_12">
     <g id="line2d_12">
      <path d="M 369 363.6 
L 433.711055 633.140942 
" clip-path="url(#pe03dc8c210)" style="fill: none; stroke: #b0b0b0; stroke-width: 0.8; stroke-linecap: square"/>
     </g>
     <g id="text_12">
      <!-- 284 -->
      <g transform="translate(427.43554 649.513496) scale(0.1 -0.1)">
       <use xlink:href="#DejaVuSans-32"/>
       <use xlink:href="#DejaVuSans-38" x="63.623047"/>
       <use xlink:href="#DejaVuSans-34" x="127.246094"/>
      </g>
     </g>
    </g>
    <g id="xtick_13">
     <g id="line2d_13">
      <path d="M 369 363.6 
L 549.026999 574.384534 
" clip-path="url(#pe03dc8c210)" style="fill: none; stroke: #b0b0b0; stroke-width: 0.8; stroke-linecap: square"/>
     </g>
     <g id="text_13">
      <!-- 310 -->
      <g transform="translate(548.575522 587.789592) scale(0.1 -0.1)">
       <use xlink:href="#DejaVuSans-33"/>
       <use xlink:href="#DejaVuSans-31" x="63.623047"/>
       <use xlink:href="#DejaVuSans-30" x="127.246094"/>
      </g>
     </g>
    </g>
    <g id="xtick_14">
     <g id="line2d_14">
      <path d="M 369 363.6 
L 625.099406 469.679847 
" clip-path="url(#pe03dc8c210)" style="fill: none; stroke: #b0b0b0; stroke-width: 0.8; stroke-linecap: square"/>
     </g>
     <g id="text_14">
      <!-- 338 -->
      <g transform="translate(628.48997 477.796791) scale(0.1 -0.1)">
       <use xlink:href="#DejaVuSans-33"/>
       <use xlink:href="#DejaVuSans-33" x="63.623047"/>
       <use xlink:href="#DejaVuSans-38" x="127.246094"/>
      </g>
     </g>
    </g>
    <g id="xtick_15">
     <g id="line2d_15">
      <path d="M 369 363.6 
L 646.2 363.6 
" clip-path="url(#pe03dc8c210)" style="fill: none; stroke: #b0b0b0; stroke-width: 0.8; stroke-linecap: square"/>
     </g>
     <g id="text_15">
      <!-- 0 -->
      <g transform="translate(657.01875 366.359375) scale(0.1 -0.1)">
       <use xlink:href="#DejaVuSans-30"/>
      </g>
     </g>
    </g>
   </g>
   <g id="matplotlib.axis_2">
    <g id="ytick_1">
     <g id="line2d_16">
      <path d="M 409.748862 363.6 
C 409.748862 358.248909 408.694813 352.94985 406.647039 348.006086 
C 404.599265 343.062322 401.597589 338.569997 397.813796 334.786204 
C 394.030003 331.002411 389.537678 328.000735 384.593914 325.952961 
C 379.65015 323.905187 374.351091 322.851138 369 322.851138 
C 363.648909 322.851138 358.34985 323.905187 353.406086 325.952961 
C 348.462322 328.000735 343.969997 331.002411 340.186204 334.786204 
C 336.402411 338.569997 333.400735 343.062322 331.352961 348.006086 
C 329.305187 352.94985 328.251138 358.248909 328.251138 363.6 
C 328.251138 368.951091 329.305187 374.25015 331.352961 379.193914 
C 333.400735 384.137678 336.402411 388.630003 340.186204 392.413796 
C 343.969997 396.197589 348.462322 399.199265 353.406086 401.247039 
C 358.34985 403.294813 363.648909 404.348862 369 404.348862 
C 374.351091 404.348862 379.65015 403.294813 384.593914 401.247039 
C 389.537678 399.199265 394.030003 396.197589 397.813796 392.413796 
C 401.597589 388.630003 404.599265 384.137678 406.647039 379.193914 
C 408.694813 374.25015 409.748862 368.951091 409.748862 363.6 
" clip-path="url(#pe03dc8c210)" style="fill: none; stroke: #b0b0b0; stroke-width: 0.8; stroke-linecap: square"/>
     </g>
     <g id="text_16">
      <!-- 10 -->
      <g style="fill: #808080" transform="translate(406.647039 377.738133) scale(0.07 -0.07)">
       <use xlink:href="#DejaVuSans-31"/>
       <use xlink:href="#DejaVuSans-30" x="63.623047"/>
      </g>
     </g>
    </g>
    <g id="ytick_2">
     <g id="line2d_17">
      <path d="M 450.497723 363.6 
C 450.497723 352.897817 448.389627 342.299699 444.294078 332.412172 
C 440.19853 322.524644 434.195179 313.539993 426.627593 305.972407 
C 419.060007 298.404821 410.075356 292.40147 400.187828 288.305922 
C 390.300301 284.210373 379.702183 282.102277 369 282.102277 
C 358.297817 282.102277 347.699699 284.210373 337.812172 288.305922 
C 327.924644 292.40147 318.939993 298.404821 311.372407 305.972407 
C 303.804821 313.539993 297.80147 322.524644 293.705922 332.412172 
C 289.610373 342.299699 287.502277 352.897817 287.502277 363.6 
C 287.502277 374.302183 289.610373 384.900301 293.705922 394.787828 
C 297.80147 404.675356 303.804821 413.660007 311.372407 421.227593 
C 318.939993 428.795179 327.924644 434.79853 337.812172 438.894078 
C 347.699699 442.989627 358.297817 445.097723 369 445.097723 
C 379.702183 445.097723 390.300301 442.989627 400.187828 438.894078 
C 410.075356 434.79853 419.060007 428.795179 426.627593 421.227593 
C 434.195179 413.660007 440.19853 404.675356 444.294078 394.787828 
C 448.389627 384.900301 450.497723 374.302183 450.497723 363.6 
" clip-path="url(#pe03dc8c210)" style="fill: none; stroke: #b0b0b0; stroke-width: 0.8; stroke-linecap: square"/>
     </g>
     <g id="text_17">
      <!-- 20 -->
      <g style="fill: #808080" transform="translate(444.294078 393.332047) scale(0.07 -0.07)">
       <use xlink:href="#DejaVuSans-32"/>
       <use xlink:href="#DejaVuSans-30" x="63.623047"/>
      </g>
     </g>
    </g>
    <g id="ytick_3">
     <g id="line2d_18">
      <path d="M 491.246585 363.6 
C 491.246585 347.546726 488.08444 331.649549 481.941118 316.818257 
C 475.797796 301.986966 466.792768 288.50999 455.441389 277.158611 
C 444.09001 265.807232 430.613034 256.802204 415.781743 250.658882 
C 400.950451 244.51556 385.053274 241.353415 369 241.353415 
C 352.946726 241.353415 337.049549 244.51556 322.218257 250.658882 
C 307.386966 256.802204 293.90999 265.807232 282.558611 277.158611 
C 271.207232 288.50999 262.202204 301.986966 256.058882 316.818257 
C 249.91556 331.649549 246.753415 347.546726 246.753415 363.6 
C 246.753415 379.653274 249.91556 395.550451 256.058882 410.381743 
C 262.202204 425.213034 271.207232 438.69001 282.558611 450.041389 
C 293.90999 461.392768 307.386966 470.397796 322.218257 476.541118 
C 337.049549 482.68444 352.946726 485.846585 369 485.846585 
C 385.053274 485.846585 400.950451 482.68444 415.781743 476.541118 
C 430.613034 470.397796 444.09001 461.392768 455.441389 450.041389 
C 466.792768 438.69001 475.797796 425.213034 481.941118 410.381743 
C 488.08444 395.550451 491.246585 379.653274 491.246585 363.6 
" clip-path="url(#pe03dc8c210)" style="fill: none; stroke: #b0b0b0; stroke-width: 0.8; stroke-linecap: square"/>
     </g>
     <g id="text_18">
      <!-- 30 -->
      <g style="fill: #808080" transform="translate(481.941118 408.925961) scale(0.07 -0.07)">
       <use xlink:href="#DejaVuSans-33"/>
       <use xlink:href="#DejaVuSans-30" x="63.623047"/>
      </g>
     </g>
    </g>
    <g id="ytick_4">
     <g id="line2d_19">
      <path d="M 531.995447 363.6 
C 531.995447 342.195634 527.779253 320.999399 519.588157 301.224343 
C 511.397061 281.449287 499.390358 263.479987 484.255186 248.344814 
C 469.120013 233.209642 451.150713 221.202939 431.375657 213.011843 
C 411.600601 204.820747 390.404366 200.604553 369 200.604553 
C 347.595634 200.604553 326.399399 204.820747 306.624343 213.011843 
C 286.849287 221.202939 268.879987 233.209642 253.744814 248.344814 
C 238.609642 263.479987 226.602939 281.449287 218.411843 301.224343 
C 210.220747 320.999399 206.004553 342.195634 206.004553 363.6 
C 206.004553 385.004366 210.220747 406.200601 218.411843 425.975657 
C 226.602939 445.750713 238.609642 463.720013 253.744814 478.855186 
C 268.879987 493.990358 286.849287 505.997061 306.624343 514.188157 
C 326.399399 522.379253 347.595634 526.595447 369 526.595447 
C 390.404366 526.595447 411.600601 522.379253 431.375657 514.188157 
C 451.150713 505.997061 469.120013 493.990358 484.255186 478.855186 
C 499.390358 463.720013 511.397061 445.750713 519.588157 425.975657 
C 527.779253 406.200601 531.995447 385.004366 531.995447 363.6 
" clip-path="url(#pe03dc8c210)" style="fill: none; stroke: #b0b0b0; stroke-width: 0.8; stroke-linecap: square"/>
     </g>
     <g id="text_19">
      <!-- 40 -->
      <g style="fill: #808080" transform="translate(519.588157 424.519876) scale(0.07 -0.07)">
       <use xlink:href="#DejaVuSans-34"/>
       <use xlink:href="#DejaVuSans-30" x="63.623047"/>
      </g>
     </g>
    </g>
    <g id="ytick_5">
     <g id="line2d_20">
      <path d="M 572.744308 363.6 
C 572.744308 336.844543 567.474067 310.349248 557.235196 285.630429 
C 546.996326 260.911609 531.987947 238.449983 513.068982 219.531018 
C 494.150017 200.612053 471.688391 185.603674 446.969571 175.364804 
C 422.250752 165.125933 395.755457 159.855692 369 159.855692 
C 342.244543 159.855692 315.749248 165.125933 291.030429 175.364804 
C 266.311609 185.603674 243.849983 200.612053 224.931018 219.531018 
C 206.012053 238.449983 191.003674 260.911609 180.764804 285.630429 
C 170.525933 310.349248 165.255692 336.844543 165.255692 363.6 
C 165.255692 390.355457 170.525933 416.850752 180.764804 441.569571 
C 191.003674 466.288391 206.012053 488.750017 224.931018 507.668982 
C 243.849983 526.587947 266.311609 541.596326 291.030429 551.835196 
C 315.749248 562.074067 342.244543 567.344308 369 567.344308 
C 395.755457 567.344308 422.250752 562.074067 446.969571 551.835196 
C 471.688391 541.596326 494.150017 526.587947 513.068982 507.668982 
C 531.987947 488.750017 546.996326 466.288391 557.235196 441.569571 
C 567.474067 416.850752 572.744308 390.355457 572.744308 363.6 
" clip-path="url(#pe03dc8c210)" style="fill: none; stroke: #b0b0b0; stroke-width: 0.8; stroke-linecap: square"/>
     </g>
     <g id="text_20">
      <!-- 50 -->
      <g style="fill: #808080" transform="translate(557.235196 440.11379) scale(0.07 -0.07)">
       <use xlink:href="#DejaVuSans-35"/>
       <use xlink:href="#DejaVuSans-30" x="63.623047"/>
      </g>
     </g>
    </g>
    <g id="ytick_6">
     <g id="line2d_21">
      <path d="M 613.49317 363.6 
C 613.49317 331.493451 607.16888 299.699098 594.882235 270.036515 
C 582.595591 240.373931 564.585537 213.41998 541.882778 190.717222 
C 519.18002 168.014463 492.226069 150.004409 462.563485 137.717765 
C 432.900902 125.43112 401.106549 119.10683 369 119.10683 
C 336.893451 119.10683 305.099098 125.43112 275.436515 137.717765 
C 245.773931 150.004409 218.81998 168.014463 196.117222 190.717222 
C 173.414463 213.41998 155.404409 240.373931 143.117765 270.036515 
C 130.83112 299.699098 124.50683 331.493451 124.50683 363.6 
C 124.50683 395.706549 130.83112 427.500902 143.117765 457.163485 
C 155.404409 486.826069 173.414463 513.78002 196.117222 536.482778 
C 218.81998 559.185537 245.773931 577.195591 275.436515 589.482235 
C 305.099098 601.76888 336.893451 608.09317 369 608.09317 
C 401.106549 608.09317 432.900902 601.76888 462.563485 589.482235 
C 492.226069 577.195591 519.18002 559.185537 541.882778 536.482778 
C 564.585537 513.78002 582.595591 486.826069 594.882235 457.163485 
C 607.16888 427.500902 613.49317 395.706549 613.49317 363.6 
" clip-path="url(#pe03dc8c210)" style="fill: none; stroke: #b0b0b0; stroke-width: 0.8; stroke-linecap: square"/>
     </g>
     <g id="text_21">
      <!-- 60 -->
      <g style="fill: #808080" transform="translate(594.882235 455.707704) scale(0.07 -0.07)">
       <use xlink:href="#DejaVuSans-36"/>
       <use xlink:href="#DejaVuSans-30" x="63.623047"/>
      </g>
     </g>
    </g>
   </g>
   <g id="line2d_22">
    <path d="M 539.744101 363.6 
L 525.78926 298.655762 
L 477.457995 236.612003 
L 404.24988 216.773682 
L 333.672868 216.451905 
L 261.837503 238.128837 
L 210.049274 297.760454 
L 169.770124 363.6 
L 210.049274 429.439546 
L 261.837503 489.071163 
L 333.672868 510.748095 
L 404.24988 510.426318 
L 477.457995 490.587997 
L 525.78926 428.544238 
L 539.744101 363.6 
" clip-path="url(#pe03dc8c210)" style="fill: none; stroke: #1f77b4; stroke-linecap: square"/>
   </g>
   <g id="line2d_23">
    <path d="M 597.938779 363.6 
L 578.136117 276.972984 
L 518.170407 188.943894 
L 424.782308 131.249966 
L 314.290679 135.719276 
L 210.748548 178.311356 
L 148.342638 272.200728 
L 97.809599 363.6 
L 148.342638 454.999272 
L 210.748548 548.888644 
L 314.290679 591.480724 
L 424.782308 595.950034 
L 518.170407 538.256106 
L 578.136117 450.227016 
L 597.938779 363.6 
" clip-path="url(#pe03dc8c210)" style="fill: none; stroke: #ff7f0e; stroke-linecap: square"/>
   </g>
   <g id="line2d_24">
    <path d="M 573.029953 363.6 
L 553.928636 287.000051 
L 498.221144 212.30148 
L 413.784235 177.060236 
L 325.431797 182.125374 
L 239.900707 212.444149 
L 185.232423 287.480977 
L 119.35856 363.6 
L 185.232423 439.719023 
L 239.900707 514.755851 
L 325.431797 545.074626 
L 413.784235 550.139764 
L 498.221144 514.89852 
L 553.928636 440.199949 
L 573.029953 363.6 
" clip-path="url(#pe03dc8c210)" style="fill: none; stroke: #2ca02c; stroke-linecap: square"/>
   </g>
   <g id="line2d_25">
    <path d="M 553.209549 363.6 
L 540.270446 292.657459 
L 487.997362 224.27199 
L 409.37314 195.433767 
L 330.532678 203.372074 
L 255.799438 231.059171 
L 201.036801 294.027365 
L 144.332954 363.6 
L 201.036801 433.172635 
L 255.799438 496.140829 
L 330.532678 523.827926 
L 409.37314 531.766233 
L 487.997362 502.92801 
L 540.270446 434.542541 
L 553.209549 363.6 
" clip-path="url(#pe03dc8c210)" style="fill: none; stroke: #d62728; stroke-linecap: square"/>
   </g>
   <g id="patch_7">
    <path d="M 646.2 363.6 
C 646.2 327.19843 639.029684 291.150818 625.099406 257.520153 
C 611.169128 223.889487 590.749797 193.329798 565.01 167.59 
C 539.270202 141.850203 508.710513 121.430872 475.079847 107.500594 
C 441.449182 93.570316 405.40157 86.4 369 86.4 
C 332.59843 86.4 296.550818 93.570316 262.920153 107.500594 
C 229.289487 121.430872 198.729798 141.850203 172.99 167.59 
C 147.250203 193.329798 126.830872 223.889487 112.900594 257.520153 
C 98.970316 291.150818 91.8 327.19843 91.8 363.6 
C 91.8 400.00157 98.970316 436.049182 112.900594 469.679847 
C 126.830872 503.310513 147.250203 533.870202 172.99 559.61 
C 198.729798 585.349797 229.289487 605.769128 262.920153 619.699406 
C 296.550818 633.629684 332.59843 640.8 369 640.8 
C 405.40157 640.8 441.449182 633.629684 475.079847 619.699406 
C 508.710513 605.769128 539.270202 585.349797 565.01 559.61 
C 590.749797 533.870202 611.169128 503.310513 625.099406 469.679847 
C 639.029684 436.049182 646.2 400.00157 646.2 363.6 
" style="fill: none; stroke: #000000; stroke-width: 0.8; stroke-linejoin: miter; stroke-linecap: square"/>
   </g>
   <g id="text_22">
    <!-- Mean Noise Profile -->
    <g transform="translate(313.540313 69.606817) scale(0.12 -0.12)">
     <defs>
      <path id="DejaVuSans-4d" d="M 628 4666 
L 1569 4666 
L 2759 1491 
L 3956 4666 
L 4897 4666 
L 4897 0 
L 4281 0 
L 4281 4097 
L 3078 897 
L 2444 897 
L 1241 4097 
L 1241 0 
L 628 0 
L 628 4666 
z
" transform="scale(0.015625)"/>
      <path id="DejaVuSans-65" d="M 3597 1894 
L 3597 1613 
L 953 1613 
Q 991 1019 1311 708 
Q 1631 397 2203 397 
Q 2534 397 2845 478 
Q 3156 559 3463 722 
L 3463 178 
Q 3153 47 2828 -22 
Q 2503 -91 2169 -91 
Q 1331 -91 842 396 
Q 353 884 353 1716 
Q 353 2575 817 3079 
Q 1281 3584 2069 3584 
Q 2775 3584 3186 3129 
Q 3597 2675 3597 1894 
z
M 3022 2063 
Q 3016 2534 2758 2815 
Q 2500 3097 2075 3097 
Q 1594 3097 1305 2825 
Q 1016 2553 972 2059 
L 3022 2063 
z
" transform="scale(0.015625)"/>
      <path id="DejaVuSans-61" d="M 2194 1759 
Q 1497 1759 1228 1600 
Q 959 1441 959 1056 
Q 959 750 1161 570 
Q 1363 391 1709 391 
Q 2188 391 2477 730 
Q 2766 1069 2766 1631 
L 2766 1759 
L 2194 1759 
z
M 3341 1997 
L 3341 0 
L 2766 0 
L 2766 531 
Q 2569 213 2275 61 
Q 1981 -91 1556 -91 
Q 1019 -91 701 211 
Q 384 513 384 1019 
Q 384 1609 779 1909 
Q 1175 2209 1959 2209 
L 2766 2209 
L 2766 2266 
Q 2766 2663 2505 2880 
Q 2244 3097 1772 3097 
Q 1472 3097 1187 3025 
Q 903 2953 641 2809 
L 641 3341 
Q 956 3463 1253 3523 
Q 1550 3584 1831 3584 
Q 2591 3584 2966 3190 
Q 3341 2797 3341 1997 
z
" transform="scale(0.015625)"/>
      <path id="DejaVuSans-6e" d="M 3513 2113 
L 3513 0 
L 2938 0 
L 2938 2094 
Q 2938 2591 2744 2837 
Q 2550 3084 2163 3084 
Q 1697 3084 1428 2787 
Q 1159 2491 1159 1978 
L 1159 0 
L 581 0 
L 581 3500 
L 1159 3500 
L 1159 2956 
Q 1366 3272 1645 3428 
Q 1925 3584 2291 3584 
Q 2894 3584 3203 3211 
Q 3513 2838 3513 2113 
z
" transform="scale(0.015625)"/>
      <path id="DejaVuSans-20" transform="scale(0.015625)"/>
      <path id="DejaVuSans-4e" d="M 628 4666 
L 1478 4666 
L 3547 763 
L 3547 4666 
L 4159 4666 
L 4159 0 
L 3309 0 
L 1241 3903 
L 1241 0 
L 628 0 
L 628 4666 
z
" transform="scale(0.015625)"/>
      <path id="DejaVuSans-6f" d="M 1959 3097 
Q 1497 3097 1228 2736 
Q 959 2375 959 1747 
Q 959 1119 1226 758 
Q 1494 397 1959 397 
Q 2419 397 2687 759 
Q 2956 1122 2956 1747 
Q 2956 2369 2687 2733 
Q 2419 3097 1959 3097 
z
M 1959 3584 
Q 2709 3584 3137 3096 
Q 3566 2609 3566 1747 
Q 3566 888 3137 398 
Q 2709 -91 1959 -91 
Q 1206 -91 779 398 
Q 353 888 353 1747 
Q 353 2609 779 3096 
Q 1206 3584 1959 3584 
z
" transform="scale(0.015625)"/>
      <path id="DejaVuSans-69" d="M 603 3500 
L 1178 3500 
L 1178 0 
L 603 0 
L 603 3500 
z
M 603 4863 
L 1178 4863 
L 1178 4134 
L 603 4134 
L 603 4863 
z
" transform="scale(0.015625)"/>
      <path id="DejaVuSans-73" d="M 2834 3397 
L 2834 2853 
Q 2591 2978 2328 3040 
Q 2066 3103 1784 3103 
Q 1356 3103 1142 2972 
Q 928 2841 928 2578 
Q 928 2378 1081 2264 
Q 1234 2150 1697 2047 
L 1894 2003 
Q 2506 1872 2764 1633 
Q 3022 1394 3022 966 
Q 3022 478 2636 193 
Q 2250 -91 1575 -91 
Q 1294 -91 989 -36 
Q 684 19 347 128 
L 347 722 
Q 666 556 975 473 
Q 1284 391 1588 391 
Q 1994 391 2212 530 
Q 2431 669 2431 922 
Q 2431 1156 2273 1281 
Q 2116 1406 1581 1522 
L 1381 1569 
Q 847 1681 609 1914 
Q 372 2147 372 2553 
Q 372 3047 722 3315 
Q 1072 3584 1716 3584 
Q 2034 3584 2315 3537 
Q 2597 3491 2834 3397 
z
" transform="scale(0.015625)"/>
      <path id="DejaVuSans-50" d="M 1259 4147 
L 1259 2394 
L 2053 2394 
Q 2494 2394 2734 2622 
Q 2975 2850 2975 3272 
Q 2975 3691 2734 3919 
Q 2494 4147 2053 4147 
L 1259 4147 
z
M 628 4666 
L 2053 4666 
Q 2838 4666 3239 4311 
Q 3641 3956 3641 3272 
Q 3641 2581 3239 2228 
Q 2838 1875 2053 1875 
L 1259 1875 
L 1259 0 
L 628 0 
L 628 4666 
z
" transform="scale(0.015625)"/>
      <path id="DejaVuSans-72" d="M 2631 2963 
Q 2534 3019 2420 3045 
Q 2306 3072 2169 3072 
Q 1681 3072 1420 2755 
Q 1159 2438 1159 1844 
L 1159 0 
L 581 0 
L 581 3500 
L 1159 3500 
L 1159 2956 
Q 1341 3275 1631 3429 
Q 1922 3584 2338 3584 
Q 2397 3584 2469 3576 
Q 2541 3569 2628 3553 
L 2631 2963 
z
" transform="scale(0.015625)"/>
      <path id="DejaVuSans-66" d="M 2375 4863 
L 2375 4384 
L 1825 4384 
Q 1516 4384 1395 4259 
Q 1275 4134 1275 3809 
L 1275 3500 
L 2222 3500 
L 2222 3053 
L 1275 3053 
L 1275 0 
L 697 0 
L 697 3053 
L 147 3053 
L 147 3500 
L 697 3500 
L 697 3744 
Q 697 4328 969 4595 
Q 1241 4863 1831 4863 
L 2375 4863 
z
" transform="scale(0.015625)"/>
      <path id="DejaVuSans-6c" d="M 603 4863 
L 1178 4863 
L 1178 0 
L 603 0 
L 603 4863 
z
" transform="scale(0.015625)"/>
     </defs>
     <use xlink:href="#DejaVuSans-4d"/>
     <use xlink:href="#DejaVuSans-65" x="86.279297"/>
     <use xlink:href="#DejaVuSans-61" x="147.802734"/>
     <use xlink:href="#DejaVuSans-6e" x="209.082031"/>
     <use xlink:href="#DejaVuSans-20" x="272.460938"/>
     <use xlink:href="#DejaVuSans-4e" x="304.248047"/>
     <use xlink:href="#DejaVuSans-6f" x="379.052734"/>
     <use xlink:href="#DejaVuSans-69" x="440.234375"/>
     <use xlink:href="#DejaVuSans-73" x="468.017578"/>
     <use xlink:href="#DejaVuSans-65" x="520.117188"/>
     <use xlink:href="#DejaVuSans-20" x="581.640625"/>
     <use xlink:href="#DejaVuSans-50" x="613.427734"/>
     <use xlink:href="#DejaVuSans-72" x="671.980469"/>
     <use xlink:href="#DejaVuSans-6f" x="710.84375"/>
     <use xlink:href="#DejaVuSans-66" x="772.025391"/>
     <use xlink:href="#DejaVuSans-69" x="807.230469"/>
     <use xlink:href="#DejaVuSans-6c" x="835.013672"/>
     <use xlink:href="#DejaVuSans-65" x="862.796875"/>
    </g>
   </g>
   <g id="legend_1">
    <g id="patch_8">
     <path d="M 592.76 141.84 
L 650.21 141.84 
Q 652.21 141.84 652.21 139.84 
L 652.21 83.449375 
Q 652.21 81.449375 650.21 81.449375 
L 592.76 81.449375 
Q 590.76 81.449375 590.76 83.449375 
L 590.76 139.84 
Q 590.76 141.84 592.76 141.84 
z
" style="fill: #ffffff; opacity: 0.8; stroke: #cccccc; stroke-linejoin: miter"/>
    </g>
    <g id="text_23">
     <!-- RPM -->
     <g transform="translate(610.681875 93.047812) scale(0.1 -0.1)">
      <defs>
       <path id="DejaVuSans-52" d="M 2841 2188 
Q 3044 2119 3236 1894 
Q 3428 1669 3622 1275 
L 4263 0 
L 3584 0 
L 2988 1197 
Q 2756 1666 2539 1819 
Q 2322 1972 1947 1972 
L 1259 1972 
L 1259 0 
L 628 0 
L 628 4666 
L 2053 4666 
Q 2853 4666 3247 4331 
Q 3641 3997 3641 3322 
Q 3641 2881 3436 2590 
Q 3231 2300 2841 2188 
z
M 1259 4147 
L 1259 2491 
L 2053 2491 
Q 2509 2491 2742 2702 
Q 2975 2913 2975 3322 
Q 2975 3731 2742 3939 
Q 2509 4147 2053 4147 
L 1259 4147 
z
" transform="scale(0.015625)"/>
      </defs>
      <use xlink:href="#DejaVuSans-52"/>
      <use xlink:href="#DejaVuSans-50" x="69.482422"/>
      <use xlink:href="#DejaVuSans-4d" x="129.785156"/>
     </g>
    </g>
    <g id="line2d_26">
     <path d="M 594.76 100.225937 
L 604.76 100.225937 
L 614.76 100.225937 
" style="fill: none; stroke: #1f77b4; stroke-linecap: square"/>
    </g>
    <g id="text_24">
     <!-- 1350 -->
     <g transform="translate(622.76 103.725937) scale(0.1 -0.1)">
      <use xlink:href="#DejaVuSans-31"/>
      <use xlink:href="#DejaVuSans-33" x="63.623047"/>
      <use xlink:href="#DejaVuSans-35" x="127.246094"/>
      <use xlink:href="#DejaVuSans-30" x="190.869141"/>
     </g>
    </g>
    <g id="line2d_27">
     <path d="M 594.76 110.904063 
L 604.76 110.904063 
L 614.76 110.904063 
" style="fill: none; stroke: #ff7f0e; stroke-linecap: square"/>
    </g>
    <g id="text_25">
     <!-- 1800 -->
     <g transform="translate(622.76 114.404063) scale(0.1 -0.1)">
      <use xlink:href="#DejaVuSans-31"/>
      <use xlink:href="#DejaVuSans-38" x="63.623047"/>
      <use xlink:href="#DejaVuSans-30" x="127.246094"/>
      <use xlink:href="#DejaVuSans-30" x="190.869141"/>
     </g>
    </g>
    <g id="line2d_28">
     <path d="M 594.76 121.582188 
L 604.76 121.582188 
L 614.76 121.582188 
" style="fill: none; stroke: #2ca02c; stroke-linecap: square"/>
    </g>
    <g id="text_26">
     <!-- 1650 -->
     <g transform="translate(622.76 125.082188) scale(0.1 -0.1)">
      <use xlink:href="#DejaVuSans-31"/>
      <use xlink:href="#DejaVuSans-36" x="63.623047"/>
      <use xlink:href="#DejaVuSans-35" x="127.246094"/>
      <use xlink:href="#DejaVuSans-30" x="190.869141"/>
     </g>
    </g>
    <g id="line2d_29">
     <path d="M 594.76 132.260312 
L 604.76 132.260312 
L 614.76 132.260312 
" style="fill: none; stroke: #d62728; stroke-linecap: square"/>
    </g>
    <g id="text_27">
     <!-- 1500 -->
     <g transform="translate(622.76 135.760312) scale(0.1 -0.1)">
      <use xlink:href="#DejaVuSans-31"/>
      <use xlink:href="#DejaVuSans-35" x="63.623047"/>
      <use xlink:href="#DejaVuSans-30" x="127.246094"/>
      <use xlink:href="#DejaVuSans-30" x="190.869141"/>
     </g>
    </g>
   </g>
  </g>
 </g>
 <defs>
  <clipPath id="pe03dc8c210">
   <path d="M 646.2 363.6 
C 646.2 327.19843 639.029684 291.150818 625.099406 257.520153 
C 611.169128 223.889487 590.749797 193.329798 565.01 167.59 
C 539.270202 141.850203 508.710513 121.430872 475.079847 107.500594 
C 441.449182 93.570316 405.40157 86.4 369 86.4 
C 332.59843 86.4 296.550818 93.570316 262.920153 107.500594 
C 229.289487 121.430872 198.729798 141.850203 172.99 167.59 
C 147.250203 193.329798 126.830872 223.889487 112.900594 257.520153 
C 98.970316 291.150818 91.8 327.19843 91.8 363.6 
C 91.8 400.00157 98.970316 436.049182 112.900594 469.679847 
C 126.830872 503.310513 147.250203 533.870202 172.99 559.61 
C 198.729798 585.349797 229.289487 605.769128 262.920153 619.699406 
C 296.550818 633.629684 332.59843 640.8 369 640.8 
C 405.40157 640.8 441.449182 633.629684 475.079847 619.699406 
C 508.710513 605.769128 539.270202 585.349797 565.01 559.61 
C 590.749797 533.870202 611.169128 503.310513 625.099406 469.679847 
C 639.029684 436.049182 646.2 400.00157 646.2 363.6 
M 369 363.6 
C 369 363.6 369 363.6 369 363.6 
C 369 363.6 369 363.6 369 363.6 
C 369 363.6 369 363.6 369 363.6 
C 369 363.6 369 363.6 369 363.6 
C 369 363.6 369 363.6 369 363.6 
C 369 363.6 369 363.6 369 363.6 
C 369 363.6 369 363.6 369 363.6 
C 369 363.6 369 363.6 369 363.6 
C 369 363.6 369 363.6 369 363.6 
C 369 363.6 369 363.6 369 363.6 
C 369 363.6 369 363.6 369 363.6 
C 369 363.6 369 363.6 369 363.6 
C 369 363.6 369 363.6 369 363.6 
C 369 363.6 369 363.6 369 363.6 
C 369 363.6 369 363.6 369 363.6 
C 369 363.6 369 363.6 369 363.6 
M 646.2 363.6 
z
"/>
  </clipPath>
 </defs>
</svg>
