<?xml version="1.0" encoding="utf-8" standalone="no"?>
<!DOCTYPE svg PUBLIC "-//W3C//DTD SVG 1.1//EN"
  "http://www.w3.org/Graphics/SVG/1.1/DTD/svg11.dtd">
<svg xmlns:xlink="http://www.w3.org/1999/xlink" width="720pt" height="720pt" viewBox="0 0 720 720" xmlns="http://www.w3.org/2000/svg" version="1.1">
 <metadata>
  <rdf:RDF xmlns:dc="http://purl.org/dc/elements/1.1/" xmlns:cc="http://creativecommons.org/ns#" xmlns:rdf="http://www.w3.org/1999/02/22-rdf-syntax-ns#">
   <cc:Work>
    <dc:type rdf:resource="http://purl.org/dc/dcmitype/StillImage"/>
    <dc:date>2023-02-21T16:54:21.047725</dc:date>
    <dc:format>image/svg+xml</dc:format>
    <dc:creator>
     <cc:Agent>
      <dc:title>Matplotlib v3.6.2, https://matplotlib.org/</dc:title>
     </cc:Agent>
    </dc:creator>
   </cc:Work>
  </rdf:RDF>
 </metadata>
 <defs>
  <style type="text/css">*{stroke-linejoin: round; stroke-linecap: butt}</style>
 </defs>
 <g id="figure_1">
  <g id="patch_1">
   <path d="M 0 720 
L 720 720 
L 720 0 
L 0 0 
z
" style="fill: #ffffff"/>
  </g>
  <g id="axes_1">
   <g id="patch_2">
    <path d="M 646.2 363.6 
C 646.2 327.19843 639.029684 291.150818 625.099406 257.520153 
C 611.169128 223.889487 590.749797 193.329798 565.01 167.59 
C 539.270202 141.850203 508.710513 121.430872 475.079847 107.500594 
C 441.449182 93.570316 405.40157 86.4 369 86.4 
C 332.59843 86.4 296.550818 93.570316 262.920153 107.500594 
C 229.289487 121.430872 198.729798 141.850203 172.99 167.59 
C 147.250203 193.329798 126.830872 223.889487 112.900594 257.520153 
C 98.970316 291.150818 91.8 327.19843 91.8 363.6 
C 91.8 400.00157 98.970316 436.049182 112.900594 469.679847 
C 126.830872 503.310513 147.250203 533.870202 172.99 559.61 
C 198.729798 585.349797 229.289487 605.769128 262.920153 619.699406 
C 296.550818 633.629684 332.59843 640.8 369 640.8 
C 405.40157 640.8 441.449182 633.629684 475.079847 619.699406 
C 508.710513 605.769128 539.270202 585.349797 565.01 559.61 
C 590.749797 533.870202 611.169128 503.310513 625.099406 469.679847 
C 639.029684 436.049182 646.2 400.00157 646.2 363.6 
M 369 363.6 
C 369 363.6 369 363.6 369 363.6 
C 369 363.6 369 363.6 369 363.6 
C 369 363.6 369 363.6 369 363.6 
C 369 363.6 369 363.6 369 363.6 
C 369 363.6 369 363.6 369 363.6 
C 369 363.6 369 363.6 369 363.6 
C 369 363.6 369 363.6 369 363.6 
C 369 363.6 369 363.6 369 363.6 
C 369 363.6 369 363.6 369 363.6 
C 369 363.6 369 363.6 369 363.6 
C 369 363.6 369 363.6 369 363.6 
C 369 363.6 369 363.6 369 363.6 
C 369 363.6 369 363.6 369 363.6 
C 369 363.6 369 363.6 369 363.6 
C 369 363.6 369 363.6 369 363.6 
C 369 363.6 369 363.6 369 363.6 
M 646.2 363.6 
z
" style="fill: #ffffff"/>
   </g>
   <g id="patch_3">
    <path d="M 603.031371 363.6 
L 579.046738 276.595793 
L 510.533366 197.885719 
L 417.895712 159.934703 
L 320.376446 161.06832 
L 207.155156 174.104035 
L 139.783841 268.655558 
L 95.081588 363.6 
L 139.783841 458.544442 
L 207.155156 553.095965 
L 320.376446 566.13168 
L 417.895712 567.265297 
L 510.533366 529.314281 
L 579.046738 450.604207 
z
" clip-path="url(#p767b467189)" style="fill: #1f77b4; opacity: 0.1"/>
   </g>
   <g id="matplotlib.axis_1">
    <g id="xtick_1">
     <g id="line2d_1">
      <path d="M 369 363.6 
L 646.2 363.6 
" clip-path="url(#p767b467189)" style="fill: none; stroke: #b0b0b0; stroke-width: 0.8; stroke-linecap: square"/>
     </g>
     <g id="text_1">
      <!-- 0 -->
      <g transform="translate(657.01875 366.359375) scale(0.1 -0.1)">
       <defs>
        <path id="DejaVuSans-30" d="M 2034 4250 
Q 1547 4250 1301 3770 
Q 1056 3291 1056 2328 
Q 1056 1369 1301 889 
Q 1547 409 2034 409 
Q 2525 409 2770 889 
Q 3016 1369 3016 2328 
Q 3016 3291 2770 3770 
Q 2525 4250 2034 4250 
z
M 2034 4750 
Q 2819 4750 3233 4129 
Q 3647 3509 3647 2328 
Q 3647 1150 3233 529 
Q 2819 -91 2034 -91 
Q 1250 -91 836 529 
Q 422 1150 422 2328 
Q 422 3509 836 4129 
Q 1250 4750 2034 4750 
z
" transform="scale(0.015625)"/>
       </defs>
       <use xlink:href="#DejaVuSans-30"/>
      </g>
     </g>
    </g>
    <g id="xtick_2">
     <g id="line2d_2">
      <path d="M 369 363.6 
L 625.099406 257.520153 
" clip-path="url(#p767b467189)" style="fill: none; stroke: #b0b0b0; stroke-width: 0.8; stroke-linecap: square"/>
     </g>
     <g id="text_2">
      <!-- 22 -->
      <g transform="translate(631.67122 254.921959) scale(0.1 -0.1)">
       <defs>
        <path id="DejaVuSans-32" d="M 1228 531 
L 3431 531 
L 3431 0 
L 469 0 
L 469 531 
Q 828 903 1448 1529 
Q 2069 2156 2228 2338 
Q 2531 2678 2651 2914 
Q 2772 3150 2772 3378 
Q 2772 3750 2511 3984 
Q 2250 4219 1831 4219 
Q 1534 4219 1204 4116 
Q 875 4013 500 3803 
L 500 4441 
Q 881 4594 1212 4672 
Q 1544 4750 1819 4750 
Q 2544 4750 2975 4387 
Q 3406 4025 3406 3419 
Q 3406 3131 3298 2873 
Q 3191 2616 2906 2266 
Q 2828 2175 2409 1742 
Q 1991 1309 1228 531 
z
" transform="scale(0.015625)"/>
       </defs>
       <use xlink:href="#DejaVuSans-32"/>
       <use xlink:href="#DejaVuSans-32" x="63.623047"/>
      </g>
     </g>
    </g>
    <g id="xtick_3">
     <g id="line2d_3">
      <path d="M 369 363.6 
L 549.026999 152.815466 
" clip-path="url(#p767b467189)" style="fill: none; stroke: #b0b0b0; stroke-width: 0.8; stroke-linecap: square"/>
     </g>
     <g id="text_3">
      <!-- 50 -->
      <g transform="translate(551.756772 144.929158) scale(0.1 -0.1)">
       <defs>
        <path id="DejaVuSans-35" d="M 691 4666 
L 3169 4666 
L 3169 4134 
L 1269 4134 
L 1269 2991 
Q 1406 3038 1543 3061 
Q 1681 3084 1819 3084 
Q 2600 3084 3056 2656 
Q 3513 2228 3513 1497 
Q 3513 744 3044 326 
Q 2575 -91 1722 -91 
Q 1428 -91 1123 -41 
Q 819 9 494 109 
L 494 744 
Q 775 591 1075 516 
Q 1375 441 1709 441 
Q 2250 441 2565 725 
Q 2881 1009 2881 1497 
Q 2881 1984 2565 2268 
Q 2250 2553 1709 2553 
Q 1456 2553 1204 2497 
Q 953 2441 691 2322 
L 691 4666 
z
" transform="scale(0.015625)"/>
       </defs>
       <use xlink:href="#DejaVuSans-35"/>
       <use xlink:href="#DejaVuSans-30" x="63.623047"/>
      </g>
     </g>
    </g>
    <g id="xtick_4">
     <g id="line2d_4">
      <path d="M 369 363.6 
L 433.711055 94.059058 
" clip-path="url(#p767b467189)" style="fill: none; stroke: #b0b0b0; stroke-width: 0.8; stroke-linecap: square"/>
     </g>
     <g id="text_4">
      <!-- 76 -->
      <g transform="translate(430.61679 83.205254) scale(0.1 -0.1)">
       <defs>
        <path id="DejaVuSans-37" d="M 525 4666 
L 3525 4666 
L 3525 4397 
L 1831 0 
L 1172 0 
L 2766 4134 
L 525 4134 
L 525 4666 
z
" transform="scale(0.015625)"/>
        <path id="DejaVuSans-36" d="M 2113 2584 
Q 1688 2584 1439 2293 
Q 1191 2003 1191 1497 
Q 1191 994 1439 701 
Q 1688 409 2113 409 
Q 2538 409 2786 701 
Q 3034 994 3034 1497 
Q 3034 2003 2786 2293 
Q 2538 2584 2113 2584 
z
M 3366 4563 
L 3366 3988 
Q 3128 4100 2886 4159 
Q 2644 4219 2406 4219 
Q 1781 4219 1451 3797 
Q 1122 3375 1075 2522 
Q 1259 2794 1537 2939 
Q 1816 3084 2150 3084 
Q 2853 3084 3261 2657 
Q 3669 2231 3669 1497 
Q 3669 778 3244 343 
Q 2819 -91 2113 -91 
Q 1303 -91 875 529 
Q 447 1150 447 2328 
Q 447 3434 972 4092 
Q 1497 4750 2381 4750 
Q 2619 4750 2861 4703 
Q 3103 4656 3366 4563 
z
" transform="scale(0.015625)"/>
       </defs>
       <use xlink:href="#DejaVuSans-37"/>
       <use xlink:href="#DejaVuSans-36" x="63.623047"/>
      </g>
     </g>
    </g>
    <g id="xtick_5">
     <g id="line2d_5">
      <path d="M 369 363.6 
L 304.288945 94.059058 
" clip-path="url(#p767b467189)" style="fill: none; stroke: #b0b0b0; stroke-width: 0.8; stroke-linecap: square"/>
     </g>
     <g id="text_5">
      <!-- 104 -->
      <g transform="translate(291.47696 83.205254) scale(0.1 -0.1)">
       <defs>
        <path id="DejaVuSans-31" d="M 794 531 
L 1825 531 
L 1825 4091 
L 703 3866 
L 703 4441 
L 1819 4666 
L 2450 4666 
L 2450 531 
L 3481 531 
L 3481 0 
L 794 0 
L 794 531 
z
" transform="scale(0.015625)"/>
        <path id="DejaVuSans-34" d="M 2419 4116 
L 825 1625 
L 2419 1625 
L 2419 4116 
z
M 2253 4666 
L 3047 4666 
L 3047 1625 
L 3713 1625 
L 3713 1100 
L 3047 1100 
L 3047 0 
L 2419 0 
L 2419 1100 
L 313 1100 
L 313 1709 
L 2253 4666 
z
" transform="scale(0.015625)"/>
       </defs>
       <use xlink:href="#DejaVuSans-31"/>
       <use xlink:href="#DejaVuSans-30" x="63.623047"/>
       <use xlink:href="#DejaVuSans-34" x="127.246094"/>
      </g>
     </g>
    </g>
    <g id="xtick_6">
     <g id="line2d_6">
      <path d="M 369 363.6 
L 188.973001 152.815466 
" clip-path="url(#p767b467189)" style="fill: none; stroke: #b0b0b0; stroke-width: 0.8; stroke-linecap: square"/>
     </g>
     <g id="text_6">
      <!-- 130 -->
      <g transform="translate(170.336978 144.929158) scale(0.1 -0.1)">
       <defs>
        <path id="DejaVuSans-33" d="M 2597 2516 
Q 3050 2419 3304 2112 
Q 3559 1806 3559 1356 
Q 3559 666 3084 287 
Q 2609 -91 1734 -91 
Q 1441 -91 1130 -33 
Q 819 25 488 141 
L 488 750 
Q 750 597 1062 519 
Q 1375 441 1716 441 
Q 2309 441 2620 675 
Q 2931 909 2931 1356 
Q 2931 1769 2642 2001 
Q 2353 2234 1838 2234 
L 1294 2234 
L 1294 2753 
L 1863 2753 
Q 2328 2753 2575 2939 
Q 2822 3125 2822 3475 
Q 2822 3834 2567 4026 
Q 2313 4219 1838 4219 
Q 1578 4219 1281 4162 
Q 984 4106 628 3988 
L 628 4550 
Q 988 4650 1302 4700 
Q 1616 4750 1894 4750 
Q 2613 4750 3031 4423 
Q 3450 4097 3450 3541 
Q 3450 3153 3228 2886 
Q 3006 2619 2597 2516 
z
" transform="scale(0.015625)"/>
       </defs>
       <use xlink:href="#DejaVuSans-31"/>
       <use xlink:href="#DejaVuSans-33" x="63.623047"/>
       <use xlink:href="#DejaVuSans-30" x="127.246094"/>
      </g>
     </g>
    </g>
    <g id="xtick_7">
     <g id="line2d_7">
      <path d="M 369 363.6 
L 112.900594 257.520153 
" clip-path="url(#p767b467189)" style="fill: none; stroke: #b0b0b0; stroke-width: 0.8; stroke-linecap: square"/>
     </g>
     <g id="text_7">
      <!-- 158 -->
      <g transform="translate(90.42253 254.921959) scale(0.1 -0.1)">
       <defs>
        <path id="DejaVuSans-38" d="M 2034 2216 
Q 1584 2216 1326 1975 
Q 1069 1734 1069 1313 
Q 1069 891 1326 650 
Q 1584 409 2034 409 
Q 2484 409 2743 651 
Q 3003 894 3003 1313 
Q 3003 1734 2745 1975 
Q 2488 2216 2034 2216 
z
M 1403 2484 
Q 997 2584 770 2862 
Q 544 3141 544 3541 
Q 544 4100 942 4425 
Q 1341 4750 2034 4750 
Q 2731 4750 3128 4425 
Q 3525 4100 3525 3541 
Q 3525 3141 3298 2862 
Q 3072 2584 2669 2484 
Q 3125 2378 3379 2068 
Q 3634 1759 3634 1313 
Q 3634 634 3220 271 
Q 2806 -91 2034 -91 
Q 1263 -91 848 271 
Q 434 634 434 1313 
Q 434 1759 690 2068 
Q 947 2378 1403 2484 
z
M 1172 3481 
Q 1172 3119 1398 2916 
Q 1625 2713 2034 2713 
Q 2441 2713 2670 2916 
Q 2900 3119 2900 3481 
Q 2900 3844 2670 4047 
Q 2441 4250 2034 4250 
Q 1625 4250 1398 4047 
Q 1172 3844 1172 3481 
z
" transform="scale(0.015625)"/>
       </defs>
       <use xlink:href="#DejaVuSans-31"/>
       <use xlink:href="#DejaVuSans-35" x="63.623047"/>
       <use xlink:href="#DejaVuSans-38" x="127.246094"/>
      </g>
     </g>
    </g>
    <g id="xtick_8">
     <g id="line2d_8">
      <path d="M 369 363.6 
L 91.8 363.6 
" clip-path="url(#p767b467189)" style="fill: none; stroke: #b0b0b0; stroke-width: 0.8; stroke-linecap: square"/>
     </g>
     <g id="text_8">
      <!-- 180 -->
      <g transform="translate(68.25625 366.359375) scale(0.1 -0.1)">
       <use xlink:href="#DejaVuSans-31"/>
       <use xlink:href="#DejaVuSans-38" x="63.623047"/>
       <use xlink:href="#DejaVuSans-30" x="127.246094"/>
      </g>
     </g>
    </g>
    <g id="xtick_9">
     <g id="line2d_9">
      <path d="M 369 363.6 
L 112.900594 469.679847 
" clip-path="url(#p767b467189)" style="fill: none; stroke: #b0b0b0; stroke-width: 0.8; stroke-linecap: square"/>
     </g>
     <g id="text_9">
      <!-- 202 -->
      <g transform="translate(90.42253 477.796791) scale(0.1 -0.1)">
       <use xlink:href="#DejaVuSans-32"/>
       <use xlink:href="#DejaVuSans-30" x="63.623047"/>
       <use xlink:href="#DejaVuSans-32" x="127.246094"/>
      </g>
     </g>
    </g>
    <g id="xtick_10">
     <g id="line2d_10">
      <path d="M 369 363.6 
L 188.973001 574.384534 
" clip-path="url(#p767b467189)" style="fill: none; stroke: #b0b0b0; stroke-width: 0.8; stroke-linecap: square"/>
     </g>
     <g id="text_10">
      <!-- 229 -->
      <g transform="translate(170.336978 587.789592) scale(0.1 -0.1)">
       <defs>
        <path id="DejaVuSans-39" d="M 703 97 
L 703 672 
Q 941 559 1184 500 
Q 1428 441 1663 441 
Q 2288 441 2617 861 
Q 2947 1281 2994 2138 
Q 2813 1869 2534 1725 
Q 2256 1581 1919 1581 
Q 1219 1581 811 2004 
Q 403 2428 403 3163 
Q 403 3881 828 4315 
Q 1253 4750 1959 4750 
Q 2769 4750 3195 4129 
Q 3622 3509 3622 2328 
Q 3622 1225 3098 567 
Q 2575 -91 1691 -91 
Q 1453 -91 1209 -44 
Q 966 3 703 97 
z
M 1959 2075 
Q 2384 2075 2632 2365 
Q 2881 2656 2881 3163 
Q 2881 3666 2632 3958 
Q 2384 4250 1959 4250 
Q 1534 4250 1286 3958 
Q 1038 3666 1038 3163 
Q 1038 2656 1286 2365 
Q 1534 2075 1959 2075 
z
" transform="scale(0.015625)"/>
       </defs>
       <use xlink:href="#DejaVuSans-32"/>
       <use xlink:href="#DejaVuSans-32" x="63.623047"/>
       <use xlink:href="#DejaVuSans-39" x="127.246094"/>
      </g>
     </g>
    </g>
    <g id="xtick_11">
     <g id="line2d_11">
      <path d="M 369 363.6 
L 304.288945 633.140942 
" clip-path="url(#p767b467189)" style="fill: none; stroke: #b0b0b0; stroke-width: 0.8; stroke-linecap: square"/>
     </g>
     <g id="text_11">
      <!-- 256 -->
      <g transform="translate(291.47696 649.513496) scale(0.1 -0.1)">
       <use xlink:href="#DejaVuSans-32"/>
       <use xlink:href="#DejaVuSans-35" x="63.623047"/>
       <use xlink:href="#DejaVuSans-36" x="127.246094"/>
      </g>
     </g>
    </g>
    <g id="xtick_12">
     <g id="line2d_12">
      <path d="M 369 363.6 
L 433.711055 633.140942 
" clip-path="url(#p767b467189)" style="fill: none; stroke: #b0b0b0; stroke-width: 0.8; stroke-linecap: square"/>
     </g>
     <g id="text_12">
      <!-- 284 -->
      <g transform="translate(427.43554 649.513496) scale(0.1 -0.1)">
       <use xlink:href="#DejaVuSans-32"/>
       <use xlink:href="#DejaVuSans-38" x="63.623047"/>
       <use xlink:href="#DejaVuSans-34" x="127.246094"/>
      </g>
     </g>
    </g>
    <g id="xtick_13">
     <g id="line2d_13">
      <path d="M 369 363.6 
L 549.026999 574.384534 
" clip-path="url(#p767b467189)" style="fill: none; stroke: #b0b0b0; stroke-width: 0.8; stroke-linecap: square"/>
     </g>
     <g id="text_13">
      <!-- 310 -->
      <g transform="translate(548.575522 587.789592) scale(0.1 -0.1)">
       <use xlink:href="#DejaVuSans-33"/>
       <use xlink:href="#DejaVuSans-31" x="63.623047"/>
       <use xlink:href="#DejaVuSans-30" x="127.246094"/>
      </g>
     </g>
    </g>
    <g id="xtick_14">
     <g id="line2d_14">
      <path d="M 369 363.6 
L 625.099406 469.679847 
" clip-path="url(#p767b467189)" style="fill: none; stroke: #b0b0b0; stroke-width: 0.8; stroke-linecap: square"/>
     </g>
     <g id="text_14">
      <!-- 338 -->
      <g transform="translate(628.48997 477.796791) scale(0.1 -0.1)">
       <use xlink:href="#DejaVuSans-33"/>
       <use xlink:href="#DejaVuSans-33" x="63.623047"/>
       <use xlink:href="#DejaVuSans-38" x="127.246094"/>
      </g>
     </g>
    </g>
    <g id="xtick_15">
     <g id="line2d_15">
      <path d="M 369 363.6 
L 646.2 363.6 
" clip-path="url(#p767b467189)" style="fill: none; stroke: #b0b0b0; stroke-width: 0.8; stroke-linecap: square"/>
     </g>
     <g id="text_15">
      <!-- 0 -->
      <g transform="translate(657.01875 366.359375) scale(0.1 -0.1)">
       <use xlink:href="#DejaVuSans-30"/>
      </g>
     </g>
    </g>
   </g>
   <g id="matplotlib.axis_2">
    <g id="ytick_1">
     <g id="line2d_16">
      <path d="M 416.415467 363.6 
C 416.415467 357.373458 415.188974 351.207461 412.80618 345.454886 
C 410.423385 339.702312 406.930628 334.475032 402.527798 330.072202 
C 398.124968 325.669372 392.897688 322.176615 387.145114 319.79382 
C 381.392539 317.411026 375.226542 316.184533 369 316.184533 
C 362.773458 316.184533 356.607461 317.411026 350.854886 319.79382 
C 345.102312 322.176615 339.875032 325.669372 335.472202 330.072202 
C 331.069372 334.475032 327.576615 339.702312 325.19382 345.454886 
C 322.811026 351.207461 321.584533 357.373458 321.584533 363.6 
C 321.584533 369.826542 322.811026 375.992539 325.19382 381.745114 
C 327.576615 387.497688 331.069372 392.724968 335.472202 397.127798 
C 339.875032 401.530628 345.102312 405.023385 350.854886 407.40618 
C 356.607461 409.788974 362.773458 411.015467 369 411.015467 
C 375.226542 411.015467 381.392539 409.788974 387.145114 407.40618 
C 392.897688 405.023385 398.124968 401.530628 402.527798 397.127798 
C 406.930628 392.724968 410.423385 387.497688 412.80618 381.745114 
C 415.188974 375.992539 416.415467 369.826542 416.415467 363.6 
" clip-path="url(#p767b467189)" style="fill: none; stroke: #b0b0b0; stroke-width: 0.8; stroke-linecap: square"/>
     </g>
     <g id="text_16">
      <!-- 5 -->
      <g style="fill: #ff0000" transform="translate(412.80618 379.665426) scale(0.1 -0.1)">
       <use xlink:href="#DejaVuSans-35"/>
      </g>
     </g>
    </g>
    <g id="ytick_2">
     <g id="line2d_17">
      <path d="M 463.830934 363.6 
C 463.830934 351.146916 461.377948 338.814922 456.612359 327.309773 
C 451.84677 315.804623 444.861257 305.350064 436.055597 296.544403 
C 427.249936 287.738743 416.795377 280.75323 405.290227 275.987641 
C 393.785078 271.222052 381.453084 268.769066 369 268.769066 
C 356.546916 268.769066 344.214922 271.222052 332.709773 275.987641 
C 321.204623 280.75323 310.750064 287.738743 301.944403 296.544403 
C 293.138743 305.350064 286.15323 315.804623 281.387641 327.309773 
C 276.622052 338.814922 274.169066 351.146916 274.169066 363.6 
C 274.169066 376.053084 276.622052 388.385078 281.387641 399.890227 
C 286.15323 411.395377 293.138743 421.849936 301.944403 430.655597 
C 310.750064 439.461257 321.204623 446.44677 332.709773 451.212359 
C 344.214922 455.977948 356.546916 458.430934 369 458.430934 
C 381.453084 458.430934 393.785078 455.977948 405.290227 451.212359 
C 416.795377 446.44677 427.249936 439.461257 436.055597 430.655597 
C 444.861257 421.849936 451.84677 411.395377 456.612359 399.890227 
C 461.377948 388.385078 463.830934 376.053084 463.830934 363.6 
" clip-path="url(#p767b467189)" style="fill: none; stroke: #b0b0b0; stroke-width: 0.8; stroke-linecap: square"/>
     </g>
     <g id="text_17">
      <!-- 10 -->
      <g style="fill: #ff0000" transform="translate(456.612359 397.81054) scale(0.1 -0.1)">
       <use xlink:href="#DejaVuSans-31"/>
       <use xlink:href="#DejaVuSans-30" x="63.623047"/>
      </g>
     </g>
    </g>
    <g id="ytick_3">
     <g id="line2d_18">
      <path d="M 511.246401 363.6 
C 511.246401 344.920374 507.566922 326.422383 500.418539 309.164659 
C 493.270155 291.906935 482.791885 276.225095 469.583395 263.016605 
C 456.374905 249.808115 440.693065 239.329845 423.435341 232.181461 
C 406.177617 225.033078 387.679626 221.353599 369 221.353599 
C 350.320374 221.353599 331.822383 225.033078 314.564659 232.181461 
C 297.306935 239.329845 281.625095 249.808115 268.416605 263.016605 
C 255.208115 276.225095 244.729845 291.906935 237.581461 309.164659 
C 230.433078 326.422383 226.753599 344.920374 226.753599 363.6 
C 226.753599 382.279626 230.433078 400.777617 237.581461 418.035341 
C 244.729845 435.293065 255.208115 450.974905 268.416605 464.183395 
C 281.625095 477.391885 297.306935 487.870155 314.564659 495.018539 
C 331.822383 502.166922 350.320374 505.846401 369 505.846401 
C 387.679626 505.846401 406.177617 502.166922 423.435341 495.018539 
C 440.693065 487.870155 456.374905 477.391885 469.583395 464.183395 
C 482.791885 450.974905 493.270155 435.293065 500.418539 418.035341 
C 507.566922 400.777617 511.246401 382.279626 511.246401 363.6 
" clip-path="url(#p767b467189)" style="fill: none; stroke: #b0b0b0; stroke-width: 0.8; stroke-linecap: square"/>
     </g>
     <g id="text_18">
      <!-- 15 -->
      <g style="fill: #ff0000" transform="translate(500.418539 415.955654) scale(0.1 -0.1)">
       <use xlink:href="#DejaVuSans-31"/>
       <use xlink:href="#DejaVuSans-35" x="63.623047"/>
      </g>
     </g>
    </g>
    <g id="ytick_4">
     <g id="line2d_19">
      <path d="M 558.661868 363.6 
C 558.661868 338.693832 553.755896 314.029844 544.224718 291.019545 
C 534.69354 268.009246 520.722514 247.100127 503.111193 229.488807 
C 485.499873 211.877486 464.590754 197.90646 441.580455 188.375282 
C 418.570156 178.844104 393.906168 173.938132 369 173.938132 
C 344.093832 173.938132 319.429844 178.844104 296.419545 188.375282 
C 273.409246 197.90646 252.500127 211.877486 234.888807 229.488807 
C 217.277486 247.100127 203.30646 268.009246 193.775282 291.019545 
C 184.244104 314.029844 179.338132 338.693832 179.338132 363.6 
C 179.338132 388.506168 184.244104 413.170156 193.775282 436.180455 
C 203.30646 459.190754 217.277486 480.099873 234.888807 497.711193 
C 252.500127 515.322514 273.409246 529.29354 296.419545 538.824718 
C 319.429844 548.355896 344.093832 553.261868 369 553.261868 
C 393.906168 553.261868 418.570156 548.355896 441.580455 538.824718 
C 464.590754 529.29354 485.499873 515.322514 503.111193 497.711193 
C 520.722514 480.099873 534.69354 459.190754 544.224718 436.180455 
C 553.755896 413.170156 558.661868 388.506168 558.661868 363.6 
" clip-path="url(#p767b467189)" style="fill: none; stroke: #b0b0b0; stroke-width: 0.8; stroke-linecap: square"/>
     </g>
     <g id="text_19">
      <!-- 20 -->
      <g style="fill: #ff0000" transform="translate(544.224718 434.100767) scale(0.1 -0.1)">
       <use xlink:href="#DejaVuSans-32"/>
       <use xlink:href="#DejaVuSans-30" x="63.623047"/>
      </g>
     </g>
    </g>
    <g id="ytick_5">
     <g id="line2d_20">
      <path d="M 606.077335 363.6 
C 606.077335 332.46729 599.94487 301.637306 588.030898 272.874432 
C 576.116925 244.111558 558.653142 217.975159 536.638992 195.961008 
C 514.624841 173.946858 488.488442 156.483075 459.725568 144.569102 
C 430.962694 132.65513 400.13271 126.522665 369 126.522665 
C 337.86729 126.522665 307.037306 132.65513 278.274432 144.569102 
C 249.511558 156.483075 223.375159 173.946858 201.361008 195.961008 
C 179.346858 217.975159 161.883075 244.111558 149.969102 272.874432 
C 138.05513 301.637306 131.922665 332.46729 131.922665 363.6 
C 131.922665 394.73271 138.05513 425.562694 149.969102 454.325568 
C 161.883075 483.088442 179.346858 509.224841 201.361008 531.238992 
C 223.375159 553.253142 249.511558 570.716925 278.274432 582.630898 
C 307.037306 594.54487 337.86729 600.677335 369 600.677335 
C 400.13271 600.677335 430.962694 594.54487 459.725568 582.630898 
C 488.488442 570.716925 514.624841 553.253142 536.638992 531.238992 
C 558.653142 509.224841 576.116925 483.088442 588.030898 454.325568 
C 599.94487 425.562694 606.077335 394.73271 606.077335 363.6 
" clip-path="url(#p767b467189)" style="fill: none; stroke: #b0b0b0; stroke-width: 0.8; stroke-linecap: square"/>
     </g>
     <g id="text_20">
      <!-- 25 -->
      <g style="fill: #ff0000" transform="translate(588.030898 452.245881) scale(0.1 -0.1)">
       <use xlink:href="#DejaVuSans-32"/>
       <use xlink:href="#DejaVuSans-35" x="63.623047"/>
      </g>
     </g>
    </g>
   </g>
   <g id="line2d_21">
    <path d="M 603.031371 363.6 
L 579.046738 276.595793 
L 510.533366 197.885719 
L 417.895712 159.934703 
L 320.376446 161.06832 
L 207.155156 174.104035 
L 139.783841 268.655558 
L 95.081588 363.6 
L 139.783841 458.544442 
L 207.155156 553.095965 
L 320.376446 566.13168 
L 417.895712 567.265297 
L 510.533366 529.314281 
L 579.046738 450.604207 
L 603.031371 363.6 
" clip-path="url(#p767b467189)" style="fill: none; stroke: #1f77b4; stroke-linecap: square"/>
   </g>
   <g id="patch_4">
    <path d="M 646.2 363.6 
C 646.2 327.19843 639.029684 291.150818 625.099406 257.520153 
C 611.169128 223.889487 590.749797 193.329798 565.01 167.59 
C 539.270202 141.850203 508.710513 121.430872 475.079847 107.500594 
C 441.449182 93.570316 405.40157 86.4 369 86.4 
C 332.59843 86.4 296.550818 93.570316 262.920153 107.500594 
C 229.289487 121.430872 198.729798 141.850203 172.99 167.59 
C 147.250203 193.329798 126.830872 223.889487 112.900594 257.520153 
C 98.970316 291.150818 91.8 327.19843 91.8 363.6 
C 91.8 400.00157 98.970316 436.049182 112.900594 469.679847 
C 126.830872 503.310513 147.250203 533.870202 172.99 559.61 
C 198.729798 585.349797 229.289487 605.769128 262.920153 619.699406 
C 296.550818 633.629684 332.59843 640.8 369 640.8 
C 405.40157 640.8 441.449182 633.629684 475.079847 619.699406 
C 508.710513 605.769128 539.270202 585.349797 565.01 559.61 
C 590.749797 533.870202 611.169128 503.310513 625.099406 469.679847 
C 639.029684 436.049182 646.2 400.00157 646.2 363.6 
" style="fill: none; stroke: #000000; stroke-width: 0.8; stroke-linejoin: miter; stroke-linecap: square"/>
   </g>
   <g id="text_21">
    <!-- Mean Noise Profile -->
    <g transform="translate(313.540313 69.606817) scale(0.12 -0.12)">
     <defs>
      <path id="DejaVuSans-4d" d="M 628 4666 
L 1569 4666 
L 2759 1491 
L 3956 4666 
L 4897 4666 
L 4897 0 
L 4281 0 
L 4281 4097 
L 3078 897 
L 2444 897 
L 1241 4097 
L 1241 0 
L 628 0 
L 628 4666 
z
" transform="scale(0.015625)"/>
      <path id="DejaVuSans-65" d="M 3597 1894 
L 3597 1613 
L 953 1613 
Q 991 1019 1311 708 
Q 1631 397 2203 397 
Q 2534 397 2845 478 
Q 3156 559 3463 722 
L 3463 178 
Q 3153 47 2828 -22 
Q 2503 -91 2169 -91 
Q 1331 -91 842 396 
Q 353 884 353 1716 
Q 353 2575 817 3079 
Q 1281 3584 2069 3584 
Q 2775 3584 3186 3129 
Q 3597 2675 3597 1894 
z
M 3022 2063 
Q 3016 2534 2758 2815 
Q 2500 3097 2075 3097 
Q 1594 3097 1305 2825 
Q 1016 2553 972 2059 
L 3022 2063 
z
" transform="scale(0.015625)"/>
      <path id="DejaVuSans-61" d="M 2194 1759 
Q 1497 1759 1228 1600 
Q 959 1441 959 1056 
Q 959 750 1161 570 
Q 1363 391 1709 391 
Q 2188 391 2477 730 
Q 2766 1069 2766 1631 
L 2766 1759 
L 2194 1759 
z
M 3341 1997 
L 3341 0 
L 2766 0 
L 2766 531 
Q 2569 213 2275 61 
Q 1981 -91 1556 -91 
Q 1019 -91 701 211 
Q 384 513 384 1019 
Q 384 1609 779 1909 
Q 1175 2209 1959 2209 
L 2766 2209 
L 2766 2266 
Q 2766 2663 2505 2880 
Q 2244 3097 1772 3097 
Q 1472 3097 1187 3025 
Q 903 2953 641 2809 
L 641 3341 
Q 956 3463 1253 3523 
Q 1550 3584 1831 3584 
Q 2591 3584 2966 3190 
Q 3341 2797 3341 1997 
z
" transform="scale(0.015625)"/>
      <path id="DejaVuSans-6e" d="M 3513 2113 
L 3513 0 
L 2938 0 
L 2938 2094 
Q 2938 2591 2744 2837 
Q 2550 3084 2163 3084 
Q 1697 3084 1428 2787 
Q 1159 2491 1159 1978 
L 1159 0 
L 581 0 
L 581 3500 
L 1159 3500 
L 1159 2956 
Q 1366 3272 1645 3428 
Q 1925 3584 2291 3584 
Q 2894 3584 3203 3211 
Q 3513 2838 3513 2113 
z
" transform="scale(0.015625)"/>
      <path id="DejaVuSans-20" transform="scale(0.015625)"/>
      <path id="DejaVuSans-4e" d="M 628 4666 
L 1478 4666 
L 3547 763 
L 3547 4666 
L 4159 4666 
L 4159 0 
L 3309 0 
L 1241 3903 
L 1241 0 
L 628 0 
L 628 4666 
z
" transform="scale(0.015625)"/>
      <path id="DejaVuSans-6f" d="M 1959 3097 
Q 1497 3097 1228 2736 
Q 959 2375 959 1747 
Q 959 1119 1226 758 
Q 1494 397 1959 397 
Q 2419 397 2687 759 
Q 2956 1122 2956 1747 
Q 2956 2369 2687 2733 
Q 2419 3097 1959 3097 
z
M 1959 3584 
Q 2709 3584 3137 3096 
Q 3566 2609 3566 1747 
Q 3566 888 3137 398 
Q 2709 -91 1959 -91 
Q 1206 -91 779 398 
Q 353 888 353 1747 
Q 353 2609 779 3096 
Q 1206 3584 1959 3584 
z
" transform="scale(0.015625)"/>
      <path id="DejaVuSans-69" d="M 603 3500 
L 1178 3500 
L 1178 0 
L 603 0 
L 603 3500 
z
M 603 4863 
L 1178 4863 
L 1178 4134 
L 603 4134 
L 603 4863 
z
" transform="scale(0.015625)"/>
      <path id="DejaVuSans-73" d="M 2834 3397 
L 2834 2853 
Q 2591 2978 2328 3040 
Q 2066 3103 1784 3103 
Q 1356 3103 1142 2972 
Q 928 2841 928 2578 
Q 928 2378 1081 2264 
Q 1234 2150 1697 2047 
L 1894 2003 
Q 2506 1872 2764 1633 
Q 3022 1394 3022 966 
Q 3022 478 2636 193 
Q 2250 -91 1575 -91 
Q 1294 -91 989 -36 
Q 684 19 347 128 
L 347 722 
Q 666 556 975 473 
Q 1284 391 1588 391 
Q 1994 391 2212 530 
Q 2431 669 2431 922 
Q 2431 1156 2273 1281 
Q 2116 1406 1581 1522 
L 1381 1569 
Q 847 1681 609 1914 
Q 372 2147 372 2553 
Q 372 3047 722 3315 
Q 1072 3584 1716 3584 
Q 2034 3584 2315 3537 
Q 2597 3491 2834 3397 
z
" transform="scale(0.015625)"/>
      <path id="DejaVuSans-50" d="M 1259 4147 
L 1259 2394 
L 2053 2394 
Q 2494 2394 2734 2622 
Q 2975 2850 2975 3272 
Q 2975 3691 2734 3919 
Q 2494 4147 2053 4147 
L 1259 4147 
z
M 628 4666 
L 2053 4666 
Q 2838 4666 3239 4311 
Q 3641 3956 3641 3272 
Q 3641 2581 3239 2228 
Q 2838 1875 2053 1875 
L 1259 1875 
L 1259 0 
L 628 0 
L 628 4666 
z
" transform="scale(0.015625)"/>
      <path id="DejaVuSans-72" d="M 2631 2963 
Q 2534 3019 2420 3045 
Q 2306 3072 2169 3072 
Q 1681 3072 1420 2755 
Q 1159 2438 1159 1844 
L 1159 0 
L 581 0 
L 581 3500 
L 1159 3500 
L 1159 2956 
Q 1341 3275 1631 3429 
Q 1922 3584 2338 3584 
Q 2397 3584 2469 3576 
Q 2541 3569 2628 3553 
L 2631 2963 
z
" transform="scale(0.015625)"/>
      <path id="DejaVuSans-66" d="M 2375 4863 
L 2375 4384 
L 1825 4384 
Q 1516 4384 1395 4259 
Q 1275 4134 1275 3809 
L 1275 3500 
L 2222 3500 
L 2222 3053 
L 1275 3053 
L 1275 0 
L 697 0 
L 697 3053 
L 147 3053 
L 147 3500 
L 697 3500 
L 697 3744 
Q 697 4328 969 4595 
Q 1241 4863 1831 4863 
L 2375 4863 
z
" transform="scale(0.015625)"/>
      <path id="DejaVuSans-6c" d="M 603 4863 
L 1178 4863 
L 1178 0 
L 603 0 
L 603 4863 
z
" transform="scale(0.015625)"/>
     </defs>
     <use xlink:href="#DejaVuSans-4d"/>
     <use xlink:href="#DejaVuSans-65" x="86.279297"/>
     <use xlink:href="#DejaVuSans-61" x="147.802734"/>
     <use xlink:href="#DejaVuSans-6e" x="209.082031"/>
     <use xlink:href="#DejaVuSans-20" x="272.460938"/>
     <use xlink:href="#DejaVuSans-4e" x="304.248047"/>
     <use xlink:href="#DejaVuSans-6f" x="379.052734"/>
     <use xlink:href="#DejaVuSans-69" x="440.234375"/>
     <use xlink:href="#DejaVuSans-73" x="468.017578"/>
     <use xlink:href="#DejaVuSans-65" x="520.117188"/>
     <use xlink:href="#DejaVuSans-20" x="581.640625"/>
     <use xlink:href="#DejaVuSans-50" x="613.427734"/>
     <use xlink:href="#DejaVuSans-72" x="671.980469"/>
     <use xlink:href="#DejaVuSans-6f" x="710.84375"/>
     <use xlink:href="#DejaVuSans-66" x="772.025391"/>
     <use xlink:href="#DejaVuSans-69" x="807.230469"/>
     <use xlink:href="#DejaVuSans-6c" x="835.013672"/>
     <use xlink:href="#DejaVuSans-65" x="862.796875"/>
    </g>
   </g>
   <g id="legend_1">
    <g id="patch_5">
     <path d="M 592.76 141.84 
L 646.986562 141.84 
Q 648.986562 141.84 648.986562 139.84 
L 648.986562 115.48375 
Q 648.986562 113.48375 646.986562 113.48375 
L 592.76 113.48375 
Q 590.76 113.48375 590.76 115.48375 
L 590.76 139.84 
Q 590.76 141.84 592.76 141.84 
z
" style="fill: #ffffff; opacity: 0.8; stroke: #cccccc; stroke-linejoin: miter"/>
    </g>
    <g id="text_22">
     <!-- ESC -->
     <g transform="translate(610.048281 125.082187) scale(0.1 -0.1)">
      <defs>
       <path id="DejaVuSans-45" d="M 628 4666 
L 3578 4666 
L 3578 4134 
L 1259 4134 
L 1259 2753 
L 3481 2753 
L 3481 2222 
L 1259 2222 
L 1259 531 
L 3634 531 
L 3634 0 
L 628 0 
L 628 4666 
z
" transform="scale(0.015625)"/>
       <path id="DejaVuSans-53" d="M 3425 4513 
L 3425 3897 
Q 3066 4069 2747 4153 
Q 2428 4238 2131 4238 
Q 1616 4238 1336 4038 
Q 1056 3838 1056 3469 
Q 1056 3159 1242 3001 
Q 1428 2844 1947 2747 
L 2328 2669 
Q 3034 2534 3370 2195 
Q 3706 1856 3706 1288 
Q 3706 609 3251 259 
Q 2797 -91 1919 -91 
Q 1588 -91 1214 -16 
Q 841 59 441 206 
L 441 856 
Q 825 641 1194 531 
Q 1563 422 1919 422 
Q 2459 422 2753 634 
Q 3047 847 3047 1241 
Q 3047 1584 2836 1778 
Q 2625 1972 2144 2069 
L 1759 2144 
Q 1053 2284 737 2584 
Q 422 2884 422 3419 
Q 422 4038 858 4394 
Q 1294 4750 2059 4750 
Q 2388 4750 2728 4690 
Q 3069 4631 3425 4513 
z
" transform="scale(0.015625)"/>
       <path id="DejaVuSans-43" d="M 4122 4306 
L 4122 3641 
Q 3803 3938 3442 4084 
Q 3081 4231 2675 4231 
Q 1875 4231 1450 3742 
Q 1025 3253 1025 2328 
Q 1025 1406 1450 917 
Q 1875 428 2675 428 
Q 3081 428 3442 575 
Q 3803 722 4122 1019 
L 4122 359 
Q 3791 134 3420 21 
Q 3050 -91 2638 -91 
Q 1578 -91 968 557 
Q 359 1206 359 2328 
Q 359 3453 968 4101 
Q 1578 4750 2638 4750 
Q 3056 4750 3426 4639 
Q 3797 4528 4122 4306 
z
" transform="scale(0.015625)"/>
      </defs>
      <use xlink:href="#DejaVuSans-45"/>
      <use xlink:href="#DejaVuSans-53" x="63.183594"/>
      <use xlink:href="#DejaVuSans-43" x="126.660156"/>
     </g>
    </g>
    <g id="line2d_22">
     <path d="M 594.76 132.260312 
L 604.76 132.260312 
L 614.76 132.260312 
" style="fill: none; stroke: #1f77b4; stroke-linecap: square"/>
    </g>
    <g id="text_23">
     <!-- 50% -->
     <g transform="translate(622.76 135.760312) scale(0.1 -0.1)">
      <defs>
       <path id="DejaVuSans-25" d="M 4653 2053 
Q 4381 2053 4226 1822 
Q 4072 1591 4072 1178 
Q 4072 772 4226 539 
Q 4381 306 4653 306 
Q 4919 306 5073 539 
Q 5228 772 5228 1178 
Q 5228 1588 5073 1820 
Q 4919 2053 4653 2053 
z
M 4653 2450 
Q 5147 2450 5437 2106 
Q 5728 1763 5728 1178 
Q 5728 594 5436 251 
Q 5144 -91 4653 -91 
Q 4153 -91 3862 251 
Q 3572 594 3572 1178 
Q 3572 1766 3864 2108 
Q 4156 2450 4653 2450 
z
M 1428 4353 
Q 1159 4353 1004 4120 
Q 850 3888 850 3481 
Q 850 3069 1003 2837 
Q 1156 2606 1428 2606 
Q 1700 2606 1854 2837 
Q 2009 3069 2009 3481 
Q 2009 3884 1853 4118 
Q 1697 4353 1428 4353 
z
M 4250 4750 
L 4750 4750 
L 1831 -91 
L 1331 -91 
L 4250 4750 
z
M 1428 4750 
Q 1922 4750 2215 4408 
Q 2509 4066 2509 3481 
Q 2509 2891 2217 2550 
Q 1925 2209 1428 2209 
Q 931 2209 642 2551 
Q 353 2894 353 3481 
Q 353 4063 643 4406 
Q 934 4750 1428 4750 
z
" transform="scale(0.015625)"/>
      </defs>
      <use xlink:href="#DejaVuSans-35"/>
      <use xlink:href="#DejaVuSans-30" x="63.623047"/>
      <use xlink:href="#DejaVuSans-25" x="127.246094"/>
     </g>
    </g>
   </g>
  </g>
 </g>
 <defs>
  <clipPath id="p767b467189">
   <path d="M 646.2 363.6 
C 646.2 327.19843 639.029684 291.150818 625.099406 257.520153 
C 611.169128 223.889487 590.749797 193.329798 565.01 167.59 
C 539.270202 141.850203 508.710513 121.430872 475.079847 107.500594 
C 441.449182 93.570316 405.40157 86.4 369 86.4 
C 332.59843 86.4 296.550818 93.570316 262.920153 107.500594 
C 229.289487 121.430872 198.729798 141.850203 172.99 167.59 
C 147.250203 193.329798 126.830872 223.889487 112.900594 257.520153 
C 98.970316 291.150818 91.8 327.19843 91.8 363.6 
C 91.8 400.00157 98.970316 436.049182 112.900594 469.679847 
C 126.830872 503.310513 147.250203 533.870202 172.99 559.61 
C 198.729798 585.349797 229.289487 605.769128 262.920153 619.699406 
C 296.550818 633.629684 332.59843 640.8 369 640.8 
C 405.40157 640.8 441.449182 633.629684 475.079847 619.699406 
C 508.710513 605.769128 539.270202 585.349797 565.01 559.61 
C 590.749797 533.870202 611.169128 503.310513 625.099406 469.679847 
C 639.029684 436.049182 646.2 400.00157 646.2 363.6 
M 369 363.6 
C 369 363.6 369 363.6 369 363.6 
C 369 363.6 369 363.6 369 363.6 
C 369 363.6 369 363.6 369 363.6 
C 369 363.6 369 363.6 369 363.6 
C 369 363.6 369 363.6 369 363.6 
C 369 363.6 369 363.6 369 363.6 
C 369 363.6 369 363.6 369 363.6 
C 369 363.6 369 363.6 369 363.6 
C 369 363.6 369 363.6 369 363.6 
C 369 363.6 369 363.6 369 363.6 
C 369 363.6 369 363.6 369 363.6 
C 369 363.6 369 363.6 369 363.6 
C 369 363.6 369 363.6 369 363.6 
C 369 363.6 369 363.6 369 363.6 
C 369 363.6 369 363.6 369 363.6 
C 369 363.6 369 363.6 369 363.6 
M 646.2 363.6 
z
"/>
  </clipPath>
 </defs>
</svg>
